<svg xmlns="http://www.w3.org/2000/svg" viewBox="0 0 5048.66 913.08"><defs><style>.cls-1{fill:#fff;}.cls-2{fill:#dc3c24;}</style></defs><title>6а</title><g id="Слой_2" data-name="Слой 2"><g id="Слой_1-2" data-name="Слой 1"><g id="Group_41" data-name="Group 41"><g id="Group_1" data-name="Group 1"><path id="Path_1" data-name="Path 1" class="cls-1" d="M1247.32,216.73c-3.87,0-7.9.08-12.07.37a16.15,16.15,0,0,0-11.34,6.22,20.11,20.11,0,0,0-5.12,10.61,62.32,62.32,0,0,0-1.46,13.54V652.32h-96.67V209.41A103.3,103.3,0,0,1,1124,183a57.14,57.14,0,0,1,15.73-24.88,56.47,56.47,0,0,1,27.07-15.73,159.84,159.84,0,0,1,30.8-2.54h303a168.47,168.47,0,0,1,30,2.54,52.18,52.18,0,0,1,27.88,15.73,54.38,54.38,0,0,1,15,24.89,108.47,108.47,0,0,1,3.3,26.42v442.9h-96.69V247.46c0-4-.07-8.05-.37-12.44a17.37,17.37,0,0,0-5.49-11.71,16.54,16.54,0,0,0-11.7-6.21c-4.39-.3-8.26-.37-11.71-.37Z"/><path id="Path_2" data-name="Path 2" class="cls-1" d="M1786.21,652.32q-14.7,0-30.8-1.1A125.46,125.46,0,0,1,1724,645a122.91,122.91,0,0,1-30.07-15,100.15,100.15,0,0,1-26.27-26.69,142.86,142.86,0,0,1-23.51-65.19,651.62,651.62,0,0,1-4.39-76.1q0-27.12,1.17-50.93a229.51,229.51,0,0,1,5.85-43.9,147.07,147.07,0,0,1,13.83-36.95,111,111,0,0,1,25.32-30.81,117.93,117.93,0,0,1,35.49-21.22,212.17,212.17,0,0,1,39.15-10.61,311.11,311.11,0,0,1,38-4c12.22-.51,23-.73,32.27-.73a560,560,0,0,1,67.76,4A147.12,147.12,0,0,1,1959,287.72a108.35,108.35,0,0,1,27.43,24.95,118.38,118.38,0,0,1,16.9,30.37,149.16,149.16,0,0,1,8.35,34.39,284.64,284.64,0,0,1,2.19,36.21,171.64,171.64,0,0,1-2.85,30.44,54.22,54.22,0,0,1-15.37,28.17A44,44,0,0,1,1976.13,484a85.81,85.81,0,0,1-22.32,2.93H1728.27c0,8.26.44,17.79,1.46,28.54a171.17,171.17,0,0,0,3.66,24.88,61.46,61.46,0,0,0,12.44,24.51,52.54,52.54,0,0,0,19.1,13.9,82.06,82.06,0,0,0,23,6.29,202.11,202.11,0,0,0,23.84,1.38h189.66v65.93ZM1906.29,421c8.26,0,13.54-2.49,15.73-7.39a36.72,36.72,0,0,0,3.29-15.37,62.31,62.31,0,0,0-7.69-31.44,72,72,0,0,0-17.19-20.56,73.32,73.32,0,0,0-35.58-14.92,279.27,279.27,0,0,0-37.68-2.64c-5.85,0-12.21.15-19,.37a141.23,141.23,0,0,0-21.29,2.64,82.22,82.22,0,0,0-21.6,7.68,69.57,69.57,0,0,0-19.39,15,55.52,55.52,0,0,0-15,31.1q-1.9,16.47-2.54,35.58Z"/><path id="Path_3" data-name="Path 3" class="cls-1" d="M2375.6,264.29V586.4h122.19a33.08,33.08,0,0,0,8.05-1,15.56,15.56,0,0,0,8-5.49,16,16,0,0,0,3.37-8.86c.22-3.36.29-6.73.29-10.16V264.29h85.68V593.78a131.21,131.21,0,0,1-1.83,23.41,38.72,38.72,0,0,1-12.07,20.49,48.86,48.86,0,0,1-26,12.8,208.43,208.43,0,0,1-28.25,1.83H2130.26a221.63,221.63,0,0,1-28.9-1.83,42.41,42.41,0,0,1-25.24-12.8,40,40,0,0,1-11.71-20.47,118.7,118.7,0,0,1-2.27-23.41V264.29h85.68V560.85c0,3.44.15,6.8.37,10.16A15.52,15.52,0,0,0,2160,585.35a37.15,37.15,0,0,0,8.41,1h121.54V264.29Z"/><path id="Path_4" data-name="Path 4" class="cls-1" d="M2661.76,652.31v-388h85.68v388Zm265.83,0L2786.3,497.85a158.89,158.89,0,0,1-14.34-19,47.05,47.05,0,0,1,1.83-54.15c6.35-8.86,12.22-16.39,17.56-22.76l123.73-137.63h101.85L2869.71,421A149.35,149.35,0,0,0,2858,434.56a28.44,28.44,0,0,0-6.59,17.85,30.93,30.93,0,0,0,4.76,14.34,60.57,60.57,0,0,0,9.15,12.8l165.51,172.76Z"/><path id="Path_5" data-name="Path 5" class="cls-1" d="M3276.82,264.29a129.92,129.92,0,0,1,46.1,8,92.26,92.26,0,0,1,34.39,22,94.54,94.54,0,0,1,20.56,35.58,171.57,171.57,0,0,1,8,56V587.19a143.4,143.4,0,0,1-2.54,24.88,45.84,45.84,0,0,1-37.7,37.68,161.61,161.61,0,0,1-28.54,2.54H3131.87a283.45,283.45,0,0,1-34.82-2.2,65.07,65.07,0,0,1-35.49-16.83,77.94,77.94,0,0,1-18.66-23.78,119.31,119.31,0,0,1-10.32-28.17,174.58,174.58,0,0,1-4-28.51c-.51-9.3-.73-17.56-.73-24.95a233.59,233.59,0,0,1,5.49-50.49,81.68,81.68,0,0,1,27.44-44,77.49,77.49,0,0,1,37-19.39,197.66,197.66,0,0,1,34.07-3.26h168.36v-27.1a100.29,100.29,0,0,0-1.83-18.29,40.58,40.58,0,0,0-9.21-18.29,37.68,37.68,0,0,0-20.05-13.9,85.72,85.72,0,0,0-21.66-2.93h-191V264.29ZM3157.41,476.63a85.86,85.86,0,0,0-14.27,1.83A27.62,27.62,0,0,0,3126,489.8a61.58,61.58,0,0,0-5.85,11.71,87,87,0,0,0-3.66,30,161.39,161.39,0,0,0,1.83,22,36.08,36.08,0,0,0,9.88,21.22,42.91,42.91,0,0,0,12.07,8.12,36.79,36.79,0,0,0,15.73,3.58h119.44c2.42,0,5.49-.07,9.15-.29a17.2,17.2,0,0,0,9.88-4,13.49,13.49,0,0,0,5-7.68,45.73,45.73,0,0,0,.81-8.41V476.63Z"/><path id="Path_6" data-name="Path 6" class="cls-1" d="M3530.07,776.77h-85.61V324.36a55.44,55.44,0,0,1,7.32-30.44,71.41,71.41,0,0,1,14.61-17.19,56.19,56.19,0,0,1,24.14-10.24,148.12,148.12,0,0,1,24.14-2.2h135.47q9.53,0,23.05,1.1a156.62,156.62,0,0,1,29.34,5.49,164.07,164.07,0,0,1,31.83,12.79,113.67,113.67,0,0,1,30,23.12,120.57,120.57,0,0,1,23,33.58,179.43,179.43,0,0,1,12.51,37.39,223.32,223.32,0,0,1,4.76,37.68c.44,12.44.73,24.07.73,34.83,0,12.66-.29,25.61-.73,38.76a293,293,0,0,1-4,38.75,227.57,227.57,0,0,1-9.53,36.66,136.29,136.29,0,0,1-16.46,32.19,117.47,117.47,0,0,1-31.17,31.1,132.33,132.33,0,0,1-35.86,16.9,166,166,0,0,1-36.58,6.59q-18,1.1-32.64,1.1H3530.07Zm97.39-190.38c21.51,0,37.82-4,49.09-12a91,91,0,0,0,24.15-23.78,101.28,101.28,0,0,0,11-29.33,285,285,0,0,0,5.13-63.66,354.52,354.52,0,0,0-3.3-57.51,121.73,121.73,0,0,0-6.95-26,69.4,69.4,0,0,0-27.07-31.46,85,85,0,0,0-47.56-12.44H3547.7a12.91,12.91,0,0,0-6.29,1.83q-2.84,1.51-5.49,3.29a18.19,18.19,0,0,0-5.85,13.17V586.39Z"/><path id="Path_7" data-name="Path 7" class="cls-1" d="M4148,652.31l2.93-276V369c0-2-1.46-2.93-4.39-2.93a6.53,6.53,0,0,0-3.66,1.83,43.21,43.21,0,0,0-6.59,8.41L3965.7,626a79.59,79.59,0,0,1-21.95,23,61.32,61.32,0,0,1-33.67,7.68,63.81,63.81,0,0,1-30-5.85,48.64,48.64,0,0,1-16.9-13.9,43.92,43.92,0,0,1-7.68-17.56,97.79,97.79,0,0,1-1.83-17.56V264.29h85.7l-3.66,276a32.48,32.48,0,0,0,.73,7.68c.52,1.75,2.2,2.64,5.13,2.64a7,7,0,0,0,5.92-3.37c1.39-2.12,2.86-4.45,4.32-7l172.76-254a54.22,54.22,0,0,1,25.68-21.6,84.08,84.08,0,0,1,27.07-4.76,137.48,137.48,0,0,1,13.9,1.1,44,44,0,0,1,18.66,6.95,55.77,55.77,0,0,1,16.52,17.56,64.71,64.71,0,0,1,7.32,33.68V652.31Z"/><path id="Path_8" data-name="Path 8" class="cls-1" d="M4292.28,652.31v-388H4378v388Zm265.82,0L4416.73,497.85a159.86,159.86,0,0,1-14.26-19,47.11,47.11,0,0,1-7.68-26.42,46.28,46.28,0,0,1,9.53-27.7c6.35-8.85,12.22-16.39,17.56-22.76l123.71-137.66h101.78L4500.25,421a139.64,139.64,0,0,0-11.71,13.54,28.43,28.43,0,0,0-6.58,17.85,30.08,30.08,0,0,0,4.76,14.34,60.57,60.57,0,0,0,9.15,12.8l165.44,172.76Z"/><path id="Path_9" data-name="Path 9" class="cls-1" d="M4963,652.31l2.85-276V369c0-2-1.46-2.93-4.32-2.93a6.9,6.9,0,0,0-3.73,1.83,41.51,41.51,0,0,0-6.51,8.41L4780.61,626a81.3,81.3,0,0,1-21.95,23,61.35,61.35,0,0,1-33.67,7.68,63.73,63.73,0,0,1-30.07-5.85A49,49,0,0,1,4678.07,637a43.06,43.06,0,0,1-7.68-17.56,92.54,92.54,0,0,1-1.83-17.56V264.29h85.71l-3.66,276a28.37,28.37,0,0,0,.73,7.68c.51,1.75,2.2,2.64,5.12,2.64a6.85,6.85,0,0,0,5.85-3.37c1.46-2.12,2.93-4.45,4.39-7l172.76-254a54.17,54.17,0,0,1,25.68-21.6,83.5,83.5,0,0,1,27.07-4.76,137.48,137.48,0,0,1,13.9,1.1,44.67,44.67,0,0,1,18.66,6.95,54.82,54.82,0,0,1,16.46,17.56,63.88,63.88,0,0,1,7.32,33.68V652.31Z"/></g><g id="Group_2" data-name="Group 2"><circle id="Ellipse_1" data-name="Ellipse 1" class="cls-2" cx="456.33" cy="456.6" r="442.81"/><path id="Path_10" data-name="Path 10" class="cls-1" d="M456.35,913.08C204.18,912.94-.13,708.41,0,456.23A456.61,456.61,0,0,1,278.63,36c232.3-97.9,500,10.79,598.31,242.92S866.65,778.76,634.57,877a456.16,456.16,0,0,1-178.22,36.09Zm0-885.58c-237,0-429.11,192.09-429.13,429.07S219.3,885.69,456.29,885.71,885.41,693.62,885.42,456.64v-.07C885.12,219.72,693.2,27.8,456.35,27.5Z"/><path id="Path_11" data-name="Path 11" class="cls-1" d="M399.44,489.71a8.69,8.69,0,0,1,3.51-.37H433c1.68,0,3.29-.07,5-.14a9.44,9.44,0,0,0,5.2-1.76l1.61-1.1c5.49-4.16,10.9-8.41,16.31-12.58l1.91-1.61a9.53,9.53,0,0,0,3.51-7.32,43.52,43.52,0,0,0,.15-4.45q.1-37.86.22-75.73c.08-9.53.22-19.09.22-28.68a62.21,62.21,0,0,0-.51-7.47,12.08,12.08,0,0,0-.81-3.22,8.73,8.73,0,0,0-8.19-5.26c-1.54-.08-3.18-.08-4.69-.08-17,0-34,.08-51,.08a7,7,0,0,0-4.62,1.46c-4.44,3.51-8.92,6.88-13.39,10.39-3.87,3.07-7.76,6.29-11.63,9.53-3.22,2.63-6.35,5.26-9.59,8l-16.39,13.75a30.08,30.08,0,0,0-3.88,3.52,22.26,22.26,0,0,0-3,5.26,24.36,24.36,0,0,0-1.17,5.12,126.17,126.17,0,0,0-.73,17.49c-.08,8.64-.37,17.27-.15,25.91.15,7.46-.15,14.85-.15,22.32a113.66,113.66,0,0,1-1.9,19.9,30.65,30.65,0,0,1-5,11.93,14.44,14.44,0,0,1-7.82,5.63A44.43,44.43,0,0,1,300,501.3a18.13,18.13,0,0,1-12.14-9,29.36,29.36,0,0,1-3.58-8,67.79,67.79,0,0,1-2.64-13.68c-.37-6.44-1.1-12.88-1.61-19.39-.22-1.91-.14-3.88-.22-5.85-.14-2.55-.29-5.12-.44-7.76l-.08-2.79v-38.7a35.69,35.69,0,0,1,.37-3.87c0-.81.14-1.61.14-2.49,0-2.79-.14-5.56.08-8.35a86.11,86.11,0,0,1,.81-11.34,43.39,43.39,0,0,0,.51-4.39,18.54,18.54,0,0,1,3.44-8.92c1.75-2.49,3.81-4.83,5.64-7.32a52.39,52.39,0,0,1,6.88-7.17c3.17-2.93,6.43-5.56,9.73-8.26,5.12-4.17,10.24-8.26,15.37-12.44l14.27-11.86c4-3.29,7.82-6.59,11.71-9.8s7.9-6.44,11.85-9.66c4.1-3.36,8.05-6.8,12.15-10.16,5.56-4.62,11.12-9.15,16.68-13.76,4-3.29,8-6.73,12.07-9.8a31.62,31.62,0,0,1,16.1-6.95,65.83,65.83,0,0,1,30.66,3.58A76.35,76.35,0,0,1,477.61,272a54.74,54.74,0,0,1,13.54,22.09,61.27,61.27,0,0,1,1.91,11.49,163,163,0,0,1,.73,18.88,38.27,38.27,0,0,0,.37,7.17,17.24,17.24,0,0,1,.07,3.37v98.84a24.23,24.23,0,0,0,.37,6.07,6.38,6.38,0,0,1,.08,1.69,35.69,35.69,0,0,1,0,3.87c-.15,5.78.44,11.49.73,17.2a29.84,29.84,0,0,0,.22,3.66,25,25,0,0,0,3.81,10,18.38,18.38,0,0,0,2.05,2.54A135.47,135.47,0,0,0,515.24,491c4.68,3.73,9.3,7.63,14,11.44l8.41,6.88,9.44,7.76,7.91,6.59c2.63,2.26,5.26,4.61,7.9,7l7.76,6.73c2.34,2,4.61,4,7,6,3.29,2.85,6.22,6.07,9.53,8.92,4.09,3.66,7.9,7.63,11.7,11.49A80.23,80.23,0,0,1,611,578.92a34.39,34.39,0,0,1,1.91,4,117.43,117.43,0,0,1,4.61,12.22c.59,1.9,1.39,3.81,2,5.71,1.46,4.25,2.78,8.41,4.32,12.59,1.75,5,3.66,9.88,5.56,14.85,3.22,8.56,6.43,17.12,9.73,25.68,2.71,7,5.63,13.9,8.41,20.85,1.61,4.1,3.08,8.12,4.68,12.22,1.83,4.83,3.73,9.66,5.49,14.49s3.59,10,5.34,14.92c1.17,3.29,2.5,6.59,3.66,9.88q1.65,4.6,3.08,9.22a62.31,62.31,0,0,1,1.68,9,81.74,81.74,0,0,1,.37,12.71,27.72,27.72,0,0,1-1.27,8.48,21.32,21.32,0,0,1-4.76,8.42,71.1,71.1,0,0,1-7.62,7.31,31.15,31.15,0,0,1-12.8,6.44A25.08,25.08,0,0,1,637,789.2c-1.28-.07-2.42,0-3.66,0A27.3,27.3,0,0,1,619.73,786a26.22,26.22,0,0,1-6.81-4.82c-1.53-1.61-3.17-3.18-4.61-4.76a35.9,35.9,0,0,1-5-7.68,63.23,63.23,0,0,1-4.17-9.37c-1.9-5.56-4-10.9-6.07-16.39-1.46-4-2.85-8-4.25-12.07-1.16-3.22-2.26-6.44-3.43-9.66-1.32-3.95-2.64-7.9-4-11.85-1.32-3.52-2.71-7.1-4-10.61-1.6-4.54-3.17-9.15-4.75-13.69-1-2.54-2-5.19-3-7.75l-4.76-13L560,651.64c-1.83-4.83-3.66-9.74-5.49-14.49-1-2.64-2.12-5.2-3.18-7.76-2-5.12-4.24-10.24-6.8-15.24a31,31,0,0,0-5.93-8.26l-2.78-2.71c-3.66-3.58-7.47-6.95-11.44-10.17-3.73-3.17-7.53-6.29-11.34-9.36s-7.53-6-11.34-8.93c-3.43-2.7-6.88-5.34-10.32-8l-13.17-9.88c-6.14-4.54-12.29-9.15-18.51-13.68-8.05-6-16.1-11.93-24.07-17.93-4-3.08-8-6.29-12-9.44-2-1.54-3.95-3-5.93-4.62-1.75-1.39-3.44-2.78-5.12-4.24l-3.73-3.29A42.83,42.83,0,0,1,401,494.1,10.74,10.74,0,0,1,399.44,489.71ZM263.85,757.22c.22,1.46.52,2.93.64,4.39a27.19,27.19,0,0,0,3.07,9.15,19.57,19.57,0,0,0,4.32,6.07,49.62,49.62,0,0,0,12.65,8.93,27.87,27.87,0,0,0,14.56,3.07,75.62,75.62,0,0,0,8.2-1.17A32.42,32.42,0,0,0,324.48,778c2.2-2.42,4.31-4.83,6.35-7.39a111.2,111.2,0,0,0,8.42-11.71q21.28-34.45,42.56-68.85,23.06-37.42,46.17-74.78c7.83-12.65,15.59-25.24,23.27-38,1.9-3.08,3.58-6.22,5.26-9.44a4.86,4.86,0,0,0-1.6-6.59l-.88-.64-33.67-25.17L407.65,526a8.54,8.54,0,0,0-6-1.83,5.55,5.55,0,0,0-4.39,1.91A29.86,29.86,0,0,0,395,529q-18.76,30-37.48,59.92-18.42,29.31-36.73,58.69-24.37,39-48.73,77.78a60.5,60.5,0,0,0-5.93,12.22,28.33,28.33,0,0,0-1.61,5.34c-.58,3.22-.87,6.44-1.27,9.53C263.48,754.14,263.63,755.68,263.85,757.22ZM431.92,475.81V375.35a21.49,21.49,0,0,0,0-2.27l-.22-1.46a5.36,5.36,0,0,0-3.18-.44q-24.47,0-48.92-.08a6.47,6.47,0,0,0-4.54,1.61c-4.61,4-9.36,7.68-14,11.56-2.2,1.83-4.45,3.66-6.59,5.56a15.89,15.89,0,0,0-5.65,9.3,35.94,35.94,0,0,0-.51,3.87c-.15,2.2-.23,4.45-.23,6.66Q348,436.78,348,464a92.8,92.8,0,0,1-.88,13.53,2.42,2.42,0,0,0,.15,2.13c2.85.43,57.65.58,82.17.22l2.49-.15Zm176.49-10a25.37,25.37,0,0,0-3.18-12,49.1,49.1,0,0,0-8.1-10.9c-2.78-2.85-5.63-5.56-8.71-8.19-3.81-3.29-7.82-6.44-11.77-9.66q-5.28-4.27-10.54-8.63c-3.07-2.55-6.07-5.2-9.07-7.76-4.76-3.95-9.59-7.91-14.27-11.93-3.18-2.63-6.14-5.34-9.29-8-2.42-2.12-4.83-4.24-7.32-6.29-2.86-2.26-5.72-4.44-8.64-6.58a6.26,6.26,0,0,0-4.9-1.4,3.48,3.48,0,0,0-3.6,3.35,3.7,3.7,0,0,0,0,.47v1.39c0,18.22-.08,36.36-.08,54.58a28.71,28.71,0,0,0,.22,3.59,13.74,13.74,0,0,0,3.37,8.05,95.18,95.18,0,0,0,9.36,8.71c2.86,2.2,5.72,4.44,8.49,6.73,4,3.22,7.76,6.59,11.71,9.8,4,3.37,8.2,6.66,12.29,10a69.24,69.24,0,0,0,10.32,7.46,38.81,38.81,0,0,0,15.66,5.13,40.41,40.41,0,0,0,8.93-.15,15.45,15.45,0,0,0,8.49-3.73,30.25,30.25,0,0,0,4.9-5.27,25.58,25.58,0,0,0,5.72-16.17Zm-219.58-273,.29,1.31a58.7,58.7,0,0,0,34.61,41.3,60.68,60.68,0,0,0,22.68,4.9A50.23,50.23,0,0,0,460,238.77,58.86,58.86,0,0,0,502.46,203a58.24,58.24,0,0,0,3.87-31.39,14.57,14.57,0,0,0-1.39-5.41,8.07,8.07,0,0,0-1.39,0l-5.19.64-14.57,2.12-13.24,1.9c-4.54.64-9.15,1.27-13.69,2s-9.15,1.46-13.68,2.54c-6.08,1.54-12.15,3.22-18.15,5-11.56,3.58-23,7.24-34.46,10.8a10.49,10.49,0,0,0-1.6.73Zm-.23-9.44c15.37-4.69,30.66-9.37,46-14a102.19,102.19,0,0,1,14-3.18c4.1-.51,8.12-1.17,12.15-1.75l14-2.05c4.31-.63,8.63-1.27,12.95-1.83,5.55-.87,11.19-1.83,16.75-2.54a95.54,95.54,0,0,0,18.66-4.32,72.36,72.36,0,0,0,9.3-3.71c6.88-3.59,13.68-7.39,20.49-11.13l1.17-.81a.8.8,0,0,0-.18-1.1l-.11-.06a3,3,0,0,0-1.1-.15l-7.47.64-9.15.87-8.85.64c-5,.51-10.17,1-15.25,1.46-1.83.22-3.66.44-5.56.51-1.27.08-2.54,0-3.95,0-.73-1.31-1.54-2.7-2.19-4.09a45.28,45.28,0,0,0-7.83-11.44,32,32,0,0,0-9.27-7,52.89,52.89,0,0,0-19.76-5.27c-2.2-.14-4.39.08-6.66.08a81.32,81.32,0,0,0-12.64,1.38,85,85,0,0,0-21.88,7c-2,1-3.88,1.91-5.72,2.93A66.59,66.59,0,0,0,397.31,139a38.45,38.45,0,0,0-7.54,11.92,68.25,68.25,0,0,0-4.53,18,75.23,75.23,0,0,0-.44,10,24.79,24.79,0,0,0,.87,5.27ZM239.41,375.27V478l.29,1.69,1.46.14c1,.08,2.05.08,3.08.08,8.26,0,16.52,0,24.78-.08.87,0,1.83.29,2.7-.51-.14-1.27-.29-2.54-.43-3.81-1-6.81-1.76-13.69-2.13-20.49-.22-3.73-.44-7.39-.73-11.13a201.55,201.55,0,0,1-.63-21.14c.14-2.93.14-5.93.14-8.93.15-13.61.15-27.21.88-40.9a9,9,0,0,0-.22-1.46c-2.54-.44-18.59-.59-26.86-.29a15.84,15.84,0,0,0-2.27.29Zm203.7,100.54c3.73-2.78,7.39-5.63,11.05-8.49l1.32-1a3.88,3.88,0,0,0,1.68-3.08c.08-1.31.15-2.7.15-4.09v-80.2l.07-3.88V357.56a4,4,0,0,0-.43-2.41c-1-.08-1.54.73-2.13,1.27-4,3.58-8.05,7.1-12.07,10.68-2.78,2.54-2.34,1.68-2.34,5.49q-.11,48,0,96v7a20,20,0,0,0,.29,2Zm-52.24-112.9h40.9a11.92,11.92,0,0,1,1.69,0,3.11,3.11,0,0,0,2.27-.88c3.95-3.58,8-7.17,12-10.76l.51-1a8,8,0,0,0-3.18-.29c-12.94-.08-26-.15-38.92-.15h-.88a3.37,3.37,0,0,0-2.54.81c-4.54,3.58-9.07,7.1-13.61,10.61a12.26,12.26,0,0,0-1.17,1.32A6.22,6.22,0,0,0,390.87,362.91ZM269.63,348.78a7.09,7.09,0,0,0-4.39,1.32L252.53,358l-5.72,3.52c-.29.22-.8.43-.58,1.27,2.54.29,5.2.07,7.9.14h7.75a51.25,51.25,0,0,0,8.12-.29,37.46,37.46,0,0,1,6.35-13.75C273.66,348.86,271.68,348.93,269.63,348.78Z"/></g></g></g></g></svg>