<svg id="app-store" xmlns="http://www.w3.org/2000/svg" width="127.768" height="37.857" viewBox="0 0 127.768 37.857">
  <path id="Path_26_1_" d="M123.036,37.857H4.732A4.686,4.686,0,0,1,0,33.125V4.732A4.686,4.686,0,0,1,4.732,0h118.3a4.686,4.686,0,0,1,4.732,4.732V33.125A4.686,4.686,0,0,1,123.036,37.857Z" fill="#191919"/>
  <g id="Group_5" data-name="Group 5" transform="translate(9.79 5.489)">
    <path id="лого_эппл" d="M26.2,18.293a5.61,5.61,0,0,1,2.555-4.448A5.128,5.128,0,0,0,24.5,11.573c-1.8-.189-3.6,1.041-4.448,1.041-.946,0-2.366-1.041-3.88-1.041a5.509,5.509,0,0,0-4.827,2.934c-2.082,3.6-.568,8.9,1.42,11.736,1.041,1.42,2.177,3.029,3.691,2.934s2.082-.946,3.88-.946,2.271.946,3.88.946,2.555-1.42,3.6-2.839a10.76,10.76,0,0,0,1.609-3.313A5.018,5.018,0,0,1,26.2,18.293ZM23.268,9.586A6.051,6.051,0,0,0,24.5,5.8a4.875,4.875,0,0,0-3.407,1.8,4.921,4.921,0,0,0-1.23,3.6A3.555,3.555,0,0,0,23.268,9.586Z" transform="translate(-10.344 -5.8)" fill="#fff"/>
    <path id="эпп_стор-2" d="M49.321,29.6H47.239l-1.136-3.6H42.129l-1.041,3.6H39.1l3.88-12.209h2.461Zm-3.6-5.016-1.041-3.218c-.095-.284-.284-1.136-.568-2.271h0c-.095.473-.284,1.325-.568,2.271l-1.041,3.218Zm13.723.568a4.7,4.7,0,0,1-1.23,3.5,3.79,3.79,0,0,1-2.745,1.136,2.733,2.733,0,0,1-2.555-1.23V33.2H50.93V23.735c0-.946,0-1.893-.095-2.934h1.8l.095,1.42h0a3.261,3.261,0,0,1,2.934-1.609,2.938,2.938,0,0,1,2.555,1.23A4.974,4.974,0,0,1,59.448,25.155Zm-2.082.095a4.053,4.053,0,0,0-.568-2.082,2.024,2.024,0,0,0-1.7-.852,2.261,2.261,0,0,0-1.325.473,2.1,2.1,0,0,0-.757,1.23,1.2,1.2,0,0,0-.095.568v1.42a2.57,2.57,0,0,0,.568,1.609A1.883,1.883,0,0,0,55,28.278a2.024,2.024,0,0,0,1.7-.852A3.318,3.318,0,0,0,57.366,25.249Zm12.114-.095a4.7,4.7,0,0,1-1.23,3.5,3.79,3.79,0,0,1-2.745,1.136,2.733,2.733,0,0,1-2.555-1.23V33.2h-1.8V23.735c0-.946,0-1.893-.095-2.934h1.7l.095,1.42h0a3.261,3.261,0,0,1,2.934-1.609,2.938,2.938,0,0,1,2.555,1.23A4.874,4.874,0,0,1,69.48,25.155Zm-1.987.095a4.053,4.053,0,0,0-.568-2.082,2.024,2.024,0,0,0-1.7-.852,2.261,2.261,0,0,0-1.325.473,2.1,2.1,0,0,0-.757,1.23c0,.189-.095.379-.095.568v1.42a2.57,2.57,0,0,0,.568,1.609,1.883,1.883,0,0,0,1.514.663,2.024,2.024,0,0,0,1.7-.852A3.318,3.318,0,0,0,67.493,25.249Zm13.345.946A3.657,3.657,0,0,1,79.8,28.751a4.645,4.645,0,0,1-3.312,1.041,5.883,5.883,0,0,1-3.123-.757l.473-1.609a5.782,5.782,0,0,0,2.839.757,2.744,2.744,0,0,0,1.7-.473,1.779,1.779,0,0,0,.284-2.461l-.095-.095a3.785,3.785,0,0,0-1.7-.946c-2.177-.757-3.218-1.987-3.218-3.5a3.052,3.052,0,0,1,1.136-2.461,4.308,4.308,0,0,1,3.029-.946,6.789,6.789,0,0,1,2.745.568l-.473,1.609a6.247,6.247,0,0,0-2.555-.568,3.191,3.191,0,0,0-1.609.473,1.567,1.567,0,0,0-.473,1.136,1.526,1.526,0,0,0,.568,1.23,6.545,6.545,0,0,0,1.8.946,5.346,5.346,0,0,1,2.271,1.514A3.255,3.255,0,0,1,80.837,26.2Zm6.436-3.88H85.1v4.259c0,1.041.379,1.609,1.136,1.609a2.62,2.62,0,0,0,.852-.095l.095,1.514a2.807,2.807,0,0,1-1.514.189,2.158,2.158,0,0,1-1.8-.663,3.05,3.05,0,0,1-.662-2.366V22.315H81.879V20.9H83.2V19.287l1.893-.568V20.9h2.177Zm9.654,2.839a5.208,5.208,0,0,1-1.136,3.313,4.507,4.507,0,0,1-3.218,1.325,4.291,4.291,0,0,1-3.123-1.325,4.953,4.953,0,0,1-1.136-3.218,4.275,4.275,0,0,1,1.23-3.312,4.507,4.507,0,0,1,3.218-1.325,4.139,4.139,0,0,1,3.123,1.325A5.666,5.666,0,0,1,96.927,25.155Zm-1.988.095a4.053,4.053,0,0,0-.568-2.082,2.113,2.113,0,0,0-2.839-.757,2.88,2.88,0,0,0-.757.757,4.1,4.1,0,0,0,0,4.164,2.074,2.074,0,0,0,3.6,0A3.816,3.816,0,0,0,94.939,25.249Zm8.329-2.65c-.189,0-.379-.095-.662-.095a2.022,2.022,0,0,0-1.609.757,3.542,3.542,0,0,0-.473,1.7V29.6H98.536V23.64a26.6,26.6,0,0,0-.095-2.745h1.7l.095,1.7h.095a3.744,3.744,0,0,1,.946-1.42,2.55,2.55,0,0,1,1.42-.473h.473C103.173,20.8,103.268,22.694,103.268,22.6Zm8.8,2.271a2.62,2.62,0,0,1-.095.852h-5.868a2.578,2.578,0,0,0,.852,1.988,3.413,3.413,0,0,0,1.893.568,6.535,6.535,0,0,0,2.366-.379l.284,1.325a7.712,7.712,0,0,1-2.934.568,4.073,4.073,0,0,1-3.218-1.23,4.492,4.492,0,0,1-1.136-3.218,5.737,5.737,0,0,1,1.041-3.313,3.855,3.855,0,0,1,3.029-1.42,3.153,3.153,0,0,1,2.839,1.42,4.654,4.654,0,0,1,.946,2.839Zm-1.893-.473a2.777,2.777,0,0,0-.379-1.514,1.606,1.606,0,0,0-1.514-.852,1.976,1.976,0,0,0-1.514.757A4.182,4.182,0,0,0,106.2,24.3,27.884,27.884,0,0,1,110.177,24.4Z" transform="translate(-11.885 -6.415)" fill="#fff"/>
  </g>
  <g id="доступно_в_1_" transform="translate(39.182 6.625)">
    <path id="Path_27_1_" d="M-9.337-2.891H-10V-4.784h.568A4.212,4.212,0,0,0-8.77-6.961L-8.675-9.8h3.786v5.016h.662v1.893h-.662v-1.23H-9.243v1.23Zm1.23-4.07A8.976,8.976,0,0,1-8.58-4.784h2.839V-9.043H-8.107v2.082Z" transform="translate(10 9.895)" fill="#fff" stroke="#fff" stroke-miterlimit="10" stroke-width="0.2"/>
    <path id="Path_28_1_" d="M1.716-4.884a2.971,2.971,0,0,1-4.164,0A2.936,2.936,0,0,1-3.3-6.966,2.949,2.949,0,0,1-.366-9.9,2.949,2.949,0,0,1,2.568-6.966,2.936,2.936,0,0,1,1.716-4.884Zm-3.6-.473a2.233,2.233,0,0,0,1.514.662,1.883,1.883,0,0,0,1.514-.662,2.685,2.685,0,0,0,.663-1.609,2.076,2.076,0,0,0-.663-1.609A1.883,1.883,0,0,0-.366-9.238a1.883,1.883,0,0,0-1.514.663,2.685,2.685,0,0,0-.662,1.609A2.217,2.217,0,0,0-1.88-5.357Z" transform="translate(9.641 9.9)" fill="#fff" stroke="#fff" stroke-miterlimit="10" stroke-width="0.2"/>
    <path id="Path_29_1_" d="M6.634-4.032A2.869,2.869,0,0,1,3.7-6.871v-.095A2.869,2.869,0,0,1,6.539-9.9h.095a2.555,2.555,0,0,1,2.082.946l-.473.473a1.6,1.6,0,0,0-1.609-.757,1.8,1.8,0,0,0-1.609.663,1.95,1.95,0,0,0-.662,1.609,2.076,2.076,0,0,0,.662,1.609,2.685,2.685,0,0,0,1.609.662,2.024,2.024,0,0,0,1.7-.852l.473.473a8.276,8.276,0,0,1-.946.757A2.62,2.62,0,0,1,6.634-4.032Z" transform="translate(9.266 9.9)" fill="#fff" stroke="#fff" stroke-miterlimit="10" stroke-width="0.2"/>
    <path id="Path_30_1_" d="M12.166-4.121h-.757V-9.138H9.8V-9.8h3.88v.663H12.071l.095,5.016Z" transform="translate(8.939 9.895)" fill="#fff" stroke="#fff" stroke-miterlimit="10" stroke-width="0.2"/>
    <path id="Path_31_1_" d="M19.143-9.8,16.966-5.068a1.518,1.518,0,0,1-1.325,1.041,1.2,1.2,0,0,1-.568-.095l.189-.662a.569.569,0,0,0,.379.095c.189,0,.284,0,.379-.095a1.306,1.306,0,0,0,.284-.379l.189-.473L14.6-9.8h.852l1.42,3.218h0L18.2-9.8Z" transform="translate(8.682 9.895)" fill="#fff" stroke="#fff" stroke-miterlimit="10" stroke-width="0.2"/>
    <path id="Path_32_1_" d="M20.1-4.121V-9.8h4.07v5.679h-.757V-9.138h-2.65v5.016H20.1Z" transform="translate(8.388 9.895)" fill="#fff" stroke="#fff" stroke-miterlimit="10" stroke-width="0.2"/>
    <path id="Path_33_1_" d="M25.8-4.121V-9.8h.757v2.461H29.4V-9.8h.757v5.679H29.4V-6.677H26.557v2.555Z" transform="translate(8.082 9.895)" fill="#fff" stroke="#fff" stroke-miterlimit="10" stroke-width="0.2"/>
    <path id="Path_34_1_" d="M36.416-4.884a2.971,2.971,0,0,1-4.164,0A2.936,2.936,0,0,1,31.4-6.966,2.949,2.949,0,0,1,34.334-9.9a2.949,2.949,0,0,1,2.934,2.934h0A4.439,4.439,0,0,1,36.416-4.884Zm-3.691-.473a2.233,2.233,0,0,0,1.514.662,1.883,1.883,0,0,0,1.514-.662,2.685,2.685,0,0,0,.663-1.609,2.076,2.076,0,0,0-.663-1.609,2.233,2.233,0,0,0-1.514-.663,1.883,1.883,0,0,0-1.514.663A2.345,2.345,0,0,0,32.725-5.357Z" transform="translate(7.782 9.9)" fill="#fff" stroke="#fff" stroke-miterlimit="10" stroke-width="0.2"/>
    <path id="Path_35_1_" d="M40.7-4.121V-9.8h2.082a1.659,1.659,0,0,1,1.609,1.609,2.227,2.227,0,0,1-.189.757.969.969,0,0,1-.568.473h0a1.7,1.7,0,0,1,.662.473,1.321,1.321,0,0,1,.284.852A1.567,1.567,0,0,1,44.107-4.5a1.993,1.993,0,0,1-1.23.473H40.7Zm.757-3.218h1.325a.859.859,0,0,0,.662-.284.734.734,0,0,0,.189-.946c0-.095-.095-.095-.189-.189a.859.859,0,0,0-.662-.284H41.457Zm0,2.555h1.514a1.018,1.018,0,0,0,.946-.946.859.859,0,0,0-.284-.662.859.859,0,0,0-.663-.284h-1.42l-.095,1.893Z" transform="translate(7.284 9.895)" fill="#fff" stroke="#fff" stroke-miterlimit="10" stroke-width="0.2"/>
  </g>
</svg>
