<svg width="121" height="36" viewBox="0 0 121 36" fill="none" xmlns="http://www.w3.org/2000/svg">
<g id="app-store.svg" clip-path="url(#clip0_1_115)">
<path id="app-store" d="M115.806 35.7776H4.6945C4.10922 35.7834 3.52867 35.6724 2.98682 35.4511C2.44497 35.2298 1.95271 34.9027 1.53884 34.4888C1.12497 34.0749 0.797809 33.5827 0.576506 33.0408C0.355203 32.499 0.244203 31.9184 0.250002 31.3332V4.66663C0.244203 4.08136 0.355203 3.50081 0.576506 2.95896C0.797809 2.41711 1.12497 1.92485 1.53884 1.51098C1.95271 1.09711 2.44497 0.769946 2.98682 0.548643C3.52867 0.32734 4.10922 0.21634 4.6945 0.22214H115.806C116.391 0.21634 116.971 0.32734 117.513 0.548643C118.055 0.769946 118.547 1.09711 118.961 1.51098C119.375 1.92485 119.702 2.41711 119.923 2.95896C120.145 3.50081 120.256 4.08136 120.25 4.66663V31.3332C120.256 31.9184 120.145 32.499 119.923 33.0408C119.702 33.5827 119.375 34.0749 118.961 34.4888C118.547 34.9027 118.055 35.2298 117.513 35.4511C116.971 35.6724 116.391 35.7834 115.806 35.7776Z" fill="#0A0A0C"/>
<g id="Group 5">
<path id="&#208;&#187;&#208;&#190;&#208;&#179;&#208;&#190;_&#209;&#141;&#208;&#191;&#208;&#191;&#208;&#187;" d="M24.3393 17.1107C24.3781 16.2738 24.616 15.4582 25.0332 14.7316C25.4503 14.005 26.0348 13.3883 26.738 12.9329C26.2976 12.2763 25.7023 11.7382 25.0048 11.3662C24.3072 10.9941 23.5288 10.7995 22.7382 10.7994C21.0494 10.6205 19.3602 11.7773 18.5603 11.7773C17.6714 11.7773 16.3383 10.7994 14.9157 10.7994C13.9817 10.8068 13.067 11.0668 12.2689 11.552C11.4707 12.0372 10.8187 12.7294 10.3822 13.5551C8.42679 16.9331 9.84894 21.9109 11.7153 24.5776C12.6932 25.9107 13.7597 27.4219 15.1819 27.3333C16.604 27.2447 17.1373 26.4444 18.8265 26.4444C20.5157 26.4444 20.96 27.3333 22.4711 27.3333C23.9823 27.3333 24.8712 26.0002 25.8491 24.6666C26.5279 23.7242 27.0391 22.6718 27.3603 21.5557C26.4638 21.2109 25.694 20.6004 25.1541 19.806C24.6142 19.0116 24.3299 18.0712 24.3393 17.1107ZM21.5836 8.93304C22.3588 7.91214 22.7661 6.65906 22.7391 5.37744C22.119 5.42679 21.5154 5.60198 20.9652 5.89234C20.4151 6.18269 19.9298 6.58211 19.5391 7.06621C19.1322 7.52453 18.8204 8.05921 18.6221 8.63914C18.4237 9.21907 18.3426 9.83266 18.3836 10.4442C19.005 10.5175 19.6345 10.4147 20.2003 10.1475C20.7661 9.88028 21.2454 9.45947 21.5836 8.93304Z" fill="white"/>
<path id="&#209;&#141;&#208;&#191;&#208;&#191;_&#209;&#129;&#209;&#130;&#208;&#190;&#209;&#128;-2" d="M44.6055 27.1553H42.6501L41.5818 23.7795H37.8499L36.872 27.1575H35.0056L38.6503 15.6908H40.9613L44.6055 27.1553ZM41.2279 22.4441L40.25 19.4218C40.1605 19.1534 39.9816 18.3553 39.7168 17.2883C39.6273 17.7326 39.4483 18.5329 39.1835 19.4218L38.2056 22.4441H41.2279ZM54.1167 22.9774C54.1575 23.5753 54.0761 24.1753 53.8774 24.7408C53.6787 25.3062 53.367 25.8253 52.9612 26.2664C52.6255 26.6085 52.2241 26.8793 51.7812 27.0626C51.3382 27.2459 50.8629 27.3378 50.3835 27.3329C49.916 27.3783 49.445 27.2946 49.0218 27.0908C48.5986 26.8871 48.2395 26.5711 47.9835 26.1773V30.5346H46.1166V21.6438C46.1166 20.7549 46.1166 19.866 46.0272 18.8881H47.7159L47.8054 20.2212C48.0854 19.7439 48.4894 19.3513 48.9746 19.0852C49.4599 18.8191 50.0081 18.6895 50.5611 18.71C51.0262 18.6845 51.4902 18.777 51.9098 18.9791C52.3295 19.1811 52.6912 19.4861 52.9612 19.8656C53.7143 20.7264 54.1255 21.8336 54.1167 22.9774ZM52.1613 23.0669C52.1636 22.3788 51.9793 21.7031 51.6281 21.1115C51.4475 20.857 51.207 20.651 50.928 20.5115C50.6489 20.372 50.3398 20.3033 50.0279 20.3116C49.5764 20.3236 49.1404 20.4792 48.7833 20.7558C48.4173 21.045 48.1653 21.4543 48.072 21.9113C47.9994 22.0792 47.9687 22.2622 47.9826 22.4446V23.7795C47.9837 24.3285 48.1718 24.8607 48.5158 25.2884C48.6899 25.4935 48.9085 25.6561 49.155 25.764C49.4014 25.8718 49.6692 25.922 49.938 25.9107C50.2499 25.9189 50.559 25.8503 50.838 25.7108C51.1171 25.5713 51.3576 25.3652 51.5382 25.1108C51.9804 24.5241 52.2011 23.8005 52.1613 23.0669ZM63.539 22.9774C63.5797 23.5753 63.4983 24.1753 63.2996 24.7408C63.101 25.3062 62.7893 25.8253 62.3834 26.2664C62.0477 26.6085 61.6464 26.8793 61.2034 27.0626C60.7605 27.2459 60.2851 27.3378 59.8058 27.3329C59.3383 27.3783 58.8673 27.2946 58.4441 27.0908C58.0209 26.8871 57.6617 26.5711 57.4057 26.1773V30.5346H55.7183V21.6438C55.7183 20.7549 55.7183 19.866 55.6288 18.8881H57.229L57.3185 20.2212C57.5984 19.7439 58.0025 19.3513 58.4877 19.0852C58.9729 18.8191 59.5212 18.6895 60.0742 18.71C60.5393 18.6844 61.0032 18.777 61.4229 18.979C61.8426 19.1811 62.2042 19.4861 62.4743 19.8656C63.2024 20.7352 63.5818 21.844 63.539 22.9774ZM61.6721 23.0669C61.6744 22.3788 61.4901 21.7031 61.1389 21.1115C60.9583 20.857 60.7179 20.651 60.4388 20.5115C60.1597 20.372 59.8506 20.3033 59.5387 20.3116C59.0872 20.3236 58.6512 20.4792 58.2942 20.7558C57.9281 21.045 57.6761 21.4543 57.5829 21.9113C57.5829 22.0903 57.4934 22.267 57.4934 22.4446V23.7795C57.494 24.3292 57.6821 24.8623 58.0266 25.2907C58.2007 25.4957 58.4193 25.6584 58.6658 25.7662C58.9122 25.874 59.18 25.9242 59.4488 25.9129C59.7607 25.9212 60.0698 25.8525 60.3489 25.713C60.6279 25.5735 60.8684 25.3675 61.049 25.1131C61.4917 24.5258 61.7125 23.8012 61.6721 23.0669ZM74.2053 23.9558C74.2053 24.8528 73.8543 25.7142 73.2274 26.3558C72.3558 27.0717 71.2409 27.4222 70.1165 27.3338C69.0916 27.3735 68.0759 27.1272 67.1831 26.6225L67.6274 25.1113C68.4402 25.5741 69.3587 25.8191 70.2941 25.8226C70.8619 25.8551 71.4245 25.6989 71.8943 25.3784C72.2305 25.1035 72.4465 24.7086 72.4966 24.2772C72.5467 23.8458 72.4269 23.4119 72.1627 23.0673L72.0732 22.9778C71.6265 22.5469 71.0749 22.2405 70.473 22.0889C68.4286 21.3776 67.4507 20.2221 67.4507 18.8C67.4385 18.3586 67.5284 17.9205 67.7134 17.5196C67.8983 17.1187 68.1734 16.766 68.5172 16.4889C69.3176 15.8415 70.3348 15.5237 71.3615 15.6C72.2484 15.5966 73.1263 15.7782 73.9391 16.1333L73.4949 17.6444C72.7415 17.2992 71.9235 17.1174 71.0948 17.1112C70.5605 17.1219 70.0388 17.2753 69.5837 17.5554C69.4415 17.694 69.3289 17.86 69.2525 18.0433C69.1762 18.2265 69.1377 18.4234 69.1394 18.6219C69.1332 18.8426 69.1781 19.0617 69.2706 19.2622C69.3631 19.4627 69.5007 19.639 69.6727 19.7774C70.1859 20.1598 70.7557 20.4598 71.3615 20.6663C72.1837 20.9478 72.9188 21.4378 73.4949 22.0885C73.9342 22.6136 74.1845 23.271 74.2058 23.9553L74.2053 23.9558ZM80.2495 20.3111H78.2051V24.311C78.2051 25.2889 78.5608 25.8221 79.2716 25.8221C79.5414 25.8364 79.8116 25.8062 80.0715 25.7327L80.161 27.1548C79.7125 27.3446 79.2203 27.4066 78.7388 27.3338C78.4284 27.3671 78.1145 27.3283 77.8216 27.2203C77.5287 27.1124 77.2646 26.9382 77.0501 26.7115C76.7979 26.4045 76.6123 26.0485 76.5051 25.6659C76.398 25.2834 76.3717 24.8827 76.4278 24.4895V20.3107H75.1832V18.9776H76.4278V17.4664L78.2056 16.9331V18.9776H80.25L80.2495 20.3111ZM89.3148 22.9774C89.329 24.1064 88.9522 25.2055 88.2483 26.0883C87.8522 26.4857 87.381 26.8004 86.8621 27.0141C86.3432 27.2277 85.7871 27.3361 85.226 27.3329C84.6781 27.3357 84.1354 27.2267 83.6311 27.0128C83.1268 26.7988 82.6713 26.4842 82.2926 26.0883C81.5904 25.239 81.2125 24.1679 81.2261 23.066C81.1859 22.495 81.2682 21.9221 81.4675 21.3855C81.6668 20.849 81.9785 20.3613 82.3817 19.955C82.7778 19.5576 83.249 19.2429 83.7679 19.0293C84.2867 18.8156 84.8429 18.7073 85.404 18.7105C85.9531 18.699 86.4984 18.804 87.004 19.0185C87.5096 19.233 87.964 19.5522 88.3373 19.955C88.9631 20.8395 89.3041 21.8939 89.3148 22.9774ZM87.448 23.0669C87.4502 22.3788 87.2659 21.7031 86.9147 21.1115C86.6495 20.67 86.223 20.3489 85.7253 20.2162C85.2277 20.0834 84.6979 20.1494 84.248 20.4002C83.9685 20.5907 83.7273 20.832 83.5367 21.1115C83.1875 21.704 83.0033 22.3793 83.0033 23.0671C83.0033 23.7549 83.1875 24.4301 83.5367 25.0227C83.7073 25.3199 83.9533 25.5669 84.2498 25.7386C84.5464 25.9104 84.883 26.0008 85.2257 26.0008C85.5684 26.0008 85.9051 25.9104 86.2016 25.7386C86.4982 25.5669 86.7442 25.3199 86.9147 25.0227C87.2779 24.4358 87.4638 23.7565 87.4502 23.0664L87.448 23.0669ZM95.27 20.5778C95.0911 20.5778 94.9144 20.4883 94.6478 20.4883C94.3583 20.4838 94.0717 20.5456 93.8097 20.6688C93.5478 20.7921 93.3176 20.9737 93.1366 21.1996C92.8554 21.6868 92.7024 22.2374 92.6919 22.7998V27.1553H90.8251V21.5552C90.8397 20.695 90.8098 19.8347 90.7356 18.9776H92.3358L92.4253 20.5778H92.5147C92.7045 20.0709 93.0087 19.6147 93.4036 19.2446C93.7936 18.9666 94.258 18.8119 94.7368 18.8004H95.181C95.1837 18.8885 95.2723 20.6663 95.2723 20.5773L95.27 20.5778ZM103.541 22.7108C103.555 22.9806 103.525 23.251 103.451 23.5111H97.939C97.9291 23.8616 97.9956 24.2101 98.1337 24.5324C98.2718 24.8547 98.4783 25.1432 98.7388 25.3779C99.2659 25.7271 99.8844 25.9126 100.517 25.9112C101.273 25.9306 102.026 25.81 102.739 25.5555L103.007 26.8001C102.132 27.1558 101.196 27.3369 100.251 27.3333C99.6937 27.3733 99.1341 27.2905 98.612 27.0909C98.0898 26.8912 97.6177 26.5796 97.229 26.1778C96.4881 25.3498 96.1037 24.2629 96.1594 23.1532C96.1562 22.0401 96.4978 20.9534 97.1373 20.0423C97.4808 19.6207 97.9149 19.282 98.4073 19.0512C98.8997 18.8204 99.4378 18.7035 99.9816 18.7092C100.504 18.6757 101.026 18.7815 101.495 19.0157C101.963 19.2499 102.361 19.6041 102.648 20.0423C103.23 20.8091 103.543 21.7465 103.537 22.709L103.541 22.7108ZM101.763 22.2665C101.783 21.7682 101.659 21.2747 101.407 20.8444C101.272 20.5887 101.066 20.3773 100.814 20.2355C100.562 20.0937 100.274 20.0274 99.9852 20.0445C99.7102 20.0503 99.44 20.1171 99.194 20.2401C98.9481 20.3631 98.7325 20.5393 98.563 20.7558C98.2944 21.1906 98.1133 21.6737 98.0298 22.178C99.2741 22.1186 100.521 22.148 101.761 22.2661L101.763 22.2665Z" fill="white"/>
</g>
<g id="&#208;&#180;&#208;&#190;&#209;&#129;&#209;&#130;&#209;&#131;&#208;&#191;&#208;&#189;&#208;&#190;_&#208;&#178;_1_">
<path id="Path_27_1_" d="M37.6723 13.0204H37.05V11.2448H37.5833C37.9744 10.6333 38.1897 9.92605 38.2056 9.20039L38.295 6.53369H41.8502V11.2448H42.4725V13.0204H41.8502V11.8671H37.7613V13.0204H37.6723ZM38.8278 9.19815C38.7653 9.8962 38.6159 10.5837 38.3832 11.2448H41.0499V7.24499H38.8278V9.20039V9.19815Z" fill="white" stroke="white" stroke-width="0.0894715" stroke-miterlimit="10"/>
<path id="Path_28_1_" d="M47.7168 11.1557C47.1951 11.6684 46.4928 11.9557 45.7612 11.9557C45.0297 11.9557 44.3274 11.6684 43.8056 11.1557C43.5503 10.8983 43.3482 10.5932 43.211 10.2576C43.0737 9.92211 43.004 9.56281 43.0057 9.2003C43.0094 8.47056 43.3009 7.77175 43.8169 7.25574C44.3329 6.73973 45.0317 6.44823 45.7614 6.44458C46.4912 6.44823 47.19 6.73973 47.706 7.25574C48.222 7.77175 48.5135 8.47056 48.5172 9.2003C48.5189 9.56284 48.449 9.92216 48.3117 10.2577C48.1744 10.5932 47.9722 10.8984 47.7168 11.1557ZM44.3388 10.7115C44.7161 11.0931 45.2252 11.3156 45.7614 11.3333C46.0302 11.3446 46.2979 11.2945 46.5444 11.1868C46.7908 11.079 47.0094 10.9164 47.1836 10.7115C47.553 10.2908 47.7719 9.75914 47.8059 9.2003C47.8177 8.91839 47.7682 8.63727 47.6607 8.37636C47.5533 8.11546 47.3905 7.88098 47.1836 7.68913C47.0095 7.48407 46.7909 7.32144 46.5444 7.2136C46.298 7.10577 46.0302 7.05558 45.7614 7.06685C45.4926 7.05551 45.2247 7.10567 44.9782 7.2135C44.7317 7.32134 44.513 7.48401 44.3388 7.68913C43.9696 8.10987 43.7508 8.64152 43.717 9.2003C43.7134 9.48111 43.7666 9.75975 43.8734 10.0195C43.9803 10.2792 44.1386 10.5146 44.3388 10.7115Z" fill="white" stroke="white" stroke-width="0.0894715" stroke-miterlimit="10"/>
<path id="Path_29_1_" d="M51.9837 11.9555C51.6271 11.9637 51.2724 11.9009 50.9402 11.7709C50.608 11.6408 50.3049 11.4462 50.0486 11.1981C49.7922 10.95 49.5877 10.6535 49.4468 10.3258C49.306 9.99801 49.2316 9.64556 49.228 9.28884V9.19937C49.22 8.84281 49.2829 8.4882 49.4129 8.15611C49.543 7.82403 49.7377 7.52107 49.9858 7.26481C50.2339 7.00855 50.5303 6.80409 50.858 6.66328C51.1857 6.52248 51.5381 6.44813 51.8947 6.44455H51.9842C52.3568 6.43062 52.7275 6.5037 53.0669 6.65799C53.4063 6.81229 53.7051 7.04355 53.9396 7.33345L53.4953 7.77767C53.3422 7.52275 53.1167 7.31908 52.8476 7.19252C52.5784 7.06596 52.2778 7.02221 51.9837 7.06682C51.6998 7.03448 51.4123 7.07458 51.148 7.1834C50.8838 7.29221 50.6514 7.46619 50.4726 7.68909C50.2589 7.87558 50.0915 8.10916 49.9835 8.3714C49.8755 8.63365 49.8299 8.91739 49.8503 9.20027C49.8385 9.48218 49.888 9.7633 49.9954 10.0242C50.1029 10.2851 50.2657 10.5196 50.4726 10.7114C50.8933 11.0807 51.4249 11.2995 51.9837 11.3333C52.2955 11.3414 52.6046 11.2727 52.8836 11.1332C53.1625 10.9937 53.4029 10.7877 53.5835 10.5334L54.0277 10.9776C53.7492 11.2361 53.4521 11.4739 53.1388 11.6889C52.7813 11.8706 52.3847 11.9621 51.9837 11.9555Z" fill="white" stroke="white" stroke-width="0.0894715" stroke-miterlimit="10"/>
<path id="Path_30_1_" d="M56.872 11.8671H56.1607V7.15597H54.65V6.53369H58.2946V7.15597H56.7834L56.8729 11.8671H56.872Z" fill="white" stroke="white" stroke-width="0.0894715" stroke-miterlimit="10"/>
<path id="Path_31_1_" d="M63.1838 6.53369L61.1389 10.9782C61.0513 11.2459 60.8863 11.4817 60.6648 11.6557C60.4433 11.8298 60.1752 11.9343 59.8943 11.9561C59.712 11.97 59.529 11.9393 59.3611 11.8666L59.54 11.2444C59.6444 11.315 59.7703 11.3467 59.8957 11.3338C60.0746 11.3338 60.1641 11.3338 60.2513 11.2444C60.3618 11.1432 60.4527 11.0227 60.5198 10.8887L60.6987 10.4445L58.9169 6.53369H59.7167L61.0499 9.55604L62.2949 6.53369H63.1838Z" fill="white" stroke="white" stroke-width="0.0894715" stroke-miterlimit="10"/>
<path id="Path_32_1_" d="M63.8056 11.8671V6.53369H67.6278V11.8671H66.9165V7.15597H64.4279V11.8671H63.8056Z" fill="white" stroke="white" stroke-width="0.0894715" stroke-miterlimit="10"/>
<path id="Path_33_1_" d="M68.8724 11.8671V6.53369H69.5837V8.84474H72.2504V6.53369H72.9617V11.8671H72.2504V9.46701H69.5837V11.8671H68.8724Z" fill="white" stroke="white" stroke-width="0.0894715" stroke-miterlimit="10"/>
<path id="Path_34_1_" d="M78.5612 11.1557C78.0394 11.6684 77.3371 11.9557 76.6056 11.9557C75.874 11.9557 75.1718 11.6684 74.65 11.1557C74.3947 10.8983 74.1926 10.5932 74.0553 10.2576C73.9181 9.92211 73.8483 9.56281 73.8501 9.2003C73.8537 8.47056 74.1452 7.77175 74.6613 7.25574C75.1773 6.73973 75.8761 6.44823 76.6058 6.44458C77.3356 6.44823 78.0344 6.73973 78.5504 7.25574C79.0664 7.77175 79.3579 8.47056 79.3615 9.2003C79.2671 9.91001 78.9915 10.5834 78.5612 11.1557ZM75.0946 10.7115C75.4717 11.0931 75.9806 11.3158 76.5168 11.3337C76.7856 11.345 77.0534 11.2948 77.2998 11.187C77.5462 11.0792 77.7648 10.9165 77.9389 10.7115C78.3084 10.2908 78.5273 9.75914 78.5612 9.2003C78.573 8.91839 78.5235 8.63727 78.4161 8.37636C78.3086 8.11546 78.1458 7.88098 77.9389 7.68913C77.5619 7.30748 77.053 7.08479 76.5168 7.06685C76.248 7.05561 75.9802 7.10582 75.7338 7.21365C75.4874 7.32148 75.2688 7.4841 75.0946 7.68913C74.7091 8.09784 74.4944 8.63845 74.4944 9.2003C74.4944 9.76215 74.7091 10.3028 75.0946 10.7115Z" fill="white" stroke="white" stroke-width="0.0894715" stroke-miterlimit="10"/>
<path id="Path_35_1_" d="M82.1168 11.8671V6.53369H84.0722C84.4693 6.54538 84.8469 6.70835 85.1278 6.98926C85.4087 7.27016 85.5717 7.64778 85.5834 8.04486C85.5661 8.29065 85.5055 8.53145 85.4044 8.75616C85.2923 8.96884 85.1006 9.12854 84.8712 9.20039C85.1116 9.2958 85.3251 9.44826 85.4935 9.64461C85.6736 9.87171 85.7686 10.1547 85.7619 10.4445C85.7636 10.643 85.7251 10.8399 85.6488 11.0231C85.5724 11.2064 85.4598 11.3724 85.3177 11.511C84.994 11.7858 84.5865 11.9425 84.1621 11.9552H82.1168V11.8671ZM82.8281 8.84474H84.0727C84.1897 8.84791 84.3059 8.82554 84.4134 8.77918C84.5209 8.73283 84.617 8.6636 84.6949 8.57632C84.8272 8.47484 84.9182 8.32887 84.9511 8.16543C84.984 8.002 84.9566 7.83218 84.8739 7.68743C84.8739 7.59795 84.7844 7.59795 84.6949 7.50848C84.617 7.42121 84.5209 7.35198 84.4134 7.30563C84.3059 7.25927 84.1897 7.2369 84.0727 7.24007H82.8281V8.84474ZM82.8281 11.2448H84.2503C84.4809 11.2291 84.6979 11.1304 84.8614 10.967C85.0248 10.8036 85.1235 10.5865 85.1392 10.3559C85.1423 10.2389 85.12 10.1226 85.0736 10.0152C85.0273 9.90769 84.958 9.81162 84.8708 9.73364C84.7928 9.64636 84.6967 9.57714 84.5892 9.53078C84.4818 9.48442 84.3655 9.46205 84.2485 9.46522H82.9154L82.8281 11.2448Z" fill="white" stroke="white" stroke-width="0.0894715" stroke-miterlimit="10"/>
</g>
</g>
<defs>
<clipPath id="clip0_1_115">
<rect width="120" height="35.5555" fill="white" transform="translate(0.25 0.222168)"/>
</clipPath>
</defs>
</svg>
