<svg id="Layer_1" data-name="Layer 1" xmlns="http://www.w3.org/2000/svg" viewBox="0 0 132.57 40.47"><defs><style>.cls-1{fill:#c8102e;}.cls-2{fill:none;stroke:#fff;stroke-miterlimit:10;stroke-width:0.52px;}.cls-3,.cls-4,.cls-6{fill:#fff;}.cls-4{font-size:8.97px;font-family:Calibri;letter-spacing:-0.02em;}.cls-5{letter-spacing:0em;}.cls-6{font-size:17.32px;font-family:TrebuchetMS, Trebuchet MS;}</style></defs><rect x="0.26" y="0.35" width="132.06" height="39.83" rx="7.2" fill="#191919"/><rect class="cls-1" x="8.09" y="7.69" width="25.16" height="25.16" rx="5.04"/><path class="cls-2" d="M24.86,11.88a4.19,4.19,0,1,1-8.38,0"/><path class="cls-3" d="M10.84,20.18h.63v1.41h1.58V20.18h.63v3.38h-.63V22H11.47v1.6h-.63Z"/><path class="cls-3" d="M15.27,20.18v2.36c0,.36.16.72.81.72s.81-.31.81-.72V20.18h.63v2.37c0,.61-.35,1.06-1.45,1.06s-1.43-.42-1.43-1V20.18Z"/><path class="cls-3" d="M18.93,22.53l-.35,1H18l1.23-3.38H20l1.26,3.38h-.66l-.36-1Zm1.18-.37c-.28-.79-.46-1.31-.53-1.59h0c-.07.3-.27.89-.51,1.59Z"/><path class="cls-3" d="M22.19,23.56l-1-3.38h.66a27,27,0,0,1,.69,2.8h0c.11-.5.61-2,.84-2.8H24c.23.75.73,2.3.82,2.78h0c.11-.61.56-2,.76-2.78h.62l-1.08,3.38h-.65c-.23-.76-.68-2.19-.79-2.72h0c-.13.57-.59,2-.82,2.72Z"/><path class="cls-3" d="M29.07,22h-1.7v1.23h1.89l-.09.37H26.75V20.18h2.4v.37H27.37V21.6h1.7Z"/><path class="cls-3" d="M30.49,20.18v3.38h-.63V20.18Z"/><text class="cls-4" transform="translate(40.67 13.53) scale(1.1 1)">О<tspan class="cls-5" x="5.73" y="0">ТКРОЙТЕ В</tspan></text><text class="cls-6" transform="translate(40.6 29.78) scale(1.01 1)">AppGallery</text></svg>