<svg width="121" height="38" viewBox="0 0 121 38" fill="none" xmlns="http://www.w3.org/2000/svg">
<g clip-path="url(#clip0_1_151)">
<path d="M113.266 1.00049H6.76267C3.16326 1.00049 0.245361 3.91839 0.245361 7.5178V30.5366C0.245361 34.136 3.16326 37.0539 6.76267 37.0539H113.266C116.866 37.0539 119.784 34.136 119.784 30.5366V7.5178C119.784 3.91839 116.866 1.00049 113.266 1.00049Z" fill="#0A0A0C"/>
<path d="M25.5452 7.64453H11.8951C9.37548 7.64453 7.33295 9.68706 7.33295 12.2066V25.8568C7.33295 28.3764 9.37548 30.4189 11.8951 30.4189H25.5452C28.0648 30.4189 30.1073 28.3764 30.1073 25.8568V12.2066C30.1073 9.68706 28.0648 7.64453 25.5452 7.64453Z" fill="#C8102E"/>
<path d="M22.5128 11.4373C22.5128 12.4431 22.1132 13.4078 21.402 14.1191C20.6907 14.8304 19.726 15.23 18.7201 15.23C17.7142 15.23 16.7495 14.8304 16.0383 14.1191C15.327 13.4078 14.9274 12.4431 14.9274 11.4373" stroke="white" stroke-width="0.470695" stroke-miterlimit="10"/>
<path d="M9.82217 18.9502H10.3924V20.2265H11.8226V18.9502H12.3929V22.0097H11.8226V20.5976H10.3924V22.0459H9.82217V18.9502Z" fill="white"/>
<path d="M13.8321 18.9502V21.0864C13.8321 21.4123 13.977 21.7382 14.5653 21.7382C15.1537 21.7382 15.2985 21.4576 15.2985 21.0864V18.9502H15.8688V21.0955C15.8688 21.6476 15.552 22.055 14.5563 22.055C13.5606 22.055 13.2619 21.6748 13.2619 21.1498V18.9502H13.8321Z" fill="white"/>
<path d="M17.1451 21.0774L16.8283 21.9826H16.3033L17.4167 18.9231H18.1136L19.2542 21.9826H18.6568L18.3309 21.0774H17.1451ZM18.2132 20.7425C17.9598 20.0274 17.7968 19.5567 17.7335 19.3033C17.6701 19.5748 17.4891 20.1089 17.2718 20.7425H18.2132Z" fill="white"/>
<path d="M20.096 22.0097L19.1908 18.9502H19.7882C20.0414 19.7833 20.2499 20.6293 20.4128 21.4847C20.5124 21.0321 20.965 19.6743 21.1732 18.9502H21.7344C21.9426 19.6291 22.3952 21.0321 22.4766 21.4666C22.5762 20.9144 22.9835 19.6562 23.1646 18.9502H23.7258L22.7482 22.0097H22.1598C21.9516 21.3218 21.5443 20.0274 21.4447 19.5476C21.3271 20.0636 20.9107 21.358 20.7025 22.0097H20.096Z" fill="white"/>
<path d="M26.3237 20.5976H24.7848V21.711H26.4956L26.4142 22.0459H24.2236V18.9502H26.3961V19.2851H24.7848V20.2356H26.3237V20.5976Z" fill="white"/>
<path d="M27.609 18.9502V22.0097H27.0388V18.9502H27.609Z" fill="white"/>
<path d="M42.0463 9.05862C42.0463 9.49383 41.995 9.88608 41.8925 10.2354C41.7899 10.5846 41.6361 10.8826 41.4309 11.1294C41.2286 11.3733 40.9735 11.5618 40.6658 11.6949C40.3581 11.8251 39.9992 11.8903 39.5889 11.8903C39.1842 11.8903 38.8335 11.8307 38.5369 11.7115C38.2431 11.5895 37.9991 11.4135 37.8051 11.1834C37.6138 10.9533 37.471 10.6678 37.3768 10.3268C37.2825 9.98587 37.2354 9.59363 37.2354 9.1501C37.2354 8.72597 37.2867 8.34065 37.3893 7.99414C37.4918 7.64764 37.6457 7.3538 37.8508 7.11263C38.0559 6.86869 38.3124 6.68157 38.6201 6.55128C38.9278 6.41823 39.2867 6.3517 39.697 6.3517C40.0934 6.3517 40.4385 6.4113 40.7324 6.53049C41.0262 6.64969 41.2702 6.82433 41.4642 7.05441C41.661 7.28172 41.8065 7.56447 41.9008 7.90267C41.9978 8.23809 42.0463 8.6234 42.0463 9.05862ZM41.2937 9.10852C41.2937 8.80359 41.266 8.52084 41.2106 8.26026C41.1579 7.99692 41.0678 7.76961 40.9403 7.57833C40.8155 7.38429 40.6478 7.23321 40.4371 7.1251C40.2265 7.01699 39.9659 6.96294 39.6554 6.96294C39.345 6.96294 39.0844 7.02115 38.8737 7.13758C38.663 7.254 38.4912 7.40924 38.3581 7.60328C38.2278 7.79733 38.1336 8.02464 38.0753 8.28521C38.0199 8.54301 37.9922 8.81468 37.9922 9.1002C37.9922 9.41621 38.0185 9.70728 38.0712 9.9734C38.1239 10.2395 38.2126 10.4696 38.3373 10.6636C38.4621 10.8549 38.6284 11.0046 38.8363 11.1127C39.047 11.2181 39.3103 11.2707 39.6263 11.2707C39.9396 11.2707 40.2029 11.2125 40.4164 11.0961C40.6298 10.9797 40.8017 10.823 40.932 10.6262C41.0622 10.4266 41.1551 10.1966 41.2106 9.93598C41.266 9.6754 41.2937 9.39958 41.2937 9.10852ZM46.3593 6.97448C46.3593 7.0247 46.3567 7.06831 46.3514 7.10531C46.3461 7.14231 46.3369 7.17271 46.3237 7.19649C46.3131 7.21764 46.2985 7.2335 46.28 7.24407C46.2642 7.25464 46.2457 7.25993 46.2245 7.25993H44.7814V11.7082C44.7814 11.7293 44.7761 11.7478 44.7656 11.7637C44.755 11.7796 44.7365 11.7928 44.7101 11.8034C44.6836 11.8113 44.648 11.8179 44.603 11.8232C44.5607 11.8311 44.5066 11.8351 44.4405 11.8351C44.377 11.8351 44.3229 11.8311 44.2779 11.8232C44.233 11.8179 44.1973 11.8113 44.1709 11.8034C44.1445 11.7928 44.1259 11.7796 44.1154 11.7637C44.1048 11.7478 44.0995 11.7293 44.0995 11.7082V7.25993H42.6564C42.6353 7.25993 42.6154 7.25464 42.5969 7.24407C42.5811 7.2335 42.5679 7.21764 42.5573 7.19649C42.5467 7.17271 42.5375 7.14231 42.5295 7.10531C42.5243 7.06831 42.5216 7.0247 42.5216 6.97448C42.5216 6.92426 42.5243 6.88065 42.5295 6.84365C42.5375 6.804 42.5467 6.77228 42.5573 6.7485C42.5679 6.72471 42.5811 6.70753 42.5969 6.69696C42.6154 6.68638 42.6353 6.6811 42.6564 6.6811H46.2245C46.2457 6.6811 46.2642 6.68638 46.28 6.69696C46.2985 6.70753 46.3131 6.72471 46.3237 6.7485C46.3369 6.77228 46.3461 6.804 46.3514 6.84365C46.3567 6.88065 46.3593 6.92426 46.3593 6.97448ZM50.5142 11.7042C50.5142 11.728 50.5089 11.7478 50.4984 11.7637C50.4878 11.7796 50.4693 11.7928 50.4429 11.8034C50.4191 11.8139 50.3847 11.8219 50.3398 11.8271C50.2949 11.8324 50.2394 11.8351 50.1733 11.8351C50.0966 11.8351 50.0345 11.8311 49.9869 11.8232C49.942 11.8179 49.905 11.8086 49.8759 11.7954C49.8495 11.7822 49.8284 11.7663 49.8125 11.7478C49.7993 11.7267 49.7887 11.7016 49.7808 11.6725L49.309 10.4197C49.2456 10.2506 49.1755 10.1065 49.0989 9.98757C49.0222 9.86863 48.9337 9.77084 48.8332 9.69419C48.7354 9.6149 48.6231 9.55675 48.4963 9.51975C48.3694 9.48274 48.2267 9.46424 48.0681 9.46424H47.7826V11.7082C47.7826 11.7293 47.7773 11.7478 47.7668 11.7637C47.7562 11.7796 47.7377 11.7928 47.7113 11.8034C47.6848 11.8113 47.6492 11.8179 47.6042 11.8232C47.5619 11.8311 47.5077 11.8351 47.4417 11.8351C47.3782 11.8351 47.3241 11.8311 47.2791 11.8232C47.2342 11.8179 47.1985 11.8113 47.1721 11.8034C47.1456 11.7928 47.1271 11.7796 47.1166 11.7637C47.106 11.7478 47.1007 11.7293 47.1007 11.7082V6.78021C47.1007 6.76171 47.106 6.74453 47.1166 6.72867C47.1271 6.71281 47.1456 6.70092 47.1721 6.69299C47.1985 6.68242 47.2342 6.67449 47.2791 6.6692C47.3241 6.66127 47.3782 6.65731 47.4417 6.65731C47.5077 6.65731 47.5619 6.66127 47.6042 6.6692C47.6492 6.67449 47.6848 6.68242 47.7113 6.69299C47.7377 6.70092 47.7562 6.71281 47.7668 6.72867C47.7773 6.74453 47.7826 6.76171 47.7826 6.78021V8.87748H48.0681C48.2267 8.87748 48.3654 8.85898 48.4844 8.82198C48.6033 8.78233 48.7077 8.72418 48.7976 8.64754C48.8901 8.57089 48.9707 8.47441 49.0394 8.35812C49.1108 8.23918 49.1742 8.0991 49.2297 7.93787L49.6182 6.81986C49.6262 6.79343 49.6367 6.76964 49.6499 6.7485C49.6632 6.72735 49.683 6.71017 49.7094 6.69696C49.7358 6.68374 49.7715 6.67449 49.8165 6.6692C49.864 6.66127 49.9248 6.65731 49.9988 6.65731C50.0676 6.65731 50.1231 6.65995 50.1653 6.66524C50.2076 6.67053 50.2407 6.67845 50.2645 6.68903C50.2909 6.6996 50.3081 6.71281 50.316 6.72867C50.3239 6.74453 50.3279 6.76303 50.3279 6.78418C50.3279 6.81325 50.3226 6.84629 50.312 6.88329C50.3041 6.91765 50.2922 6.95862 50.2764 7.00619L49.868 8.07267C49.8099 8.2339 49.7491 8.37266 49.6856 8.48895C49.6248 8.60525 49.5574 8.70568 49.4834 8.79026C49.4094 8.8722 49.3288 8.94091 49.2416 8.99642C49.1544 9.04928 49.0566 9.09157 48.9482 9.12329V9.13122C49.0724 9.17615 49.1821 9.22901 49.2773 9.2898C49.3751 9.34795 49.4649 9.42063 49.5469 9.50785C49.6288 9.59507 49.7041 9.70079 49.7729 9.82502C49.8416 9.9466 49.909 10.0933 49.975 10.2651L50.4587 11.4862C50.4852 11.5549 50.501 11.6038 50.5063 11.6329C50.5116 11.6593 50.5142 11.6831 50.5142 11.7042ZM54.6612 8.18368C54.6612 8.44005 54.6189 8.67132 54.5343 8.87748C54.4497 9.08364 54.3282 9.2594 54.1696 9.40477C54.0136 9.55014 53.8207 9.66247 53.5908 9.74176C53.3634 9.82105 53.0912 9.8607 52.774 9.8607H52.1913V11.7082C52.1913 11.7293 52.1846 11.7478 52.1714 11.7637C52.1609 11.7796 52.1424 11.7928 52.1159 11.8034C52.0921 11.8113 52.0578 11.8179 52.0128 11.8232C51.9706 11.8311 51.9164 11.8351 51.8503 11.8351C51.7842 11.8351 51.7287 11.8311 51.6838 11.8232C51.6415 11.8179 51.6071 11.8113 51.5807 11.8034C51.5543 11.7928 51.5358 11.7796 51.5252 11.7637C51.5146 11.7478 51.5093 11.7293 51.5093 11.7082V6.97448C51.5093 6.86875 51.5371 6.79343 51.5926 6.7485C51.6481 6.70356 51.7102 6.6811 51.7789 6.6811H52.8771C52.9881 6.6811 53.0939 6.68638 53.1943 6.69696C53.2974 6.70489 53.4176 6.72471 53.5551 6.75642C53.6952 6.7855 53.8366 6.84232 53.9793 6.9269C54.1247 7.00884 54.2476 7.11059 54.348 7.23218C54.4484 7.35376 54.5251 7.49516 54.5779 7.65639C54.6334 7.81497 54.6612 7.99073 54.6612 8.18368ZM53.9436 8.23918C53.9436 8.03038 53.904 7.85594 53.8247 7.71586C53.748 7.57577 53.6515 7.47137 53.5352 7.40265C53.4216 7.33393 53.3027 7.29032 53.1784 7.27182C53.0569 7.25332 52.9379 7.24407 52.8216 7.24407H52.1913V9.30169H52.8058C53.0119 9.30169 53.1824 9.27526 53.3172 9.2224C53.4546 9.16954 53.5696 9.09686 53.6621 9.00435C53.7546 8.9092 53.8247 8.79687 53.8722 8.66736C53.9198 8.5352 53.9436 8.39248 53.9436 8.23918ZM60.0015 9.18672C60.0015 9.60168 59.9526 9.97567 59.8548 10.3087C59.757 10.6417 59.6103 10.9259 59.4147 11.1611C59.2218 11.3937 58.9786 11.5734 58.6853 11.7003C58.3919 11.8245 58.0496 11.8866 57.6584 11.8866C57.2725 11.8866 56.9382 11.8298 56.6554 11.7161C56.3752 11.5998 56.1426 11.432 55.9576 11.2126C55.7752 10.9933 55.6391 10.721 55.5493 10.3959C55.4594 10.0708 55.4145 9.69683 55.4145 9.27394C55.4145 8.86955 55.4634 8.50217 55.5612 8.17178C55.6589 7.8414 55.8056 7.56124 56.0012 7.33129C56.1968 7.0987 56.4413 6.92029 56.7347 6.79607C57.0281 6.6692 57.3703 6.60577 57.7615 6.60577C58.1395 6.60577 58.4685 6.6626 58.7487 6.77625C59.0288 6.8899 59.2614 7.05641 59.4465 7.27579C59.6341 7.49252 59.7729 7.76211 59.8627 8.08456C59.9552 8.40437 60.0015 8.77176 60.0015 9.18672ZM59.2839 9.23429C59.2839 8.94356 59.2575 8.67397 59.2046 8.42552C59.1544 8.17443 59.0685 7.9577 58.9469 7.77532C58.828 7.59031 58.6681 7.44626 58.4672 7.34318C58.2663 7.2401 58.0179 7.18857 57.7219 7.18857C57.4258 7.18857 57.1774 7.24407 56.9765 7.35508C56.7756 7.46609 56.6118 7.6141 56.4849 7.79911C56.3607 7.98413 56.2708 8.20086 56.2153 8.44931C56.1624 8.69511 56.136 8.95413 56.136 9.22637C56.136 9.52767 56.1611 9.8052 56.2113 10.0589C56.2616 10.3127 56.3461 10.532 56.4651 10.7171C56.584 10.8994 56.7426 11.0421 56.9408 11.1452C57.1417 11.2457 57.3928 11.2959 57.6941 11.2959C57.9928 11.2959 58.2439 11.2404 58.4474 11.1294C58.6509 11.0184 58.8148 10.869 58.939 10.6814C59.0632 10.4911 59.1518 10.2717 59.2046 10.0232C59.2575 9.7748 59.2839 9.51182 59.2839 9.23429ZM64.9255 11.7122C64.9255 11.7333 64.9202 11.7518 64.9097 11.7677C64.8991 11.7809 64.8806 11.7928 64.8542 11.8034C64.8277 11.8139 64.792 11.8219 64.7471 11.8271C64.7048 11.8324 64.6506 11.8351 64.5846 11.8351C64.5211 11.8351 64.4669 11.8324 64.422 11.8271C64.3771 11.8219 64.3414 11.8139 64.315 11.8034C64.2912 11.7928 64.274 11.7809 64.2634 11.7677C64.2529 11.7518 64.2476 11.7333 64.2476 11.7122V8.34623C64.2476 8.26429 64.2489 8.17971 64.2515 8.09249C64.2542 8.00263 64.2581 7.92201 64.2634 7.85065H64.2555C64.2344 7.88765 64.2106 7.9273 64.1841 7.96959C64.1604 8.01188 64.1339 8.05681 64.1049 8.10439C64.0758 8.14932 64.0467 8.19557 64.0176 8.24315C63.9886 8.28808 63.9595 8.33301 63.9304 8.37794L61.7102 11.7161C61.6944 11.7373 61.6785 11.7558 61.6627 11.7716C61.6468 11.7875 61.6257 11.8007 61.5992 11.8113C61.5754 11.8192 61.5464 11.8245 61.512 11.8271C61.4776 11.8324 61.434 11.8351 61.3812 11.8351C61.3204 11.8351 61.2702 11.8324 61.2305 11.8271C61.1935 11.8219 61.1631 11.8139 61.1393 11.8034C61.1182 11.7901 61.1023 11.7756 61.0918 11.7597C61.0838 11.7439 61.0799 11.7241 61.0799 11.7003V6.78021C61.0799 6.76171 61.0852 6.74453 61.0957 6.72867C61.1089 6.71281 61.1288 6.6996 61.1552 6.68903C61.1843 6.67845 61.2199 6.67053 61.2622 6.66524C61.3072 6.65995 61.36 6.65731 61.4208 6.65731C61.4869 6.65731 61.5411 6.65995 61.5834 6.66524C61.6283 6.67053 61.664 6.67845 61.6904 6.68903C61.7168 6.6996 61.7353 6.71281 61.7459 6.72867C61.7565 6.74453 61.7618 6.76171 61.7618 6.78021V10.166C61.7618 10.2373 61.7605 10.314 61.7578 10.3959C61.7578 10.4779 61.7538 10.5571 61.7459 10.6338H61.7538C61.7961 10.5677 61.845 10.4884 61.9005 10.3959C61.9587 10.3008 62.0195 10.2069 62.0829 10.1144L64.2991 6.77228C64.3123 6.75378 64.3269 6.73792 64.3427 6.72471C64.3586 6.70885 64.3784 6.69696 64.4022 6.68903C64.4286 6.67845 64.459 6.67053 64.4934 6.66524C64.5277 6.65995 64.5714 6.65731 64.6242 6.65731C64.685 6.65731 64.7339 6.65995 64.7709 6.66524C64.8105 6.67053 64.8409 6.67978 64.8621 6.69299C64.8859 6.70356 64.9017 6.71678 64.9097 6.73264C64.9202 6.74585 64.9255 6.76435 64.9255 6.78814V11.7122ZM64.2634 5.34899C64.2634 5.48379 64.241 5.6133 64.196 5.73752C64.1511 5.86175 64.0797 5.97144 63.9819 6.06659C63.8842 6.15909 63.7586 6.23442 63.6053 6.29257C63.452 6.34807 63.2657 6.37582 63.0463 6.37582C62.8454 6.37582 62.6683 6.35204 62.515 6.30446C62.3644 6.25424 62.2375 6.1842 62.1344 6.09434C62.034 6.00183 61.9574 5.89347 61.9045 5.76924C61.8543 5.64237 61.8292 5.50229 61.8292 5.34899C61.8292 5.32256 61.8331 5.3001 61.8411 5.2816C61.8516 5.2631 61.8688 5.24856 61.8926 5.23799C61.919 5.22741 61.9521 5.21948 61.9917 5.2142C62.034 5.20891 62.0842 5.20627 62.1424 5.20627C62.2058 5.20627 62.256 5.21023 62.293 5.21816C62.33 5.22345 62.3578 5.2327 62.3763 5.24592C62.3974 5.25913 62.4106 5.27631 62.4159 5.29746C62.4239 5.3186 62.4278 5.34371 62.4278 5.37278C62.4278 5.43886 62.441 5.50361 62.4675 5.56705C62.4939 5.63048 62.5336 5.68731 62.5864 5.73752C62.6419 5.7851 62.708 5.82342 62.7846 5.8525C62.8613 5.88157 62.9498 5.89611 63.0503 5.89611C63.1481 5.89611 63.234 5.88157 63.308 5.8525C63.3846 5.82342 63.4494 5.7851 63.5022 5.73752C63.5551 5.68731 63.5947 5.63048 63.6212 5.56705C63.6476 5.50097 63.6608 5.43093 63.6608 5.35692C63.6608 5.33314 63.6635 5.31199 63.6687 5.29349C63.6767 5.27235 63.6899 5.25649 63.7084 5.24592C63.7295 5.2327 63.7573 5.22345 63.7916 5.21816C63.8287 5.21023 63.8775 5.20627 63.9383 5.20627C64.0018 5.20627 64.0533 5.20891 64.093 5.2142C64.1352 5.21948 64.1683 5.22741 64.1921 5.23799C64.2185 5.24856 64.237 5.2631 64.2476 5.2816C64.2581 5.3001 64.2634 5.32256 64.2634 5.34899ZM69.5046 6.97448C69.5046 7.0247 69.502 7.06831 69.4967 7.10531C69.4914 7.14231 69.4822 7.17271 69.4689 7.19649C69.4584 7.21764 69.4438 7.2335 69.4253 7.24407C69.4095 7.25464 69.391 7.25993 69.3698 7.25993H67.9267V11.7082C67.9267 11.7293 67.9214 11.7478 67.9109 11.7637C67.9003 11.7796 67.8818 11.7928 67.8554 11.8034C67.8289 11.8113 67.7932 11.8179 67.7483 11.8232C67.706 11.8311 67.6518 11.8351 67.5858 11.8351C67.5223 11.8351 67.4681 11.8311 67.4232 11.8232C67.3783 11.8179 67.3426 11.8113 67.3162 11.8034C67.2897 11.7928 67.2712 11.7796 67.2607 11.7637C67.2501 11.7478 67.2448 11.7293 67.2448 11.7082V7.25993H65.8017C65.7806 7.25993 65.7607 7.25464 65.7422 7.24407C65.7264 7.2335 65.7132 7.21764 65.7026 7.19649C65.692 7.17271 65.6828 7.14231 65.6748 7.10531C65.6695 7.06831 65.6669 7.0247 65.6669 6.97448C65.6669 6.92426 65.6695 6.88065 65.6748 6.84365C65.6828 6.804 65.692 6.77228 65.7026 6.7485C65.7132 6.72471 65.7264 6.70753 65.7422 6.69696C65.7607 6.68638 65.7806 6.6811 65.8017 6.6811H69.3698C69.391 6.6811 69.4095 6.68638 69.4253 6.69696C69.4438 6.70753 69.4584 6.72471 69.4689 6.7485C69.4822 6.77228 69.4914 6.804 69.4967 6.84365C69.502 6.88065 69.5046 6.92426 69.5046 6.97448ZM73.1005 11.5298C73.1005 11.5774 73.0979 11.6197 73.0926 11.6567C73.0873 11.691 73.078 11.7201 73.0648 11.7439C73.0516 11.7677 73.0358 11.7848 73.0173 11.7954C73.0014 11.806 72.9829 11.8113 72.9617 11.8113H70.4997C70.4389 11.8113 70.3808 11.7915 70.3253 11.7518C70.2724 11.7095 70.246 11.6368 70.246 11.5338V6.95862C70.246 6.85554 70.2724 6.78418 70.3253 6.74453C70.3808 6.70224 70.4389 6.6811 70.4997 6.6811H72.934C72.9551 6.6811 72.9736 6.68638 72.9895 6.69696C73.008 6.70753 73.0225 6.72471 73.0331 6.7485C73.0437 6.77228 73.0516 6.80268 73.0569 6.83968C73.0648 6.87404 73.0688 6.91765 73.0688 6.97051C73.0688 7.01809 73.0648 7.06038 73.0569 7.09738C73.0516 7.13174 73.0437 7.16081 73.0331 7.1846C73.0225 7.20575 73.008 7.2216 72.9895 7.23218C72.9736 7.24275 72.9551 7.24803 72.934 7.24803H70.9279V8.85766H72.6485C72.6697 8.85766 72.6882 8.86427 72.7041 8.87748C72.7226 8.88805 72.7371 8.90391 72.7477 8.92506C72.7609 8.9462 72.7701 8.97527 72.7754 9.01228C72.7807 9.04928 72.7833 9.09289 72.7833 9.14311C72.7833 9.19068 72.7807 9.23165 72.7754 9.26601C72.7701 9.30037 72.7609 9.32812 72.7477 9.34927C72.7371 9.37041 72.7226 9.38627 72.7041 9.39684C72.6882 9.40477 72.6697 9.40874 72.6485 9.40874H70.9279V11.2443H72.9617C72.9829 11.2443 73.0014 11.2496 73.0173 11.2602C73.0358 11.2708 73.0516 11.288 73.0648 11.3117C73.078 11.3329 73.0873 11.362 73.0926 11.399C73.0979 11.4333 73.1005 11.4769 73.1005 11.5298ZM79.432 10.3404C79.432 10.5016 79.4108 10.651 79.3685 10.7884C79.3289 10.9232 79.2721 11.0448 79.1981 11.1532C79.124 11.2615 79.0342 11.3567 78.9285 11.4386C78.8254 11.5205 78.7078 11.5893 78.5756 11.6448C78.4461 11.7003 78.306 11.7426 78.1554 11.7716C78.0074 11.7981 77.8369 11.8113 77.6439 11.8113H76.3039C76.2431 11.8113 76.185 11.7915 76.1295 11.7518C76.0766 11.7095 76.0502 11.6368 76.0502 11.5338V6.95862C76.0502 6.85554 76.0766 6.78418 76.1295 6.74453C76.185 6.70224 76.2431 6.6811 76.3039 6.6811H77.4695C77.7761 6.6811 78.0272 6.71017 78.2228 6.76832C78.4183 6.82647 78.5809 6.91104 78.7104 7.02205C78.8426 7.13306 78.9417 7.26918 79.0078 7.43041C79.0738 7.59163 79.1069 7.774 79.1069 7.97752C79.1069 8.0991 79.0923 8.21539 79.0633 8.3264C79.0342 8.43741 78.9906 8.54049 78.9324 8.63564C78.8769 8.72815 78.8056 8.8114 78.7183 8.88541C78.6338 8.95942 78.536 9.02021 78.425 9.06778C78.565 9.09421 78.6959 9.14311 78.8175 9.21447C78.939 9.28319 79.0448 9.37173 79.1346 9.4801C79.2271 9.58846 79.2998 9.71533 79.3527 9.8607C79.4055 10.0061 79.432 10.166 79.432 10.3404ZM78.4051 8.04492C78.4051 7.92069 78.388 7.80836 78.3536 7.70793C78.3192 7.60749 78.2651 7.52291 78.191 7.45419C78.117 7.38283 78.0206 7.32865 77.9016 7.29164C77.7827 7.25464 77.6254 7.23614 77.4298 7.23614H76.7241V8.8973H77.5012C77.6783 8.8973 77.821 8.87484 77.9294 8.82991C78.0377 8.78233 78.1276 8.72022 78.199 8.64357C78.2703 8.56428 78.3219 8.47309 78.3536 8.37001C78.388 8.26429 78.4051 8.15593 78.4051 8.04492ZM78.7144 10.3801C78.7144 10.2268 78.6893 10.092 78.639 9.97567C78.5915 9.85938 78.5201 9.76159 78.425 9.68229C78.3324 9.603 78.2148 9.54353 78.0721 9.50389C77.932 9.4616 77.7549 9.44045 77.5409 9.44045H76.7241V11.2483H77.7153C77.8712 11.2483 78.0074 11.2298 78.1236 11.1928C78.2399 11.1558 78.3417 11.1016 78.4289 11.0303C78.5188 10.9562 78.5888 10.8651 78.639 10.7567C78.6893 10.6483 78.7144 10.5228 78.7144 10.3801Z" fill="white"/>
<path d="M44.3153 26.9622L43.5382 24.5849H39.3454L38.5145 26.9622H36.7912L41.3687 15.5376H41.7765L46.0232 26.9622H44.3153ZM41.4995 18.4918L39.7531 23.454H43.0997L41.4995 18.4918ZM48.5543 26.5083V30.1934H47.0926V18.7226H48.5543V19.3996C49.1082 18.8457 49.7775 18.5687 50.5622 18.5687C51.7316 18.5687 52.642 18.9329 53.2934 19.6612C53.9448 20.3895 54.2704 21.4563 54.2704 22.8616C54.2704 24.1131 53.9422 25.1363 53.2857 25.9313C52.6292 26.7211 51.6803 27.116 50.4392 27.116C50.0904 27.116 49.716 27.0545 49.3159 26.9314C48.921 26.8083 48.6671 26.6672 48.5543 26.5083ZM48.5543 20.4998V25.3004C48.6466 25.4389 48.8415 25.5722 49.139 25.7005C49.4365 25.8235 49.7262 25.8851 50.0083 25.8851C51.824 25.8851 52.7318 24.8593 52.7318 22.8078C52.7318 21.7666 52.5164 21.005 52.0855 20.5228C51.6547 20.0407 50.9649 19.7997 50.016 19.7997C49.8109 19.7997 49.5596 19.8715 49.2621 20.0151C48.9646 20.1587 48.7287 20.3202 48.5543 20.4998ZM57.3401 26.5083V30.1934H55.8783V18.7226H57.3401V19.3996C57.894 18.8457 58.5633 18.5687 59.348 18.5687C60.5174 18.5687 61.4278 18.9329 62.0792 19.6612C62.7305 20.3895 63.0562 21.4563 63.0562 22.8616C63.0562 24.1131 62.728 25.1363 62.0715 25.9313C61.415 26.7211 60.4661 27.116 59.2249 27.116C58.8762 27.116 58.5018 27.0545 58.1017 26.9314C57.7068 26.8083 57.4529 26.6672 57.3401 26.5083ZM57.3401 20.4998V25.3004C57.4324 25.4389 57.6273 25.5722 57.9248 25.7005C58.2222 25.8235 58.512 25.8851 58.7941 25.8851C60.6097 25.8851 61.5176 24.8593 61.5176 22.8078C61.5176 21.7666 61.3021 21.005 60.8713 20.5228C60.4405 20.0407 59.7507 19.7997 58.8018 19.7997C58.5967 19.7997 58.3453 19.8715 58.0479 20.0151C57.7504 20.1587 57.5145 20.3202 57.3401 20.4998ZM72.5883 16.4761L71.9497 17.7455C71.1753 17.1711 70.4162 16.8839 69.6725 16.8839C68.4928 16.8839 67.562 17.2993 66.8798 18.1302C66.1977 18.9611 65.8566 20.0612 65.8566 21.4307C65.8566 22.7334 66.19 23.7822 66.8567 24.5772C67.5286 25.3722 68.4416 25.7697 69.5956 25.7697C70.4162 25.7697 71.0804 25.5235 71.5881 25.0311V22.3923H70.0264V21.0845H73.1268V25.9928C72.7165 26.3416 72.1446 26.6237 71.4112 26.8391C70.6778 27.0493 69.9648 27.1545 69.2724 27.1545C67.7184 27.1545 66.49 26.6288 65.5873 25.5774C64.6898 24.5208 64.241 23.1181 64.241 21.3691C64.241 19.6253 64.7334 18.2123 65.7181 17.1301C66.708 16.0428 68.0415 15.4991 69.7187 15.4991C70.8932 15.4991 71.8497 15.8248 72.5883 16.4761ZM79.9816 26.0159C79.3969 26.7493 78.5019 27.116 77.2966 27.116C76.6503 27.116 76.0887 26.8827 75.6117 26.4159C75.1399 25.9441 74.904 25.3594 74.904 24.6619C74.904 23.8258 75.2681 23.1206 75.9964 22.5462C76.7298 21.9666 77.6633 21.6768 78.7968 21.6768C79.1045 21.6768 79.4533 21.7435 79.8431 21.8769C79.8431 20.5434 79.2481 19.8766 78.0582 19.8766C77.1453 19.8766 76.4426 20.1228 75.9503 20.6152L75.3348 19.3919C75.6117 19.1662 75.9938 18.9739 76.4811 18.8149C76.9735 18.6508 77.4428 18.5687 77.889 18.5687C79.084 18.5687 79.9508 18.8406 80.4893 19.3842C81.033 19.9279 81.3048 20.7921 81.3048 21.9769V24.9311C81.3048 25.6543 81.5202 26.1364 81.9511 26.3775V27.1083C81.3561 27.1083 80.9099 27.0237 80.6124 26.8545C80.3201 26.6852 80.1098 26.4057 79.9816 26.0159ZM79.8431 22.9155C79.3815 22.8129 79.0584 22.7616 78.8737 22.7616C78.1352 22.7616 77.5325 22.9514 77.0658 23.3309C76.5991 23.7104 76.3657 24.1592 76.3657 24.6772C76.3657 25.5338 76.8709 25.962 77.8813 25.962C78.6198 25.962 79.2738 25.6107 79.8431 24.908V22.9155ZM83.7205 24.6311V15.3452H85.1823V24.3849C85.1823 24.826 85.3079 25.1747 85.5592 25.4312C85.8157 25.6825 86.1491 25.8082 86.5594 25.8082V27.116C84.6668 27.116 83.7205 26.2877 83.7205 24.6311ZM88.3673 24.6311V15.3452H89.829V24.3849C89.829 24.826 89.9547 25.1747 90.206 25.4312C90.4624 25.6825 90.7958 25.8082 91.2061 25.8082V27.116C89.3136 27.116 88.3673 26.2877 88.3673 24.6311ZM99.8381 22.9847H93.8988C93.8988 23.9489 94.1629 24.6901 94.6912 25.2081C95.1579 25.6594 95.758 25.8851 96.4915 25.8851C97.3275 25.8851 98.025 25.6415 98.584 25.1542L99.1995 26.2082C98.9738 26.4339 98.6276 26.6288 98.1609 26.7929C97.5762 27.0083 96.9248 27.116 96.2068 27.116C95.1708 27.116 94.2912 26.7647 93.568 26.062C92.7628 25.2876 92.3601 24.2464 92.3601 22.9385C92.3601 21.5794 92.773 20.4895 93.5988 19.6689C94.3373 18.9354 95.2118 18.5687 96.2222 18.5687C97.3967 18.5687 98.3173 18.8995 98.9841 19.5612C99.6303 20.1972 99.9535 21.0409 99.9535 22.0923C99.9535 22.4154 99.915 22.7129 99.8381 22.9847ZM96.2914 19.7997C95.6401 19.7997 95.0938 20.0099 94.6527 20.4305C94.2322 20.8306 93.9937 21.3281 93.9373 21.923H98.4994C98.4994 21.3332 98.3148 20.8408 97.9455 20.4459C97.5403 20.0151 96.989 19.7997 96.2914 19.7997ZM105.977 20.1305C105.659 19.9099 105.339 19.7997 105.016 19.7997C104.498 19.7997 104.044 20.0382 103.654 20.5151C103.269 20.9921 103.077 21.5666 103.077 22.2385V26.9622H101.615V18.7226H103.077V20.0382C103.61 19.0585 104.403 18.5687 105.454 18.5687C105.716 18.5687 106.093 18.6149 106.585 18.7072L105.977 20.1305ZM110.77 28.3623C110.581 28.8855 110.18 29.3214 109.57 29.6702C108.965 30.019 108.288 30.1934 107.539 30.1934V28.8855C108.149 28.8855 108.673 28.7419 109.109 28.4547C109.544 28.1726 109.762 27.8264 109.762 27.4161C109.762 26.9647 109.683 26.5211 109.524 26.0851C109.365 25.644 109.16 25.1004 108.908 24.4541L106.677 18.7226H108.17L110.593 25.0927L112.771 18.7226H114.263L110.77 28.3623Z" fill="white"/>
</g>
<defs>
<clipPath id="clip0_1_151">
<rect width="120" height="36.6327" fill="white" transform="translate(0.0100098 0.683594)"/>
</clipPath>
</defs>
</svg>
