<svg id="Layer_1" data-name="Layer 1" xmlns="http://www.w3.org/2000/svg" viewBox="0 0 800 600"><defs><style>.cls-1{fill:none;}.cls-1,.cls-2{stroke:#020000;stroke-linecap:round;stroke-linejoin:round;stroke-width:17px;}.cls-2{fill:#fff;}</style></defs><path class="cls-1" d="M263.91,155.37H602.48a4.82,4.82,0,0,1,4.82,4.82V454.37a4.82,4.82,0,0,1-4.82,4.82H268.73a4.82,4.82,0,0,1-4.82-4.82v-299A0,0,0,0,1,263.91,155.37Z"/><polyline class="cls-2" points="570.9 308.87 192.7 236.07 514.34 78.56 607.3 253.48"/><line class="cls-2" x1="607.3" y1="253.48" x2="570.9" y2="308.87"/><path class="cls-2" d="M487.82,308.87H570.9V236.08a4.74,4.74,0,0,0-4.75-4.75H192.7V494a4.75,4.75,0,0,0,4.75,4.75h368.7A4.75,4.75,0,0,0,570.9,494V421.22H487.82A56.17,56.17,0,0,1,431.65,365h0A56.17,56.17,0,0,1,487.82,308.87Z"/><line class="cls-1" x1="263.91" y1="155.37" x2="192.7" y2="231.33"/><line class="cls-1" x1="607.3" y1="353.39" x2="570.9" y2="424.6"/></svg>