<svg xmlns="http://www.w3.org/2000/svg" width="21.687" height="14.91" viewBox="0 0 21.687 14.91">
  <g id="credit-card" transform="translate(0 -80)">
    <g id="Group_840" data-name="Group 840" transform="translate(0 80)">
      <g id="Group_839" data-name="Group 839">
        <path id="Path_78" data-name="Path 78" d="M20.67,82.033H19.653V81.017A1.017,1.017,0,0,0,18.637,80H1.017A1.017,1.017,0,0,0,0,81.017V91.86a1.017,1.017,0,0,0,1.017,1.017H2.033v1.017A1.017,1.017,0,0,0,3.05,94.91H20.67a1.017,1.017,0,0,0,1.017-1.017V83.05A1.017,1.017,0,0,0,20.67,82.033ZM.678,82.711H15.248a.339.339,0,1,0,0-.678H.678V81.017a.339.339,0,0,1,.339-.339h17.62a.339.339,0,0,1,.339.339v4.405H.678ZM1.017,92.2a.339.339,0,0,1-.339-.339V86.1h18.3v5.76a.339.339,0,0,1-.339.339Zm19.992,1.694a.339.339,0,0,1-.339.339H3.05a.339.339,0,0,1-.339-.339V92.876H18.637a1.017,1.017,0,0,0,1.017-1.017V82.711H20.67a.339.339,0,0,1,.339.339Z" transform="translate(0 -80)" fill="#fff"/>
      </g>
    </g>
    <g id="Group_842" data-name="Group 842" transform="translate(1.694 83.389)">
      <g id="Group_841" data-name="Group 841">
        <path id="Path_79" data-name="Path 79" d="M40.339,160a.339.339,0,0,0-.339.339v.678a.339.339,0,0,0,.678,0v-.678A.339.339,0,0,0,40.339,160Z" transform="translate(-40 -160)" fill="#fff"/>
      </g>
    </g>
    <g id="Group_844" data-name="Group 844" transform="translate(3.389 83.389)">
      <g id="Group_843" data-name="Group 843">
        <path id="Path_80" data-name="Path 80" d="M80.339,160a.339.339,0,0,0-.339.339v.678a.339.339,0,0,0,.678,0v-.678A.339.339,0,0,0,80.339,160Z" transform="translate(-80 -160)" fill="#fff"/>
      </g>
    </g>
    <g id="Group_846" data-name="Group 846" transform="translate(5.083 83.389)">
      <g id="Group_845" data-name="Group 845">
        <path id="Path_81" data-name="Path 81" d="M120.339,160a.339.339,0,0,0-.339.339v.678a.339.339,0,0,0,.678,0v-.678A.339.339,0,0,0,120.339,160Z" transform="translate(-120 -160)" fill="#fff"/>
      </g>
    </g>
    <g id="Group_848" data-name="Group 848" transform="translate(6.777 83.389)">
      <g id="Group_847" data-name="Group 847">
        <path id="Path_82" data-name="Path 82" d="M160.339,160a.339.339,0,0,0-.339.339v.678a.339.339,0,0,0,.678,0v-.678A.339.339,0,0,0,160.339,160Z" transform="translate(-160 -160)" fill="#fff"/>
      </g>
    </g>
    <g id="Group_850" data-name="Group 850" transform="translate(8.471 83.389)">
      <g id="Group_849" data-name="Group 849">
        <path id="Path_83" data-name="Path 83" d="M200.339,160a.339.339,0,0,0-.339.339v.678a.339.339,0,0,0,.678,0v-.678A.339.339,0,0,0,200.339,160Z" transform="translate(-200 -160)" fill="#fff"/>
      </g>
    </g>
    <g id="Group_852" data-name="Group 852" transform="translate(10.504 83.389)">
      <g id="Group_851" data-name="Group 851">
        <path id="Path_84" data-name="Path 84" d="M248.339,160a.339.339,0,0,0-.339.339v.678a.339.339,0,0,0,.678,0v-.678A.339.339,0,0,0,248.339,160Z" transform="translate(-248 -160)" fill="#fff"/>
      </g>
    </g>
    <g id="Group_854" data-name="Group 854" transform="translate(12.199 83.389)">
      <g id="Group_853" data-name="Group 853">
        <path id="Path_85" data-name="Path 85" d="M288.339,160a.339.339,0,0,0-.339.339v.678a.339.339,0,0,0,.678,0v-.678A.339.339,0,0,0,288.339,160Z" transform="translate(-288 -160)" fill="#fff"/>
      </g>
    </g>
    <g id="Group_856" data-name="Group 856" transform="translate(13.893 83.389)">
      <g id="Group_855" data-name="Group 855">
        <path id="Path_86" data-name="Path 86" d="M328.339,160a.339.339,0,0,0-.339.339v.678a.339.339,0,1,0,.678,0v-.678A.339.339,0,0,0,328.339,160Z" transform="translate(-328 -160)" fill="#fff"/>
      </g>
    </g>
    <g id="Group_858" data-name="Group 858" transform="translate(15.587 83.389)">
      <g id="Group_857" data-name="Group 857">
        <path id="Path_87" data-name="Path 87" d="M368.339,160a.339.339,0,0,0-.339.339v.678a.339.339,0,0,0,.678,0v-.678A.339.339,0,0,0,368.339,160Z" transform="translate(-368 -160)" fill="#fff"/>
      </g>
    </g>
    <g id="Group_860" data-name="Group 860" transform="translate(17.282 83.389)">
      <g id="Group_859" data-name="Group 859">
        <path id="Path_88" data-name="Path 88" d="M408.339,160a.339.339,0,0,0-.339.339v.678a.339.339,0,0,0,.678,0v-.678A.339.339,0,0,0,408.339,160Z" transform="translate(-408 -160)" fill="#fff"/>
      </g>
    </g>
    <g id="Group_862" data-name="Group 862" transform="translate(8.81 87.794)">
      <g id="Group_861" data-name="Group 861">
        <path id="Path_89" data-name="Path 89" d="M209.694,264h-1.355a.339.339,0,1,0,0,.678h1.355a.339.339,0,1,0,0-.678Z" transform="translate(-208 -264)" fill="#fff"/>
      </g>
    </g>
    <g id="Group_864" data-name="Group 864" transform="translate(2.033 87.794)">
      <g id="Group_863" data-name="Group 863">
        <path id="Path_90" data-name="Path 90" d="M53.083,264H48.339a.339.339,0,1,0,0,.678h4.744a.339.339,0,1,0,0-.678Z" transform="translate(-48 -264)" fill="#fff"/>
      </g>
    </g>
    <g id="Group_866" data-name="Group 866" transform="translate(2.033 89.149)">
      <g id="Group_865" data-name="Group 865">
        <path id="Path_91" data-name="Path 91" d="M52.066,296H48.339a.339.339,0,1,0,0,.678h3.727a.339.339,0,1,0,0-.678Z" transform="translate(-48 -296)" fill="#fff"/>
      </g>
    </g>
    <g id="Group_868" data-name="Group 868" transform="translate(12.875 87.455)">
      <g id="Group_867" data-name="Group 867">
        <path id="Path_92" data-name="Path 92" d="M307.874,256.3a1.355,1.355,0,1,0,.209,1.905A1.356,1.356,0,0,0,307.874,256.3Zm-.173,1.444a.729.729,0,0,1-.611.329v.014a.725.725,0,0,1-.607-.339.363.363,0,0,0-.607,0,.728.728,0,1,1,0-.8.38.38,0,0,0,.607,0,.729.729,0,0,1,1.218.8Z" transform="translate(-303.974 -255.999)" fill="#fff"/>
      </g>
    </g>
    <g id="Group_870" data-name="Group 870" transform="translate(16.265 82.033)">
      <g id="Group_869" data-name="Group 869">
        <path id="Path_93" data-name="Path 93" d="M385.694,128h-1.355a.339.339,0,1,0,0,.678h1.355a.339.339,0,0,0,0-.678Z" transform="translate(-384 -128)" fill="#fff"/>
      </g>
    </g>
  </g>
</svg>
