<svg width="121" height="36" viewBox="0 0 121 36" fill="none" xmlns="http://www.w3.org/2000/svg">
<g id="google-play.svg" clip-path="url(#clip0_1_132)">
<path id="Path_26" d="M116.186 35.7776H5.0745C4.48923 35.7834 3.90868 35.6724 3.36683 35.4511C2.82498 35.2298 2.33271 34.9027 1.91884 34.4888C1.50497 34.0749 1.17781 33.5827 0.956511 33.0408C0.735208 32.499 0.624208 31.9184 0.630007 31.3332V4.66663C0.624208 4.08136 0.735208 3.50081 0.956511 2.95896C1.17781 2.41711 1.50497 1.92485 1.91884 1.51098C2.33271 1.09711 2.82498 0.769946 3.36683 0.548643C3.90868 0.32734 4.48923 0.21634 5.0745 0.22214H116.186C116.771 0.21634 117.351 0.32734 117.893 0.548643C118.435 0.769946 118.927 1.09711 119.341 1.51098C119.755 1.92485 120.082 2.41711 120.303 2.95896C120.525 3.50081 120.636 4.08136 120.63 4.66663V31.3332C120.636 31.9184 120.525 32.499 120.303 33.0408C120.082 33.5827 119.755 34.0749 119.341 34.4888C118.927 34.9027 118.435 35.2298 117.893 35.4511C117.351 35.6724 116.771 35.7834 116.186 35.7776Z" fill="#0A0A0C"/>
<g id="&#208;&#187;&#208;&#190;&#208;&#179;&#208;&#190;_&#208;&#179;&#209;&#131;&#208;&#179;&#208;&#187;_&#208;&#191;&#208;&#187;&#209;&#141;&#208;&#185;">
<path id="Path_36" d="M21.0742 17.5283L24.5408 14.0613L11.741 6.77246C11.5177 6.63358 11.2665 6.54556 11.0054 6.51463C10.7442 6.48371 10.4794 6.51064 10.2298 6.59352L21.0742 17.5283Z" fill="white"/>
<path id="Path_37" d="M9.69838 7.12793C9.52745 7.42588 9.43509 7.7624 9.42996 8.10585V27.7511C9.43446 28.1227 9.52641 28.4881 9.69838 28.8176L20.541 17.9723L9.69838 7.12793Z" fill="white"/>
<path id="Path_38" d="M21.0742 18.5056L10.3188 29.261C10.5539 29.3412 10.8042 29.3668 11.0506 29.3357C11.297 29.3047 11.5331 29.218 11.741 29.082L24.4522 21.8836L21.0742 18.5056Z" fill="white"/>
<path id="Path_39" d="M29.0747 16.7278L25.1635 14.4167L21.6079 17.9723L25.0745 21.4403L29.0743 19.1292C30.3188 18.5946 30.3188 17.4391 29.0747 16.7278Z" fill="white"/>
</g>
<g id="&#208;&#180;&#208;&#190;&#209;&#129;&#209;&#130;&#209;&#131;&#208;&#191;&#208;&#189;&#208;&#190;_&#208;&#178;">
<path id="Path_27" d="M38.0523 12.9313H37.4301V11.1557H37.9633C38.3544 10.5442 38.5697 9.83694 38.5856 9.11128L38.675 6.44458H42.2302V11.1557H42.8525V12.9313H42.2302V11.778H38.1414V12.9313H38.0523ZM39.2079 9.10904C39.1547 9.80849 39.005 10.4972 38.7632 11.1557H41.4299V7.15588H39.2079V9.11128V9.10904Z" fill="white" stroke="white" stroke-width="0.0894715" stroke-miterlimit="10"/>
<path id="Path_28" d="M48.0968 11.0666C47.575 11.5793 46.8728 11.8666 46.1412 11.8666C45.4097 11.8666 44.7074 11.5793 44.1856 11.0666C43.9303 10.8092 43.7282 10.5041 43.591 10.1685C43.4537 9.833 43.384 9.4737 43.3857 9.11119C43.3894 8.38145 43.6809 7.68264 44.1969 7.16663C44.7129 6.65062 45.4117 6.35911 46.1414 6.35547C46.8712 6.35911 47.57 6.65062 48.086 7.16663C48.602 7.68264 48.8935 8.38145 48.8972 9.11119C48.8988 9.47373 48.829 9.83305 48.6917 10.1686C48.5544 10.5041 48.3522 10.8093 48.0968 11.0666ZM44.7188 10.6224C45.0961 11.004 45.6052 11.2265 46.1414 11.2442C46.4102 11.2555 46.6779 11.2054 46.9244 11.0976C47.1708 10.9899 47.3894 10.8273 47.5636 10.6224C47.933 10.2017 48.1519 9.67002 48.1859 9.11119C48.1977 8.82928 48.1481 8.54816 48.0407 8.28725C47.9333 8.02635 47.7705 7.79187 47.5636 7.60002C47.1865 7.21836 46.6776 6.99568 46.1414 6.97774C45.8726 6.9664 45.6047 7.01656 45.3582 7.12439C45.1117 7.23223 44.893 7.3949 44.7188 7.60002C44.3496 8.02076 44.1308 8.55241 44.097 9.11119C44.0851 9.39307 44.1346 9.67417 44.242 9.93507C44.3493 10.196 44.512 10.4305 44.7188 10.6224Z" fill="white" stroke="white" stroke-width="0.0894715" stroke-miterlimit="10"/>
<path id="Path_29" d="M52.3637 11.8664C52.0071 11.8746 51.6524 11.8118 51.3202 11.6818C50.988 11.5517 50.6849 11.357 50.4286 11.109C50.1722 10.8609 49.9677 10.5644 49.8268 10.2366C49.686 9.9089 49.6116 9.55645 49.608 9.19973V9.11026C49.6 8.7537 49.6629 8.39909 49.7929 8.067C49.923 7.73492 50.1177 7.43196 50.3658 7.1757C50.6139 6.91944 50.9103 6.71498 51.238 6.57417C51.5657 6.43337 51.9181 6.35902 52.2747 6.35544H52.3642C52.7368 6.3415 53.1075 6.41458 53.4469 6.56888C53.7863 6.72318 54.0851 6.95444 54.3196 7.24433L53.8754 7.68856C53.6943 7.46266 53.4639 7.28117 53.2019 7.15796C52.9399 7.03475 52.6532 6.9731 52.3637 6.97771C52.0818 6.9659 51.8007 7.01542 51.5398 7.12286C51.2789 7.23029 51.0444 7.39308 50.8526 7.59998C50.6457 7.79184 50.4829 8.02631 50.3754 8.28722C50.268 8.54813 50.2185 8.82924 50.2303 9.11116C50.2185 9.39307 50.268 9.67419 50.3754 9.93509C50.4829 10.196 50.6457 10.4305 50.8526 10.6223C51.2733 10.9916 51.8049 11.2104 52.3637 11.2442C52.6755 11.2523 52.9846 11.1836 53.2636 11.0441C53.5426 10.9046 53.7829 10.6986 53.9635 10.4443L54.4077 10.8885C54.1525 11.1728 53.8521 11.4131 53.5188 11.5998C53.1613 11.7815 52.7647 11.873 52.3637 11.8664Z" fill="white" stroke="white" stroke-width="0.0894715" stroke-miterlimit="10"/>
<path id="Path_30" d="M57.252 11.778H56.5407V7.06685H55.03V6.44458H58.6746V7.06685H57.1634L57.2529 11.778H57.252Z" fill="white" stroke="white" stroke-width="0.0894715" stroke-miterlimit="10"/>
<path id="Path_31" d="M63.5638 6.44458L61.5189 10.8891C61.4313 11.1568 61.2663 11.3926 61.0448 11.5666C60.8233 11.7406 60.5552 11.8452 60.2744 11.867C60.092 11.8809 59.909 11.8502 59.7411 11.7775L59.92 11.1553C60.0244 11.2259 60.1503 11.2576 60.2757 11.2447C60.4546 11.2447 60.5441 11.2447 60.6313 11.1553C60.7418 11.0541 60.8327 10.9335 60.8998 10.7996L61.0787 10.3554L59.2969 6.44458H60.0967L61.4299 9.46693L62.6749 6.44458H63.5638Z" fill="white" stroke="white" stroke-width="0.0894715" stroke-miterlimit="10"/>
<path id="Path_32" d="M64.1856 11.778V6.44458H68.0078V11.778H67.2965V7.06685H64.8079V11.778H64.1856Z" fill="white" stroke="white" stroke-width="0.0894715" stroke-miterlimit="10"/>
<path id="Path_33" d="M69.2524 11.778V6.44458H69.9637V8.75563H72.6304V6.44458H73.3417V11.778H72.6304V9.3779H69.9637V11.778H69.2524Z" fill="white" stroke="white" stroke-width="0.0894715" stroke-miterlimit="10"/>
<path id="Path_34" d="M78.9412 11.0666C78.4194 11.5793 77.7172 11.8666 76.9856 11.8666C76.2541 11.8666 75.5518 11.5793 75.03 11.0666C74.7747 10.8092 74.5726 10.5041 74.4353 10.1685C74.2981 9.833 74.2284 9.4737 74.2301 9.11119C74.2337 8.38145 74.5253 7.68264 75.0413 7.16663C75.5573 6.65062 76.2561 6.35911 76.9858 6.35547C77.7156 6.35911 78.4144 6.65062 78.9304 7.16663C79.4464 7.68264 79.7379 8.38145 79.7415 9.11119C79.6635 9.82516 79.3862 10.5028 78.9412 11.0666ZM75.4747 10.6224C75.8518 11.0038 76.3607 11.2264 76.8968 11.2442C77.1655 11.2555 77.4333 11.2054 77.6797 11.0976C77.9262 10.9899 78.1448 10.8273 78.3189 10.6224C78.6884 10.2017 78.9073 9.67003 78.9412 9.11119C78.953 8.82928 78.9035 8.54816 78.7961 8.28725C78.6886 8.02635 78.5258 7.79187 78.3189 7.60002C77.9419 7.21836 77.433 6.99568 76.8968 6.97774C76.628 6.9665 76.3603 7.01671 76.1138 7.12454C75.8674 7.23237 75.6488 7.39499 75.4747 7.60002C75.0892 8.00878 74.8746 8.54937 74.8746 9.11119C74.8746 9.67301 75.0892 10.2136 75.4747 10.6224Z" fill="white" stroke="white" stroke-width="0.0894715" stroke-miterlimit="10"/>
<path id="Path_35" d="M82.4968 11.778V6.44458H84.4522C84.8493 6.45627 85.2269 6.61924 85.5078 6.90014C85.7887 7.18105 85.9517 7.55867 85.9634 7.95575C85.9461 8.20154 85.8855 8.44234 85.7845 8.66705C85.6723 8.87973 85.4806 9.03942 85.2512 9.11128C85.4916 9.20669 85.7052 9.35915 85.8735 9.5555C86.0536 9.7826 86.1486 10.0656 86.1419 10.3554C86.1436 10.5539 86.1051 10.7507 86.0288 10.934C85.9524 11.1173 85.8398 11.2832 85.6977 11.4219C85.374 11.6967 84.9665 11.8533 84.5421 11.8661H82.4968V11.778ZM83.2081 8.75563H84.4527C84.5697 8.7588 84.686 8.73643 84.7934 8.69007C84.9009 8.64371 84.997 8.57449 85.0749 8.48721C85.2072 8.38573 85.2982 8.23976 85.3311 8.07632C85.364 7.91289 85.3366 7.74307 85.2539 7.59831C85.2539 7.50884 85.1644 7.50884 85.0749 7.41937C84.997 7.3321 84.9009 7.26287 84.7934 7.21651C84.686 7.17016 84.5697 7.14779 84.4527 7.15096H83.2081V8.75563ZM83.2081 11.1557H84.6303C84.8609 11.14 85.0779 11.0413 85.2414 10.8779C85.4048 10.7145 85.5035 10.4974 85.5192 10.2668C85.5223 10.1498 85.5 10.0335 85.4536 9.92605C85.4073 9.81858 85.338 9.72251 85.2508 9.64453C85.1728 9.55725 85.0767 9.48802 84.9692 9.44167C84.8618 9.39531 84.7455 9.37294 84.6285 9.37611H83.2954L83.2081 11.1557Z" fill="white" stroke="white" stroke-width="0.0894715" stroke-miterlimit="10"/>
</g>
<path id="google-play" d="M61.1637 19.6C60.1753 19.5826 59.2198 19.9554 58.5043 20.6376C57.7889 21.3198 57.3711 22.2565 57.3415 23.2446V23.4236C57.3353 23.9197 57.427 24.4123 57.6114 24.873C57.7957 25.3337 58.0691 25.7535 58.4158 26.1085C58.7625 26.4635 59.1758 26.7466 59.632 26.9418C60.0883 27.1369 60.5785 27.2402 61.0747 27.2458H61.1641C62.1526 27.2632 63.108 26.8904 63.8235 26.2082C64.5389 25.526 64.9567 24.5893 64.9864 23.6012V23.4222C65.0052 22.9375 64.928 22.4538 64.7593 21.9989C64.5906 21.5441 64.3336 21.1271 64.0032 20.7719C63.6728 20.4167 63.2754 20.1303 62.834 19.9292C62.3925 19.7281 61.9156 19.6162 61.4308 19.6H61.1637ZM61.1637 25.6442C60.555 25.5863 59.9925 25.2945 59.5946 24.8303C59.1967 24.3661 58.9944 23.7655 59.0302 23.1552C59.0678 22.6017 59.3046 22.0806 59.6969 21.6883C60.0891 21.2961 60.6102 21.0593 61.1637 21.0217C61.7271 21.0293 62.2654 21.2566 62.6638 21.655C63.0623 22.0535 63.2895 22.5917 63.2971 23.1552V23.3341C63.3119 23.6266 63.2681 23.9191 63.1684 24.1945C63.0686 24.4699 62.9148 24.7226 62.7161 24.9377C62.5174 25.1529 62.2777 25.3262 62.0112 25.4476C61.7446 25.5689 61.4565 25.6357 61.1637 25.6442ZM52.897 19.6C51.9085 19.5826 50.9531 19.9554 50.2376 20.6376C49.5222 21.3198 49.1044 22.2565 49.0747 23.2446V23.4236C49.0686 23.9197 49.1603 24.4123 49.3447 24.873C49.529 25.3337 49.8023 25.7535 50.1491 26.1085C50.4958 26.4635 50.9091 26.7466 51.3653 26.9418C51.8215 27.1369 52.3118 27.2402 52.8079 27.2458H52.8974C53.8858 27.2632 54.8413 26.8904 55.5568 26.2082C56.2722 25.526 56.69 24.5893 56.7196 23.6012V23.4222C56.7385 22.9375 56.6613 22.4538 56.4926 21.9989C56.3239 21.5441 56.0669 21.1271 55.7365 20.7719C55.4061 20.4167 55.0087 20.1303 54.5672 19.9292C54.1258 19.7281 53.6489 19.6162 53.164 19.6H52.897ZM52.897 25.6442C52.2882 25.5866 51.7255 25.2949 51.3275 24.8307C50.9294 24.3666 50.7269 23.7661 50.7626 23.1556C50.8002 22.6021 51.037 22.081 51.4293 21.6888C51.8215 21.2965 52.3426 21.0597 52.8961 21.0221C53.4595 21.0298 53.9977 21.257 54.3962 21.6555C54.7947 22.0539 55.0219 22.5921 55.0295 23.1556V23.3345C55.0444 23.6271 55.0007 23.9197 54.901 24.1952C54.8013 24.4707 54.6476 24.7235 54.4488 24.9388C54.2501 25.154 54.0104 25.3274 53.7438 25.4488C53.4771 25.5702 53.1889 25.6371 52.8961 25.6456L52.897 25.6442ZM43.0301 20.7555V22.3562H46.8523C46.8006 23.1198 46.4866 23.842 45.9634 24.4006C45.3732 24.9606 44.6336 25.3378 43.8338 25.4866C43.034 25.6355 42.2082 25.5497 41.4561 25.2395C40.704 24.9294 40.0577 24.4081 39.5954 23.7387C39.133 23.0694 38.8743 22.2805 38.8504 21.4673V21.2883C38.8382 20.7396 38.9344 20.1938 39.1334 19.6822C39.3324 19.1706 39.6303 18.7033 40.01 18.307C40.3898 17.9107 40.844 17.5932 41.3466 17.3726C41.8493 17.152 42.3905 17.0326 42.9392 17.0214H43.0287C44.1137 17.0408 45.1553 17.4511 45.962 18.177L47.1176 17.0214C46.5906 16.5029 45.9656 16.0944 45.2791 15.8198C44.5926 15.5452 43.8583 15.41 43.1191 15.4221C41.5632 15.4221 40.0709 16.0402 38.9707 17.1404C37.8705 18.2406 37.2524 19.7328 37.2524 21.2888C37.2524 22.8447 37.8705 24.3369 38.9707 25.4371C40.0709 26.5373 41.5632 27.1554 43.1191 27.1554C43.8426 27.1828 44.5641 27.0619 45.2392 26.8003C45.9143 26.5387 46.5288 26.1418 47.0449 25.634C47.561 25.1262 47.9679 24.5182 48.2405 23.8475C48.5131 23.1767 48.6457 22.4573 48.6301 21.7334C48.6445 21.4049 48.6144 21.076 48.5406 20.7555H43.0301ZM83.3857 21.9983C83.1838 21.3059 82.7627 20.6977 82.1858 20.2649C81.6088 19.8322 80.907 19.5982 80.1858 19.5982C79.2436 19.6009 78.3408 19.9764 77.6746 20.6426C77.0084 21.3088 76.6329 22.2116 76.6302 23.1538V23.4222C76.6128 24.4106 76.9856 25.3661 77.6678 26.0816C78.35 26.797 79.2867 27.2148 80.2748 27.2444H80.3643C80.9821 27.2428 81.5899 27.0876 82.1329 26.7928C82.676 26.4981 83.1372 26.0729 83.4752 25.5557L82.2306 24.6668C82.0392 24.9916 81.7663 25.2609 81.4388 25.4479C81.1114 25.635 80.7409 25.7333 80.3638 25.7333C79.9757 25.7347 79.5949 25.6272 79.2649 25.4229C78.9348 25.2186 78.6688 24.9258 78.497 24.5777L83.5638 22.4456L83.3857 21.9983ZM78.2304 23.2442C78.2104 22.694 78.4019 22.1571 78.7656 21.7438C79.1293 21.3305 79.6375 21.0722 80.1858 21.0221C80.4746 21.005 80.7622 21.0713 81.0144 21.2131C81.2665 21.355 81.4726 21.5663 81.6079 21.822L78.2304 23.2442ZM74.0525 26.8888H75.7413V15.7778H74.0525V26.8888ZM71.3858 20.4021C71.1207 20.1261 70.8036 19.9054 70.4526 19.7529C70.1017 19.6003 69.724 19.5188 69.3414 19.5132C68.3583 19.5576 67.4304 19.98 66.7513 20.6922C66.0722 21.4044 65.6944 22.3514 65.6968 23.3354C65.6898 23.8202 65.7786 24.3015 65.9582 24.7518C66.1378 25.2021 66.4046 25.6125 66.7433 25.9594C67.0819 26.3063 67.4858 26.5829 67.9317 26.7732C68.3775 26.9636 68.8566 27.064 69.3414 27.0686C70.084 27.0382 70.7856 26.7193 71.2968 26.1797H71.3862V26.713C71.4307 27.2405 71.2712 27.7651 70.9404 28.1785C70.6096 28.5919 70.1329 28.8627 69.6084 28.935C69.1567 28.9721 68.7051 28.8623 68.3207 28.6222C67.9363 28.382 67.6397 28.0241 67.475 27.6019L66.0529 28.2242C66.3397 28.8822 66.8118 29.4427 67.4116 29.8372C68.0114 30.2318 68.7129 30.4433 69.4308 30.4462C71.3862 30.4462 72.9864 29.2907 72.9864 26.5349V19.7798H71.3858V20.4021ZM69.4304 25.6442C68.8217 25.5863 68.2592 25.2945 67.8613 24.8303C67.4634 24.3661 67.2611 23.7655 67.297 23.1552C67.3345 22.6017 67.5714 22.0806 67.9636 21.6883C68.3559 21.2961 68.8769 21.0593 69.4304 21.0217C69.9937 21.0523 70.5227 21.3017 70.9046 21.7168C71.2866 22.132 71.4912 22.6799 71.4748 23.2437V23.3332C71.4926 23.6192 71.4538 23.906 71.3606 24.177C71.2674 24.448 71.1217 24.698 70.9318 24.9126C70.7419 25.1273 70.5116 25.3024 70.254 25.4279C69.9963 25.5535 69.7165 25.627 69.4304 25.6442ZM91.1192 15.7778H87.1194V26.8888H88.8081V22.7109H91.1192C92.0387 22.7109 92.9205 22.3456 93.5707 21.6955C94.2209 21.0453 94.5862 20.1634 94.5862 19.2439C94.5862 18.3244 94.2209 17.4425 93.5707 16.7924C92.9205 16.1422 92.0387 15.7769 91.1192 15.7769V15.7778ZM91.2086 21.1112H88.8086V17.289H91.2086C91.4631 17.2834 91.7161 17.3288 91.9528 17.4224C92.1895 17.5159 92.4051 17.6558 92.587 17.8338C92.7689 18.0119 92.9134 18.2244 93.0121 18.459C93.1107 18.6936 93.1616 18.9456 93.1616 19.2001C93.1616 19.4546 93.1107 19.7065 93.0121 19.9411C92.9134 20.1757 92.7689 20.3883 92.587 20.5663C92.4051 20.7443 92.1895 20.8842 91.9528 20.9777C91.7161 21.0713 91.4631 21.1167 91.2086 21.1112ZM101.431 19.511C100.827 19.4549 100.221 19.5872 99.6959 19.8896C99.1707 20.192 98.752 20.6497 98.4974 21.1998L100.009 21.822C100.148 21.5501 100.368 21.3277 100.639 21.1847C100.909 21.0416 101.216 20.9849 101.52 21.0221C101.73 20.9981 101.943 21.0159 102.146 21.0744C102.35 21.133 102.539 21.2312 102.705 21.3634C102.87 21.4955 103.007 21.6591 103.109 21.8446C103.211 22.0301 103.275 22.2339 103.298 22.4443V22.5351C102.779 22.2523 102.199 22.0989 101.608 22.0878C100.008 22.0878 98.408 22.9767 98.408 24.5769C98.4226 24.9222 98.5059 25.2611 98.6529 25.574C98.7999 25.8868 99.0077 26.1672 99.2642 26.3989C99.5207 26.6306 99.8208 26.8089 100.147 26.9234C100.473 27.0379 100.819 27.0864 101.164 27.0659C101.581 27.0869 101.997 26.9997 102.37 26.8129C102.744 26.626 103.063 26.3458 103.297 25.9994H103.387V26.8883H104.987V22.6223C104.922 21.7404 104.512 20.9194 103.847 20.3371C103.181 19.7548 102.314 19.458 101.431 19.511ZM101.252 25.6442C100.719 25.6442 99.9187 25.3758 99.9187 24.6663C99.9187 23.7774 100.897 23.5108 101.696 23.5108C102.223 23.4909 102.745 23.6138 103.208 23.8664C103.123 24.3366 102.885 24.7656 102.532 25.087C102.178 25.4084 101.729 25.6043 101.253 25.6442H101.252ZM110.585 19.7776L108.718 24.5777H108.629L106.673 19.7776H104.896L107.829 26.5327L106.14 30.2659H107.829L112.364 19.7776H110.585ZM95.6518 26.8906H97.3406V15.7778H95.6518V26.8906Z" fill="white"/>
</g>
<defs>
<clipPath id="clip0_1_132">
<rect width="120" height="35.5555" fill="white" transform="translate(0.630005 0.222168)"/>
</clipPath>
</defs>
</svg>
