<svg id="google-play" xmlns="http://www.w3.org/2000/svg" width="127.768" height="37.857" viewBox="0 0 127.768 37.857">
  <path id="Path_26" d="M123.036,37.857H4.732A4.686,4.686,0,0,1,0,33.125V4.732A4.686,4.686,0,0,1,4.732,0h118.3a4.686,4.686,0,0,1,4.732,4.732V33.125A4.686,4.686,0,0,1,123.036,37.857Z" fill="#191919"/>
  <g id="лого_гугл_плэй" transform="translate(9.37 6.686)">
    <path id="Path_36" d="M2.446,1.736,6.137-1.956-7.491-9.716A1.908,1.908,0,0,0-9.1-9.906Z" transform="translate(9.952 10.004)" fill="#fff"/>
    <path id="Path_37" d="M-9.716-9.3A2.157,2.157,0,0,0-10-8.259V12.657a2.52,2.52,0,0,0,.284,1.136L1.83,2.246Z" transform="translate(10 9.966)" fill="#fff"/>
    <path id="Path_38" d="M2.452,3.5-9,14.952a1.74,1.74,0,0,0,1.514-.189L6.048,7.1Z" transform="translate(9.946 9.281)" fill="#fff"/>
    <path id="Path_39" d="M11.65,1.361,7.486-1.1,3.7,2.686,7.391,6.377,11.65,3.916C12.975,3.348,12.975,2.118,11.65,1.361Z" transform="translate(9.266 9.527)" fill="#fff"/>
  </g>
  <g id="доступно_в" transform="translate(39.182 6.53)">
    <path id="Path_27" d="M-9.337-2.991H-10V-4.884h.568A4.212,4.212,0,0,0-8.77-7.061L-8.675-9.9h3.786v5.016h.662v1.893h-.662v-1.23H-9.243v1.23h-.095Zm1.23-4.07A8.1,8.1,0,0,1-8.58-4.884h2.839V-9.143H-8.107v2.082Z" transform="translate(10 9.995)" fill="#fff" stroke="#fff" stroke-miterlimit="10" stroke-width="0.2"/>
    <path id="Path_28" d="M1.716-4.984a2.971,2.971,0,0,1-4.164,0A2.936,2.936,0,0,1-3.3-7.066,2.949,2.949,0,0,1-.366-10,2.949,2.949,0,0,1,2.568-7.066,2.936,2.936,0,0,1,1.716-4.984Zm-3.6-.473a2.233,2.233,0,0,0,1.514.663,1.883,1.883,0,0,0,1.514-.663,2.685,2.685,0,0,0,.663-1.609,2.076,2.076,0,0,0-.663-1.609A2.233,2.233,0,0,0-.366-9.338a1.883,1.883,0,0,0-1.514.662,2.685,2.685,0,0,0-.662,1.609A2.076,2.076,0,0,0-1.88-5.457Z" transform="translate(9.641 10)" fill="#fff" stroke="#fff" stroke-miterlimit="10" stroke-width="0.2"/>
    <path id="Path_29" d="M6.634-4.132A2.869,2.869,0,0,1,3.7-6.971v-.095A2.869,2.869,0,0,1,6.539-10h.095a2.555,2.555,0,0,1,2.082.946l-.473.473a2.022,2.022,0,0,0-1.609-.757,2.076,2.076,0,0,0-1.609.662,2.076,2.076,0,0,0-.663,1.609,2.076,2.076,0,0,0,.662,1.609,2.685,2.685,0,0,0,1.609.663,2.024,2.024,0,0,0,1.7-.852l.473.473a3.706,3.706,0,0,1-.946.757A2.62,2.62,0,0,1,6.634-4.132Z" transform="translate(9.266 10)" fill="#fff" stroke="#fff" stroke-miterlimit="10" stroke-width="0.2"/>
    <path id="Path_30" d="M12.166-4.221h-.757V-9.238H9.8V-9.9h3.88v.662H12.071l.095,5.016Z" transform="translate(8.939 9.995)" fill="#fff" stroke="#fff" stroke-miterlimit="10" stroke-width="0.2"/>
    <path id="Path_31" d="M19.143-9.9,16.966-5.168a1.518,1.518,0,0,1-1.325,1.041,1.2,1.2,0,0,1-.568-.095l.189-.663a.569.569,0,0,0,.379.095c.189,0,.284,0,.379-.095a1.306,1.306,0,0,0,.284-.379l.189-.473L14.6-9.9h.852l1.42,3.218h0L18.2-9.9Z" transform="translate(8.682 9.995)" fill="#fff" stroke="#fff" stroke-miterlimit="10" stroke-width="0.2"/>
    <path id="Path_32" d="M20.1-4.221V-9.9h4.07v5.679h-.757V-9.238h-2.65v5.016Z" transform="translate(8.388 9.995)" fill="#fff" stroke="#fff" stroke-miterlimit="10" stroke-width="0.2"/>
    <path id="Path_33" d="M25.8-4.221V-9.9h.757v2.461H29.4V-9.9h.757v5.679H29.4V-6.777H26.557v2.555Z" transform="translate(8.082 9.995)" fill="#fff" stroke="#fff" stroke-miterlimit="10" stroke-width="0.2"/>
    <path id="Path_34" d="M36.416-4.984a2.971,2.971,0,0,1-4.164,0A2.936,2.936,0,0,1,31.4-7.066,2.949,2.949,0,0,1,34.334-10a2.949,2.949,0,0,1,2.934,2.934h0A4.076,4.076,0,0,1,36.416-4.984Zm-3.691-.473a2.233,2.233,0,0,0,1.514.663,1.883,1.883,0,0,0,1.514-.663,2.685,2.685,0,0,0,.663-1.609,2.076,2.076,0,0,0-.663-1.609,2.233,2.233,0,0,0-1.514-.663,1.883,1.883,0,0,0-1.514.663A2.345,2.345,0,0,0,32.725-5.457Z" transform="translate(7.782 10)" fill="#fff" stroke="#fff" stroke-miterlimit="10" stroke-width="0.2"/>
    <path id="Path_35" d="M40.7-4.221V-9.9h2.082a1.659,1.659,0,0,1,1.609,1.609,2.227,2.227,0,0,1-.189.757.969.969,0,0,1-.568.473h0a1.7,1.7,0,0,1,.662.473,1.321,1.321,0,0,1,.284.852A1.567,1.567,0,0,1,44.107-4.6a1.993,1.993,0,0,1-1.23.473H40.7Zm.757-3.218h1.325a.859.859,0,0,0,.662-.284.734.734,0,0,0,.189-.946c0-.095-.095-.095-.189-.189a.859.859,0,0,0-.662-.284H41.457Zm0,2.555h1.514a1.018,1.018,0,0,0,.946-.946.859.859,0,0,0-.284-.662.859.859,0,0,0-.663-.284h-1.42l-.095,1.893Z" transform="translate(7.284 9.995)" fill="#fff" stroke="#fff" stroke-miterlimit="10" stroke-width="0.2"/>
  </g>
  <path id="гугл_плэй-2" d="M66.659,21.548a4,4,0,0,0-4.07,3.88v.189a4.02,4.02,0,0,0,3.975,4.07h.095a4,4,0,0,0,4.07-3.88v-.189a3.92,3.92,0,0,0-3.786-4.07Zm0,6.436a2.514,2.514,0,0,1-2.271-2.65,2.443,2.443,0,0,1,2.271-2.271,2.3,2.3,0,0,1,2.271,2.271v.189a2.343,2.343,0,0,1-2.271,2.461Zm-8.8-6.436a4,4,0,0,0-4.07,3.88v.189a4.02,4.02,0,0,0,3.975,4.07h.095a4,4,0,0,0,4.07-3.88v-.189a3.92,3.92,0,0,0-3.786-4.07Zm0,6.436a2.514,2.514,0,0,1-2.271-2.65,2.443,2.443,0,0,1,2.271-2.271,2.3,2.3,0,0,1,2.271,2.271v.189a2.343,2.343,0,0,1-2.271,2.461ZM47.352,22.779v1.7h4.07a3.533,3.533,0,0,1-.946,2.177A4.487,4.487,0,0,1,42.9,23.536v-.189A4.445,4.445,0,0,1,47.257,18.8h.095a4.8,4.8,0,0,1,3.123,1.23l1.23-1.23a5.932,5.932,0,0,0-4.259-1.7,6.246,6.246,0,0,0,0,12.493h0a5.655,5.655,0,0,0,5.868-5.773,3.883,3.883,0,0,0-.095-1.041ZM90.32,24.1a3.549,3.549,0,0,0-3.407-2.555,3.8,3.8,0,0,0-3.786,3.786v.284a4,4,0,0,0,3.88,4.07H87.1a3.969,3.969,0,0,0,3.313-1.8l-1.325-.946A2.307,2.307,0,0,1,87.1,28.079a2.207,2.207,0,0,1-1.987-1.23l5.395-2.271ZM84.83,25.429a2.292,2.292,0,0,1,2.082-2.366,1.606,1.606,0,0,1,1.514.852Zm-4.448,3.88h1.8V17.479h-1.8ZM77.543,22.4h0a3.081,3.081,0,0,0-2.177-.946,4.064,4.064,0,0,0-3.88,4.07,3.919,3.919,0,0,0,3.88,3.975h0a3.04,3.04,0,0,0,2.082-.946h.095v.568a2.2,2.2,0,0,1-1.893,2.366,2.242,2.242,0,0,1-2.271-1.42l-1.514.663a3.941,3.941,0,0,0,3.6,2.366c2.082,0,3.786-1.23,3.786-4.164V21.738h-1.7Zm-2.082,5.584a2.514,2.514,0,0,1-2.271-2.65,2.443,2.443,0,0,1,2.271-2.271,2.3,2.3,0,0,1,2.177,2.366v.095a2.321,2.321,0,0,1-2.177,2.461ZM98.554,17.479H94.295v11.83h1.8V24.861h2.461a3.691,3.691,0,0,0,0-7.382Zm.095,5.679H96.093v-4.07h2.555a2.035,2.035,0,1,1,0,4.07Zm10.884-1.7a3.123,3.123,0,0,0-3.123,1.8l1.609.663a1.591,1.591,0,0,1,1.609-.852,1.708,1.708,0,0,1,1.893,1.514v.095a3.915,3.915,0,0,0-1.8-.473c-1.7,0-3.407.946-3.407,2.65a2.773,2.773,0,0,0,2.934,2.65h0a2.584,2.584,0,0,0,2.271-1.136h.095v.946h1.7V24.766A3.582,3.582,0,0,0,109.532,21.454Zm-.189,6.53c-.568,0-1.42-.284-1.42-1.041,0-.946,1.041-1.23,1.893-1.23a3.111,3.111,0,0,1,1.609.379A2.312,2.312,0,0,1,109.343,27.984Zm9.937-6.246-1.987,5.111H117.2l-2.082-5.111h-1.893l3.123,7.193-1.8,3.975h1.8l4.827-11.168Zm-15.9,7.571h1.8V17.479h-1.8Z" transform="translate(-2.207 -0.916)" fill="#fff"/>
</svg>
