<svg xmlns="http://www.w3.org/2000/svg" width="167.708" height="30.328" viewBox="0 0 167.708 30.328">
  <g id="header-logo" transform="translate(-25 -20)">
    <g id="Group_1" data-name="Group 1" transform="translate(62.231 25)">
      <path id="Path_1" data-name="Path 1" d="M20.025,7.1c-.129,0-.263,0-.4.012a.536.536,0,0,0-.377.207.668.668,0,0,0-.17.352,2.069,2.069,0,0,0-.049.45V21.573H15.818V6.86a3.43,3.43,0,0,1,.109-.877,1.9,1.9,0,0,1,.523-.826,1.877,1.877,0,0,1,.9-.523,5.316,5.316,0,0,1,1.023-.085H28.44a5.589,5.589,0,0,1,1,.085,1.733,1.733,0,0,1,.926.523,1.807,1.807,0,0,1,.5.826,3.6,3.6,0,0,1,.109.877V21.573H27.759V8.124c0-.131,0-.267-.012-.413a.578.578,0,0,0-.182-.389.551.551,0,0,0-.389-.207c-.146-.01-.275-.012-.389-.012Z" transform="translate(-15.818 -4.549)" fill="#fff"/>
      <path id="Path_2" data-name="Path 2" d="M27.778,19.168c-.326,0-.666-.012-1.023-.036a4.151,4.151,0,0,1-1.045-.207,4.081,4.081,0,0,1-1-.5,3.336,3.336,0,0,1-.873-.887,4.749,4.749,0,0,1-.78-2.166,21.628,21.628,0,0,1-.146-2.528q0-.9.039-1.692A7.61,7.61,0,0,1,23.145,9.7,4.894,4.894,0,0,1,23.6,8.469a3.683,3.683,0,0,1,.841-1.023,3.918,3.918,0,0,1,1.179-.7,7.022,7.022,0,0,1,1.3-.352,10.356,10.356,0,0,1,1.264-.134c.406-.017.763-.024,1.072-.024a18.624,18.624,0,0,1,2.251.134,4.882,4.882,0,0,1,2.005.693,3.591,3.591,0,0,1,.911.829,3.941,3.941,0,0,1,.561,1.009,4.967,4.967,0,0,1,.277,1.142,9.46,9.46,0,0,1,.073,1.2,5.678,5.678,0,0,1-.095,1.011,1.8,1.8,0,0,1-.51.936,1.464,1.464,0,0,1-.647.389,2.856,2.856,0,0,1-.741.1H25.855c0,.275.015.591.049.948a5.631,5.631,0,0,0,.122.826,2.037,2.037,0,0,0,.413.814,1.744,1.744,0,0,0,.634.462,2.728,2.728,0,0,0,.766.209,6.713,6.713,0,0,0,.79.046h6.3v2.19Zm3.989-7.683c.275,0,.45-.083.523-.245a1.219,1.219,0,0,0,.109-.51,2.068,2.068,0,0,0-.255-1.045A2.4,2.4,0,0,0,31.572,9a2.432,2.432,0,0,0-1.181-.5,9.3,9.3,0,0,0-1.252-.088c-.194,0-.406,0-.632.012a4.642,4.642,0,0,0-.707.087,2.727,2.727,0,0,0-.717.255,2.31,2.31,0,0,0-.644.5,1.843,1.843,0,0,0-.5,1.033c-.041.365-.07.758-.085,1.181Z" transform="translate(-5.67 -2.144)" fill="#fff"/>
      <path id="Path_3" data-name="Path 3" d="M39.1,6.25v10.7h4.059a1.089,1.089,0,0,0,.267-.034.516.516,0,0,0,.267-.182.531.531,0,0,0,.112-.294c.007-.112.01-.224.01-.338V6.25h2.846V17.195a4.374,4.374,0,0,1-.061.778,1.285,1.285,0,0,1-.4.681,1.623,1.623,0,0,1-.863.425,6.889,6.889,0,0,1-.938.061H30.948a7.378,7.378,0,0,1-.96-.061,1.41,1.41,0,0,1-.839-.425,1.33,1.33,0,0,1-.389-.681,3.965,3.965,0,0,1-.075-.778V6.25h2.846V16.1c0,.114,0,.226.012.338a.516.516,0,0,0,.391.476,1.229,1.229,0,0,0,.28.034h4.037V6.25Z" transform="translate(2.589 -2.116)" fill="#fff"/>
      <path id="Path_4" data-name="Path 4" d="M36.88,19.139V6.25h2.846V19.139Zm8.83,0-4.693-5.131a5.3,5.3,0,0,1-.476-.632,1.563,1.563,0,0,1,.061-1.8c.211-.294.406-.544.583-.756l4.11-4.572h3.383l-4.89,5.206a4.957,4.957,0,0,0-.389.45.943.943,0,0,0-.219.593,1.028,1.028,0,0,0,.158.476,2.013,2.013,0,0,0,.3.425l5.5,5.739Z" transform="translate(14.312 -2.116)" fill="#fff"/>
      <path id="Path_5" data-name="Path 5" d="M50.154,6.25a4.314,4.314,0,0,1,1.531.267,3.063,3.063,0,0,1,1.142.729,3.136,3.136,0,0,1,.683,1.181,5.7,5.7,0,0,1,.265,1.859v6.689a4.754,4.754,0,0,1-.085.826,1.523,1.523,0,0,1-1.252,1.252,5.366,5.366,0,0,1-.948.085H45.339a9.411,9.411,0,0,1-1.157-.073A2.162,2.162,0,0,1,43,18.507a2.6,2.6,0,0,1-.62-.79,3.972,3.972,0,0,1-.343-.936,5.809,5.809,0,0,1-.134-.948c-.017-.309-.024-.583-.024-.829a7.774,7.774,0,0,1,.182-1.677,2.713,2.713,0,0,1,.911-1.461,2.574,2.574,0,0,1,1.23-.644,6.555,6.555,0,0,1,1.133-.109h5.593v-.9a3.364,3.364,0,0,0-.061-.608A1.348,1.348,0,0,0,50.565,9a1.249,1.249,0,0,0-.666-.462,2.852,2.852,0,0,0-.719-.1H42.833V6.25ZM46.188,13.3a2.87,2.87,0,0,0-.474.061.917.917,0,0,0-.571.377,2.046,2.046,0,0,0-.194.389,2.884,2.884,0,0,0-.122,1,5.311,5.311,0,0,0,.061.729,1.2,1.2,0,0,0,.328.7,1.422,1.422,0,0,0,.4.27,1.222,1.222,0,0,0,.523.119h3.967c.08,0,.182,0,.3-.01a.573.573,0,0,0,.328-.134.447.447,0,0,0,.168-.255,1.513,1.513,0,0,0,.027-.28V13.3Z" transform="translate(21.469 -2.116)" fill="#fff"/>
      <path id="Path_6" data-name="Path 6" d="M50.421,23.274H47.577V8.245a1.842,1.842,0,0,1,.243-1.011,2.369,2.369,0,0,1,.486-.571,1.865,1.865,0,0,1,.8-.34,4.909,4.909,0,0,1,.8-.073h4.5q.317,0,.766.036a5.188,5.188,0,0,1,.975.182,5.436,5.436,0,0,1,1.057.425,3.769,3.769,0,0,1,1,.768,4.007,4.007,0,0,1,.766,1.116,5.971,5.971,0,0,1,.416,1.242,7.441,7.441,0,0,1,.158,1.252c.015.413.024.8.024,1.157,0,.42-.01.851-.024,1.288A9.758,9.758,0,0,1,59.409,15a7.579,7.579,0,0,1-.316,1.218,4.528,4.528,0,0,1-.547,1.069,3.9,3.9,0,0,1-1.035,1.033,4.387,4.387,0,0,1-1.191.559A5.5,5.5,0,0,1,55.1,19.1c-.4.024-.761.036-1.084.036h-3.6Zm3.235-6.324a2.8,2.8,0,0,0,1.631-.4,3.017,3.017,0,0,0,.8-.79,3.364,3.364,0,0,0,.365-.975,9.464,9.464,0,0,0,.17-2.115,11.765,11.765,0,0,0-.109-1.91,4.066,4.066,0,0,0-.231-.863,2.307,2.307,0,0,0-.9-1.045A2.82,2.82,0,0,0,53.8,8.44h-2.8A.425.425,0,0,0,50.8,8.5a2.114,2.114,0,0,0-.182.109.6.6,0,0,0-.194.437v7.9Z" transform="translate(29.615 -2.116)" fill="#fff"/>
      <path id="Path_7" data-name="Path 7" d="M62.948,19.225l.1-9.168V9.814c0-.066-.049-.1-.146-.1a.217.217,0,0,0-.122.061,1.438,1.438,0,0,0-.219.28L56.891,18.35a2.638,2.638,0,0,1-.729.766,2.035,2.035,0,0,1-1.118.255,2.116,2.116,0,0,1-1-.194,1.615,1.615,0,0,1-.561-.462,1.458,1.458,0,0,1-.255-.583,3.26,3.26,0,0,1-.061-.583V6.336h2.846L55.895,15.5a1.067,1.067,0,0,0,.024.255c.017.058.073.088.17.088a.234.234,0,0,0,.2-.112c.046-.07.095-.148.143-.231l5.739-8.439a1.8,1.8,0,0,1,.853-.717,2.784,2.784,0,0,1,.9-.158,4.532,4.532,0,0,1,.462.036,1.457,1.457,0,0,1,.62.231,1.849,1.849,0,0,1,.549.583,2.145,2.145,0,0,1,.243,1.118V19.225Z" transform="translate(37.616 -2.201)" fill="#fff"/>
      <path id="Path_8" data-name="Path 8" d="M59.164,19.139V6.25H62.01V19.139Zm8.83,0-4.7-5.131a5.313,5.313,0,0,1-.474-.632,1.566,1.566,0,0,1-.255-.877,1.536,1.536,0,0,1,.316-.921c.211-.294.406-.544.583-.756l4.11-4.572h3.381l-4.888,5.206a4.6,4.6,0,0,0-.389.45.943.943,0,0,0-.219.593,1,1,0,0,0,.158.476,2.012,2.012,0,0,0,.3.425l5.5,5.739Z" transform="translate(46.191 -2.116)" fill="#fff"/>
      <path id="Path_9" data-name="Path 9" d="M74.085,19.225l.095-9.168V9.814c0-.066-.049-.1-.143-.1a.23.23,0,0,0-.124.061,1.362,1.362,0,0,0-.216.28L68.028,18.35a2.7,2.7,0,0,1-.729.766,2.041,2.041,0,0,1-1.118.255,2.12,2.12,0,0,1-1-.194,1.628,1.628,0,0,1-.559-.462,1.426,1.426,0,0,1-.255-.583,3.051,3.051,0,0,1-.061-.583V6.336h2.846L67.032,15.5a.953.953,0,0,0,.024.255c.017.058.073.088.17.088a.227.227,0,0,0,.194-.112c.049-.07.1-.148.146-.231L73.3,7.065a1.8,1.8,0,0,1,.853-.717,2.773,2.773,0,0,1,.9-.158,4.532,4.532,0,0,1,.462.036,1.48,1.48,0,0,1,.62.231,1.816,1.816,0,0,1,.547.583,2.121,2.121,0,0,1,.243,1.118V19.225Z" transform="translate(53.548 -2.201)" fill="#fff"/>
    </g>
    <g id="Group_2" data-name="Group 2" transform="translate(25 20)">
      <circle id="Ellipse_1" data-name="Ellipse 1" cx="14.709" cy="14.709" r="14.709" transform="translate(0.454 0.456)" fill="#dc3c24"/>
      <path id="Path_10" data-name="Path 10" d="M15.664,31.149A15.167,15.167,0,0,1,9.76,2.014a15.181,15.181,0,0,1,19.875,8.069A15.158,15.158,0,0,1,15.664,31.149Zm0-29.417A14.254,14.254,0,1,0,29.917,15.985,14.271,14.271,0,0,0,15.664,1.732Z" transform="translate(-0.5 -0.821)" fill="#fff"/>
      <path id="Path_11" data-name="Path 11" d="M9.09,14.877a.286.286,0,0,1,.117-.012h1c.056,0,.109,0,.165,0a.313.313,0,0,0,.173-.058l.053-.036c.182-.139.362-.28.542-.418l.063-.053a.316.316,0,0,0,.117-.243c0-.049,0-.1,0-.148l.007-2.516c0-.316.007-.634.007-.953a2.124,2.124,0,0,0-.017-.248.406.406,0,0,0-.027-.107.29.29,0,0,0-.272-.175c-.051,0-.1,0-.156,0l-1.694,0a.231.231,0,0,0-.153.049c-.148.117-.3.228-.445.345-.129.1-.258.209-.386.316-.107.087-.211.175-.318.265l-.544.457a.979.979,0,0,0-.129.117.738.738,0,0,0-.1.175.822.822,0,0,0-.039.17,4.239,4.239,0,0,0-.024.581c0,.287-.012.574,0,.86,0,.248,0,.493,0,.741a3.783,3.783,0,0,1-.063.661,1.019,1.019,0,0,1-.165.4.48.48,0,0,1-.26.187,1.475,1.475,0,0,1-.749.036.6.6,0,0,1-.4-.3.978.978,0,0,1-.119-.267,2.241,2.241,0,0,1-.088-.455c-.012-.214-.036-.428-.053-.644-.007-.063,0-.129-.007-.194,0-.085-.01-.17-.015-.258l0-.092V11.766a1.211,1.211,0,0,1,.012-.129c0-.027,0-.053,0-.083,0-.092,0-.185,0-.277a2.833,2.833,0,0,1,.027-.377c.007-.049.015-.1.017-.146a.617.617,0,0,1,.114-.3c.058-.083.126-.16.187-.243a1.765,1.765,0,0,1,.228-.238c.1-.1.214-.185.323-.275l.51-.413L7,8.9l.389-.326c.131-.109.262-.214.394-.321s.267-.226.4-.338l.554-.457c.134-.109.265-.224.4-.326A1.051,1.051,0,0,1,9.675,6.9a2.186,2.186,0,0,1,1.018.119,2.536,2.536,0,0,1,.992.627,1.821,1.821,0,0,1,.45.734,2.018,2.018,0,0,1,.063.382,5.41,5.41,0,0,1,.024.627,1.294,1.294,0,0,0,.012.238.573.573,0,0,1,0,.112V13.02a.8.8,0,0,0,.012.2.211.211,0,0,1,0,.056,1.139,1.139,0,0,1,0,.129c0,.192.015.382.024.571a1.019,1.019,0,0,0,.007.122.831.831,0,0,0,.126.333.58.58,0,0,0,.068.085,4.483,4.483,0,0,0,.457.4c.156.124.309.253.464.379l.28.228.314.258.263.219c.087.075.175.153.263.231l.258.224c.078.066.153.134.231.2.109.095.207.2.316.3.136.122.263.253.389.382a2.676,2.676,0,0,1,.4.5,1.127,1.127,0,0,1,.063.134,3.87,3.87,0,0,1,.153.406c.019.063.046.126.068.19.049.141.092.28.143.418.058.165.122.328.185.493.107.284.214.569.323.853.09.231.187.462.28.693.053.136.1.27.156.406.061.16.124.321.182.481s.119.331.177.5c.039.109.083.219.122.328s.07.2.1.306a2.089,2.089,0,0,1,.056.3,2.733,2.733,0,0,1,.012.423.921.921,0,0,1-.041.282.709.709,0,0,1-.158.28,2.389,2.389,0,0,1-.253.243,1.036,1.036,0,0,1-.425.214.839.839,0,0,1-.28.041c-.041,0-.08,0-.122,0a.91.91,0,0,1-.452-.1.869.869,0,0,1-.226-.16c-.051-.053-.1-.1-.153-.158a1.187,1.187,0,0,1-.168-.255,2.092,2.092,0,0,1-.139-.311c-.063-.185-.134-.362-.2-.544-.049-.134-.095-.267-.141-.4-.039-.107-.075-.214-.114-.321-.044-.131-.088-.263-.134-.394s-.09-.236-.131-.352c-.053-.151-.1-.3-.158-.455-.032-.085-.066-.173-.1-.258l-.158-.433-.16-.423c-.061-.16-.122-.323-.182-.481-.034-.088-.07-.173-.1-.258-.068-.17-.141-.34-.226-.506a1.035,1.035,0,0,0-.2-.275l-.092-.09c-.122-.119-.248-.231-.379-.338s-.25-.209-.377-.311-.25-.2-.377-.3-.228-.177-.343-.265l-.437-.328c-.2-.151-.408-.3-.615-.455-.267-.2-.535-.4-.8-.6-.134-.1-.265-.209-.4-.314-.066-.051-.131-.1-.2-.153s-.114-.092-.17-.141L9.4,15.341a1.432,1.432,0,0,1-.263-.318A.36.36,0,0,1,9.09,14.877Zm-4.5,8.886c.007.049.017.1.022.146a.9.9,0,0,0,.1.3.651.651,0,0,0,.143.2,1.645,1.645,0,0,0,.42.3.926.926,0,0,0,.484.1,2.622,2.622,0,0,0,.272-.039,1.078,1.078,0,0,0,.571-.321c.073-.08.143-.16.211-.245a3.661,3.661,0,0,0,.28-.389q.707-1.145,1.415-2.287.766-1.243,1.534-2.484c.26-.42.518-.839.773-1.261.063-.1.119-.207.175-.314a.161.161,0,0,0-.053-.219l-.029-.022L9.787,16.4l-.423-.314a.283.283,0,0,0-.2-.061.185.185,0,0,0-.146.063.919.919,0,0,0-.075.095q-.623,1-1.244,1.991-.613.973-1.22,1.949Q5.67,21.414,4.86,22.7a2.017,2.017,0,0,0-.2.406.93.93,0,0,0-.053.177c-.019.107-.029.214-.041.316C4.574,23.661,4.579,23.712,4.586,23.763Zm5.583-9.348V11.078c0-.024,0-.051,0-.075l-.007-.049a.178.178,0,0,0-.1-.015q-.813,0-1.626,0a.213.213,0,0,0-.151.053c-.153.131-.311.255-.464.384-.073.061-.148.122-.219.185a.527.527,0,0,0-.187.309A1.169,1.169,0,0,0,7.393,12c0,.073-.007.148-.007.221,0,.6,0,1.2,0,1.8a3.082,3.082,0,0,1-.029.45.08.08,0,0,0,0,.07c.095.015,1.915.019,2.73.007l.083,0Zm5.862-.333a.84.84,0,0,0-.1-.4,1.634,1.634,0,0,0-.27-.362c-.092-.095-.187-.185-.289-.272-.126-.109-.26-.214-.391-.321s-.233-.19-.35-.287-.2-.173-.3-.258c-.158-.131-.318-.263-.474-.4-.1-.088-.2-.177-.309-.267-.08-.07-.16-.141-.243-.209s-.19-.148-.287-.219a.209.209,0,0,0-.163-.046.116.116,0,0,0-.119.126v.046c0,.605,0,1.208,0,1.813a.979.979,0,0,0,.007.119.455.455,0,0,0,.112.267,3.177,3.177,0,0,0,.311.289c.095.073.19.148.282.224.131.107.258.219.389.326s.272.221.408.333a2.323,2.323,0,0,0,.343.248,1.288,1.288,0,0,0,.52.17,1.342,1.342,0,0,0,.3,0,.512.512,0,0,0,.282-.124,1.008,1.008,0,0,0,.163-.175.849.849,0,0,0,.19-.537ZM8.737,5.014l.01.044A1.95,1.95,0,0,0,9.9,6.428a2.017,2.017,0,0,0,.753.163,1.659,1.659,0,0,0,.45-.051,1.954,1.954,0,0,0,1.412-1.189,1.934,1.934,0,0,0,.129-1.043.492.492,0,0,0-.046-.18.293.293,0,0,0-.046,0l-.173.022-.484.07-.44.063c-.151.022-.3.041-.455.066s-.3.049-.455.085c-.2.051-.4.107-.6.168-.384.119-.763.241-1.145.36a.336.336,0,0,0-.053.024ZM8.73,4.7c.51-.156,1.018-.311,1.529-.464a3.406,3.406,0,0,1,.467-.1c.136-.017.27-.039.4-.058l.464-.068c.143-.022.287-.041.43-.061.185-.029.372-.061.557-.085a3.186,3.186,0,0,0,.62-.143,2.407,2.407,0,0,0,.309-.124c.228-.119.455-.245.681-.369l.039-.027a.026.026,0,0,0-.01-.039.094.094,0,0,0-.036,0l-.248.022-.3.029-.294.022c-.168.017-.338.034-.506.049-.061.007-.122.015-.185.017-.041,0-.085,0-.131,0-.024-.044-.051-.09-.073-.136a1.5,1.5,0,0,0-.26-.379,1.067,1.067,0,0,0-.309-.233,1.755,1.755,0,0,0-.656-.175c-.073,0-.146,0-.221,0a2.714,2.714,0,0,0-.42.046,2.82,2.82,0,0,0-.727.233c-.066.032-.129.063-.19.1a2.213,2.213,0,0,0-.639.481,1.274,1.274,0,0,0-.25.4,2.273,2.273,0,0,0-.151.6,2.508,2.508,0,0,0-.015.331.821.821,0,0,0,.029.175ZM3.774,11.076v3.412l.01.056.049,0c.034,0,.068,0,.1,0,.275,0,.549,0,.824,0,.029,0,.061.01.09-.017l-.015-.126c-.034-.226-.058-.455-.07-.681-.007-.124-.015-.245-.024-.369a6.76,6.76,0,0,1-.022-.7c0-.1,0-.2,0-.3,0-.452,0-.9.029-1.359a.292.292,0,0,0-.007-.049c-.085-.015-.617-.019-.892-.01a.581.581,0,0,0-.075.01Zm6.767,3.34c.124-.092.245-.187.367-.282l.044-.034a.129.129,0,0,0,.056-.1c0-.044,0-.09,0-.136V11.2l0-.129v-.581a.132.132,0,0,0-.015-.08c-.034,0-.051.024-.07.041l-.4.355c-.092.085-.078.056-.078.182q0,1.593,0,3.189v.231a.631.631,0,0,0,.01.068Zm-1.735-3.75h1.359a.429.429,0,0,1,.056,0,.1.1,0,0,0,.075-.029c.131-.119.265-.238.4-.357l.017-.034a.259.259,0,0,0-.1-.01c-.43,0-.863,0-1.293,0H9.284a.112.112,0,0,0-.085.027c-.151.119-.3.236-.452.352a.4.4,0,0,0-.039.044A.2.2,0,0,0,8.805,10.665ZM4.778,10.2a.235.235,0,0,0-.146.044l-.423.262-.19.117c-.01.007-.027.015-.019.041.085.01.173,0,.262,0H4.52a1.69,1.69,0,0,0,.27-.01A1.253,1.253,0,0,1,5,10.2C4.911,10.2,4.846,10.2,4.778,10.2Z" transform="translate(4.184 1.388)" fill="#fff"/>
    </g>
  </g>
</svg>
