<svg width="36" height="36" viewBox="0 0 36 36" fill="none" xmlns="http://www.w3.org/2000/svg">
<rect x="1" y="1" width="34" height="34" rx="17" fill="white"/>
<path d="M26 19.2188L18 13.0156L10 19.2188V16.6875L18 10.4844L26 16.6875V19.2188ZM24 19V25H20V21H16V25H12V19L18 14.5L24 19Z" fill="#F7B236"/>
<path d="M23.8945 13.9091L23.9854 11.4091L21.8718 12.75L21.3263 11.7955L23.5536 10.6364L21.3263 9.47727L21.8718 8.52273L23.9854 9.86364L23.8945 7.36364H24.9854L24.8945 9.86364L27.0081 8.52273L27.5536 9.47727L25.3263 10.6364L27.5536 11.7955L27.0081 12.75L24.8945 11.4091L24.9854 13.9091H23.8945Z" fill="#F7B236"/>
<rect x="1" y="1" width="34" height="34" rx="17" stroke="#F7B236" stroke-width="2"/>
</svg>
