<svg width="12" height="11" viewBox="0 0 12 11" fill="none" xmlns="http://www.w3.org/2000/svg">
<path id="&#208;&#184;&#208;&#189;&#209;&#132;&#208;&#190;" d="M11.32 5.42C11.32 4.34803 11.0021 3.30013 10.4065 2.40881C9.81099 1.5175 8.9645 0.822802 7.97413 0.412575C6.98375 0.00234841 5.89397 -0.104986 4.84259 0.104146C3.79122 0.313278 2.82546 0.829483 2.06746 1.58748C1.30946 2.34548 0.793259 3.31124 0.584127 4.36261C0.374995 5.41399 0.482329 6.50377 0.892556 7.49415C1.30278 8.48452 1.99748 9.33101 2.88879 9.92657C3.78011 10.5221 4.82801 10.84 5.89998 10.84C7.33746 10.84 8.71605 10.269 9.7325 9.25252C10.7489 8.23607 11.32 6.85748 11.32 5.42ZM6.02284 2.46339C6.14468 2.46339 6.2638 2.49952 6.36511 2.56722C6.46642 2.63491 6.54538 2.73113 6.59201 2.8437C6.63864 2.95628 6.65084 3.08015 6.62707 3.19966C6.6033 3.31916 6.54463 3.42894 6.45847 3.5151C6.37231 3.60125 6.26253 3.65993 6.14303 3.6837C6.02352 3.70747 5.89965 3.69527 5.78708 3.64864C5.6745 3.60201 5.57829 3.52305 5.51059 3.42174C5.4429 3.32043 5.40676 3.20131 5.40676 3.07947C5.40676 2.91607 5.47167 2.75937 5.58721 2.64384C5.70274 2.5283 5.85944 2.46339 6.02284 2.46339ZM4.66784 8.13H5.40676V4.68108H4.66784V4.18786H6.63891V8.13H7.37784V8.62232H4.66784V8.13Z" fill="#C9CED2"/>
</svg>
