<svg width="14" height="21" viewBox="0 0 14 21" fill="none" xmlns="http://www.w3.org/2000/svg">
<path id="map" d="M13.9985 7.77976C13.9985 5.97402 13.2812 4.24223 12.0043 2.96538C10.7275 1.68852 8.99567 0.971191 7.18992 0.971191C5.38417 0.971191 3.65239 1.68852 2.37553 2.96538C1.09868 4.24223 0.381348 5.97402 0.381348 7.77976C0.381348 13.1226 7.18992 21.0286 7.18992 21.0286C7.18992 21.0286 13.9985 13.0976 13.9985 7.77976ZM3.83425 7.37614C3.8287 6.7107 4.02096 6.05862 4.38662 5.50263C4.75228 4.94664 5.27487 4.5118 5.88807 4.2533C6.50127 3.99479 7.17743 3.92427 7.83078 4.05069C8.48412 4.1771 9.08518 4.49475 9.5577 4.96333C10.0302 5.43191 10.3529 6.03029 10.4848 6.68255C10.6166 7.33482 10.5518 8.01155 10.2984 8.62689C10.0451 9.24223 9.61461 9.76844 9.06169 10.1387C8.50878 10.509 7.85833 10.7068 7.19287 10.7068C6.75349 10.7091 6.31797 10.6248 5.91119 10.4587C5.5044 10.2926 5.13434 10.048 4.82215 9.73884C4.50996 9.42966 4.26177 9.06199 4.09175 8.65683C3.92173 8.25168 3.83323 7.81699 3.8313 7.37761L3.83425 7.37614Z" fill="#4B4B4B"/>
</svg>
