<?xml version="1.0" encoding="utf-8"?>
<!-- Generator: Adobe Illustrator 24.3.0, SVG Export Plug-In . SVG Version: 6.00 Build 0)  -->
<svg version="1.1" id="иллюстрация_1" xmlns="http://www.w3.org/2000/svg" xmlns:xlink="http://www.w3.org/1999/xlink"
	 x="0px" y="0px" viewBox="0 0 2294.4 6102.8" style="enable-background:new 0 0 2294.4 6102.8;" xml:space="preserve">
<style type="text/css">
	.st0{fill:#DC3C24;}
	.st1{fill:#F2F2F2;}
	.st2{fill:#16110D;}
</style>
<g id="Path_13286_1_">
	<path class="st0" d="M2285.2,5611.6c0,0-0.9,51.1-19.9,179.3c-19,128.3-95.6,221.3-228,281.8c-132.4,60.5-295.4-31.2-295.4-31.2
		l-180.2-86.6l42.6-448.2l1.5-15.7l324.4,165.1c8,4.2,18.4,3.1,26.8-2.7c8.5-5.8,13.8-15.4,13.7-25l-13.3-3795.8
		c2.2-4.9,4.5-9.9,6.8-15.1c2.4-5.2,4.6-10.2,6.8-15.1c12.6-27.6,23.1-49.6,31.9-67.3l-32.3-49.2l-13.8-21.1l-0.3-73.9
		c-0.1-31.4-15.8-58.4-42-72l-81.6-42.7l-16.6-25.2l-106.3-161.8c-31.8,29.2-62.1,51.2-87.6,60.4c-3.4,1.2-6.8,2.3-10,3
		c-3.5,0.8-7.4,1.6-11.5,2.3L129.8,585.6l0,0c-7.2-3.8-16.4-3-24,2.3c-7.7,5.1-12.4,13.7-12.4,22.4l0,58.9l-13.8-6L9.3,632.7
		l11.5-270.9c0,0,37.1-165.5,182.3-273.2C321.6,0.7,417.9-10,522.8,35c104.9,44.9,204.3,98.9,204.3,98.9l1054.6,519.3L2035,783.4
		c154.8,79.6,248,239,247.9,424.1l-0.2,503.5L2285.2,5611.6z"/>
</g>
<g id="Path_13287_1_">
	<path d="M1712.6,1275.2l-8.2,7.5c-38,34.8-69.3,55.3-92.9,60.9c-0.1,0-0.2,0.1-0.4,0.1c-6.8,1.6-14.8,2.9-23.9,4.1l13.7,7.2
		l12.7,6.6c6-1.4,12.3-3.7,19-6.6c21.5-9.5,46.5-26.9,74.8-51.9l91,138.5l17.9,9.4l17.8,9.3L1712.6,1275.2z M1834.2,1460.4
		l-121.6-185.1l-8.2,7.5c-38,34.8-69.3,55.3-92.9,60.9c-0.1,0-0.2,0.1-0.4,0.1c-6.8,1.6-14.8,2.9-23.9,4.1l13.7,7.2l12.7,6.6
		c6-1.4,12.3-3.7,19-6.6c21.5-9.5,46.5-26.9,74.8-51.9l91,138.5l16.6,25.2l18,9.4l17.8,9.3L1834.2,1460.4z M2292,1709.7l0.2-503.5
		c0.2-101.3-27.3-196.9-79.4-276.4C2169.4,864,2110.4,811,2040.1,775l-253.3-130.2L732,125.3c-0.7-0.4-100.7-54.5-204.7-99.1
		c-111.7-47.8-213.2-30.9-329,55.1C51.5,190.3,13.3,354,11.8,361l-0.2,1.7L-0.2,639.2l4.8,2.1l74.9,32.5l13.8,6v-21.2l-13.8-6
		l-60.9-26.4L30,361.8l0,0C33,349.4,73,195.9,207.8,95.9c8.6-6.4,17.1-12.2,25.5-17.8C292.5,51.3,382.9,29.9,505,84
		C654.2,150.1,1739.8,690,1952.6,795.6c46.2,22.6,87.7,52.8,122.9,89.6c47.5,50.2,88.4,114.5,67,198.4
		c-40.4,159-261.9,251.8-261.9,251.8l-2.8,147.8l-0.3,16.4l37,19.4c26.1,13.6,41.9,40.7,42,72l0.3,73.9l0.1,18.1l13.8,21.1
		l21.6,32.9c-6.7,13.7-13.9,28.7-21.4,44.8c-4.4,9.5-9,19.5-13.6,29.8l0.1,21l13.3,3795.8c0.1,9.6-5.2,19.3-13.7,25
		c-8.4,5.9-18.8,6.9-26.8,2.7l-131.4-66.9l-0.3,16.3l-8.6,447.3c-14.7-5.7-28.9-12.3-42.7-19.6l-175.7-84.6l41.6-437.5l1.5-15.7
		l-8.7-4.4l-8.7-4.4l-1.5,15.7l-43.6,458.8l185,89c6.4,3.6,167.9,92.8,303,31.1c136.2-62.2,215-159.8,234.3-290.1
		c18.9-127.4,20-178.4,20-180.5L2292,1709.7z M1613.6,1361.6c6-1.4,12.3-3.7,19-6.6c21.5-9.5,46.5-26.9,74.8-51.9l91,138.5
		l16.6,25.2l18,9.4l17.8,9.3l-16.6-25.2l-121.6-185.1l-8.2,7.5c-38,34.8-69.3,55.3-92.9,60.9c-0.1,0-0.2,0.1-0.4,0.1
		c-6.8,1.6-14.8,2.9-23.9,4.1l13.7,7.2L1613.6,1361.6z"/>
</g>
<g id="Path_13288_1_">
	<path class="st0" d="M1797.9,975.6L363.2,237.8c-191.1-89.7-354,38.8-354,205l1.7,4415.8c0.1,188.2,95.1,350.2,252.6,431
		L1700.8,6026c102.7,52.6,240.3,4.3,307.4-107.9c23.6-39.5,36.2-83.4,36.2-126.6l1.5-4391.9
		C2045.9,1214.6,1952.7,1055.1,1797.9,975.6z M1957.1,5653.3c-8.4,5.9-18.8,6.9-26.8,2.7l-324.4-165.1L130.5,4739.7
		c-23.8-12.1-38.2-36.5-38.1-64.9l1-4005.7l0-58.9c-0.1-8.6,4.7-17.3,12.4-22.4c7.6-5.2,16.9-6.1,24-2.3l0,0L1601,1355l232,121.3
		l81.6,42.7c26.1,13.6,41.9,40.7,42,72l0.3,73.9l0.6,167.7l13.3,3795.8C1970.8,5637.9,1965.6,5647.6,1957.1,5653.3z"/>
</g>
<g id="Path_13289_1_">
	<path class="st1" d="M1831.5,949.3L396.8,211.6c-191.1-89.8-354,38.8-354,205l1.8,4415.8c0.1,188.2,95,350.2,252.6,430.9
		l1437.2,736.4c102.7,52.6,240.3,4.3,307.4-107.9c23.6-39.4,36.2-83.4,36.2-126.6l1.5-4391.9
		C2079.5,1188.4,1986.3,1028.9,1831.5,949.3z M1957.1,5653.3c-8.4,5.9-18.8,6.9-26.8,2.7L130.5,4739.7
		c-23.8-12.1-38.2-36.5-38.1-64.9l1-4064.6c-0.1-8.6,4.7-17.3,12.4-22.4c7.6-5.2,16.9-6.1,24-2.3l0,0L1914.5,1519
		c26.1,13.6,41.9,40.7,42,72l14.2,4037.3C1970.8,5637.9,1965.6,5647.6,1957.1,5653.3z"/>
</g>
<g id="Path_13290_1_">
	<path class="st2" d="M2055,1398.4l-1.5,4391.9c0.7,85-46.1,170-121.3,220.5c-74.5,51.6-165.7,60.7-236.6,23.6L258.5,5298
		C98.1,5216.3,1.5,5051.4,1.7,4860L0,444.1c0-81.4,38.4-157.1,102.7-202.3c74.4-52.2,171.1-56.8,265.5-12.4L1803,967.2
		c70.3,36.1,129.3,89,172.6,154.9C2027.7,1201.6,2055.2,1297.1,2055,1398.4z M18.4,441.5l1.7,4415.8
		c-0.2,185.2,93.3,344.7,248.4,423.8l1437.3,736.4c65.2,34.2,149.1,25.8,217.7-21.7c69.2-46.5,112.2-124.7,111.6-202.9l1.4-4391.9
		c0.4-182.1-91.3-339-243.8-417L358.4,246.4c-88.4-41.5-178.3-37.8-246.7,10.2C53.3,297.8,18.4,366.8,18.4,441.5l-9.2,1.3
		L18.4,441.5z"/>
</g>
<g id="Group_10023_1_" transform="translate(34.757 21.328)">
	<g id="Path_13292_1_">
		<path d="M1799.4,1439l-17.8-9.3l-17.9-9.4l-165.7-86.7c-6.7,3-13,5.2-19,6.6l201.3,105.3l18,9.4l17.8,9.3L1799.4,1439z
			 M1763.7,1420.3l-165.7-86.7c-6.7,3-13,5.2-19,6.6l201.3,105.3L1763.7,1420.3z M1936.3,1781.1l-0.1-20.7l-0.3-77.7l-0.1-18
			l-0.3-97c-0.1-19.4-5.4-37.7-15.4-53c-8.2-12.5-19.4-22.7-32.7-29.7l-44.3-23.2l-43.7-22.8l-17.8-9.3l-17.9-9.4l-165.7-86.7
			l-10.2-5.4l-11.3-5.9L102.7,551.7c-11.4-6.1-26.1-4.7-38.2,3.6c-12.2,8.1-19.8,21.9-19.7,35.6l0,40.4v21.2l-1,4003
			c-0.1,33.1,16.6,61.5,44.3,75.6l1472.8,749.9l8.7,4.4l8.7,4.4l185.5,94.4l124.1,63.2c12.3,6.4,28.1,4.8,41-4.2
			c13-8.8,21.1-23.5,20.9-38.2L1936.3,1781.1z M1922.3,5632c-8.4,5.9-18.8,6.9-26.8,2.7l-131.4-66.9l-184.3-93.8l-8.7-4.4l-8.7-4.4
			L95.7,4718.4c-23.8-12.1-38.2-36.5-38.1-64.9l1-3995.1v-21.2l0-48.3c-0.1-8.6,4.7-17.3,12.4-22.4c7.6-5.2,16.9-6.1,24-2.3l0,0
			l1457.4,762.2l13.7,7.2l12.7,6.6l201.3,105.3l18,9.4l17.8,9.3l26.8,14l37,19.4c26.1,13.6,41.9,40.7,42,72l0.3,73.9l0.1,18.1
			l0.5,128.6l0.1,21L1936,5607C1936.1,5616.6,1930.8,5626.3,1922.3,5632z M1763.7,1420.3l-165.7-86.7c-6.7,3-13,5.2-19,6.6
			l201.3,105.3L1763.7,1420.3z"/>
	</g>
</g>
<g id="Path_13293_1_">
	<path d="M1958.5,5667.7c-11.9,6.2-25.2,6.6-35.8,1.1L123,4752.3c-27.7-14.1-44.4-42.5-44.3-75.6l1-4064.6c0-11,4.8-22.1,13.3-30.4
		c8.5-8.3,19.7-12.9,30.6-12.5c3,0.1,5.6,1.6,7.2,4c1.2,1.8,1.7,3.9,1.6,6.2c-0.3,4.9-0.5,13.2-0.5,14.7l-1.1,4052.2
		c-0.1,28.4,14.3,52.8,38.1,64.9l1799.8,916.4c2.8,1.4,5.9,2.1,9.2,2.2l7.3,0.4l-2,7.5C1979.5,5650.5,1970.4,5661.6,1958.5,5667.7z"
		/>
</g>
<g id="Group_10031_1_" transform="translate(0 37.039)">
	<g id="Path_13294_1_">
		<path class="st0" d="M2200.6,1569.1l-0.6-76.2c-0.1-22.1-18-27-40.1-11.1l0,0c-22.5,16.8-37.3,42.3-39.7,68.9l0.6,76.2
			c0.1,22.1,18,27,40.1,11.1l0,0C2183.4,1621.2,2198.1,1595.7,2200.6,1569.1z"/>
	</g>
	<g id="Group_10026_1_">
		<g id="Path_13295_1_">
			<path class="st1" d="M2120.5,1550.5c2.5-26.5,17.2-52.1,39.7-68.9c4.7-3.2,9.8-5.6,15-7.1c0.9,2.7,1.4,5.6,1.3,8.5l0.6,76.2
				c-2.5,26.5-17.2,52.1-39.7,68.9c-4.6,3.4-9.6,6-14.8,7.8c-1-2.9-1.5-6-1.6-9.2L2120.5,1550.5z"/>
		</g>
		<g id="Path_13296_1_">
			<path class="st2" d="M2180.1,1472.1c1.1,3.2,1.7,6.5,1.6,10l0.6,76.2c-2.4,28.4-18.1,55.9-42.4,73.7c-5.1,3.8-10.6,6.7-16.5,8.6
				l-4.4,1.4l-1.3-4.1c-1.2-3.4-1.7-7-1.7-10.7l-0.6-76.2l0,0c2.3-28.4,18.1-55.8,42.3-73.7c5.2-3.6,10.8-6.3,16.7-8l4.4-1.4
				L2180.1,1472.1z M2126.3,1625.9c0,1.1,0.1,2.1,0.2,3.2c3-1.4,5.8-3.1,8.5-5.1c21-15.6,34.8-39.4,37.2-64.1l-0.6-76.2
				c0-1,0-1.9-0.1-2.7c-3,1.1-5.9,2.7-8.6,4.6c-21,15.6-34.8,39.4-37.2,64.1L2126.3,1625.9z"/>
		</g>
	</g>
	<g id="Group_10027_1_" transform="translate(9.693 2.729)">
		<g id="Path_13297_1_">
			<path class="st1" d="M2226.6,1574.8L2226.6,1574.8c-0.1-22.1-18-27-40.1-11.1l0,0c-22.5,16.8-37.3,42.3-39.7,68.9l0,0
				c0.1,22.1,18,27,40.1,11.1l0,0C2209.4,1626.9,2224.1,1601.4,2226.6,1574.8z"/>
		</g>
	</g>
	<g id="Group_10028_1_" transform="translate(9.106 2.136)">
		<g id="Path_13298_1_">
			<path class="st2" d="M2233.3,1574.6L2233.3,1574.6c-2.3,28.8-18.3,56.6-42.8,74.7c-10.6,9.1-24.4,12.6-36.4,8.9
				c-8.7-4.3-13.7-13.5-12.9-24c2.4-28.8,18.3-56.6,42.8-74.6c10.6-9.1,24.4-12.6,36.4-9c3.6,1.6,6.7,4.2,8.8,7.5
				C2232,1562.9,2233.4,1568.6,2233.3,1574.6z M2160.2,1646.6c8.2,1.7,17.2-1,24.1-7.2c20.6-15.5,34.2-38.8,36.7-63.2l0,0
				c0.6-6-2-11.4-6.7-14.3c-8.2-1.8-17.2,0.9-24.1,7.2c-20.6,15.5-34.2,38.8-36.7,63.2c-0.1,3.8,0.7,7.4,2.5,10.6
				C2157,1644.6,2158.4,1645.9,2160.2,1646.6z"/>
		</g>
	</g>
	<g id="Group_10030_1_" transform="translate(6.29 0.089)">
		<g id="Group_10029_1_">
			<g id="Path_13299_1_">
				<path class="st0" d="M2190.7,1566.8c-22.5,16.8-37.3,42.3-39.7,68.9c-0.6,7.7,2.8,14.7,8.9,18.4l-0.1,0.1l-27.3-8
					c-1-0.3-2-0.6-3-1l-2.2-0.9l-1.8-0.7c-6.3-3.3-9.5-10.4-8.3-18c2.5-26.5,17.2-52.1,39.7-68.9c8-6.8,18.1-10,27.6-8.8l-1.5-0.3
					l1.8,0.3c0.3,0.1,2.2,0.7,2.4,0.7l30.4,9.2C2208.3,1557,2198.5,1560.2,2190.7,1566.8z"/>
			</g>
			<g id="Path_13300_1_">
				<path class="st2" d="M2215.8,1564c-7.6-0.5-15.6,2.2-21.9,7.6c-20.6,15.5-34.2,38.8-36.7,63.2c-0.4,5.7,1.9,10.8,6.2,13.7l5.4,3
					l-6.9,9.9l-31.2-9.1c-1.4-0.3-2.7-0.7-3.9-1.3l-4.2-1.6c-8.1-4.2-12.5-13.1-11.4-22.9c2.3-28.8,18.3-56.6,42.8-74.6
					c9.4-7.7,21.1-11.4,32.1-10.1l1,0.2c0.3,0.1,2.7,0.8,2.8,0.8l30.4,9.2L2215.8,1564z M2182.6,1554l-1.3-0.2
					c-7.4-0.2-15,2.6-21.2,7.8c-20.6,15.5-34.2,38.8-36.7,63.2c0.1,10.1,2.6,12,5,13.1l4.2,1.6c0.8,0.3,1.6,0.6,2.4,0.8l10.5,3.1
					c-0.4-2.2-0.6-4.5-0.6-6.7c2.4-28.8,18.3-56.5,42.8-74.6c2.2-1.6,4.4-3,6.8-4.4l-9.8-3L2182.6,1554L2182.6,1554z"/>
			</g>
		</g>
	</g>
</g>
<g id="Group_10037_1_" transform="translate(18.358 18.441)">
	<g id="Group_10033_1_">
		<g id="Group_10032_1_">
			<g id="Path_13301_1_">
				<path class="st0" d="M2184.7,1737c-22.5,16.8-37.3,42.4-39.7,68.9l1,228.7c-0.8,8.7,3.5,16.4,11.1,19.5l-36.1-11.8l-3.4-1.2
					c-8.9-2.3-14.4-10.5-13.5-20.1l-1-228.7c2.5-26.5,17.2-52.1,39.7-68.9c7.1-6.8,16.5-10.2,25.5-9.3l2.1,0.4l0.2,0.1
					c0.4,0.1,0.7,0.2,1.1,0.4l41.3,13.3C2203.3,1726.7,2192.9,1730,2184.7,1737z"/>
			</g>
			<g id="Path_13302_1_">
				<path class="st2" d="M2210.6,1734.2c-7.9-0.9-16.2,1.9-22.8,7.6c-20.6,15.5-34.2,38.8-36.7,63.2l1,228.7
					c-0.7,6.3,2.3,11.9,7.6,14.4l0,0l-5.2,11.8l0,0l0,0l-39.2-12.8c-11.2-2.8-18.3-13.1-17.3-25.2l-1-228.7
					c2.4-28.8,18.3-56.5,42.8-74.6c8.7-7.9,20-11.8,30.6-10.5l45.2,14.3L2210.6,1734.2z M2112.5,2030.1c1.8,2.6,4.5,4.4,7.7,5.1
					l20.2,6.6c-0.3-2.1-0.5-4.2-0.5-6.3l-1-228.7c2.4-28.8,18.3-56.5,42.8-74.6c2.4-1.7,4.9-3.3,7.5-4.8l-20.9-6.7l-2.1-0.5
					c-4.9-1.1-10.7,1.2-20.3,8.1c-20.6,15.5-34.2,38.8-36.7,63.2l1,228.7C2110,2023.7,2110.8,2027.1,2112.5,2030.1L2112.5,2030.1z"
					/>
			</g>
		</g>
	</g>
	<g id="Group_10035_1_" transform="translate(4.276 3.064)">
		<g id="Group_10034_1_">
			<g id="Path_13303_1_">
				<path class="st1" d="M2221.5,1973.7l-1-228.7c-0.1-22.1-18-27-40.1-11.1l0,0c-22.5,16.8-37.3,42.4-39.7,68.9l1,228.7
					c0.1,22.1,18,27,40.1,11.1l0,0C2204.3,2025.8,2219,2000.2,2221.5,1973.7z"/>
			</g>
		</g>
	</g>
	<g id="Group_10036_1_" transform="translate(3.687 2.474)">
		<g id="Path_13304_1_">
			<path class="st2" d="M2227.2,1744.7l1,228.7c-2.4,28.8-18.3,56.6-42.8,74.6c-10.6,9.1-24.4,12.6-36.4,9
				c-8.7-4.3-13.7-13.6-12.9-24l-1-228.7c2.4-28.8,18.3-56.5,42.8-74.6c10.6-9.1,24.4-12.6,36.4-8.9c3.6,1.6,6.7,4.2,8.7,7.5
				C2225.9,1733,2227.3,1738.7,2227.2,1744.7z M2155.1,2045.5c8.2,1.8,17.3-0.9,24.1-7.2c20.6-15.5,34.2-38.8,36.7-63.2l-1-228.7
				c0.6-6-2-11.4-6.7-14.3c-8.2-1.7-17.2,0.9-24.1,7.2c-20.6,15.5-34.2,38.8-36.7,63.2l1,228.7c-0.1,3.8,0.7,7.4,2.5,10.5
				C2151.9,2043.4,2153.4,2044.7,2155.1,2045.5z"/>
		</g>
	</g>
</g>
<g id="Group_10043_1_" transform="translate(49.076 0)">
	<g id="Group_10039_1_">
		<g id="Group_10038_1_">
			<g id="Path_13305_1_">
				<path class="st0" d="M2154.1,2127.9c-22.5,16.8-37.3,42.4-39.7,68.9l1,228.7c-0.9,8.7,3.5,16.4,11.1,19.5l-36.1-11.8l-3.4-1.1
					c-8.9-2.3-14.4-10.5-13.5-20.1l-1-228.7c2.5-26.5,17.2-52.1,39.7-68.9c7.1-6.8,16.6-10.2,25.5-9.3l2.1,0.4l0.2,0.1
					c0.4,0.1,0.7,0.2,1.1,0.4l41.3,13.3C2172.7,2117.7,2162.3,2120.9,2154.1,2127.9z"/>
			</g>
			<g id="Path_13306_1_">
				<path class="st2" d="M2180,2125.1c-7.9-0.9-16.2,1.9-22.8,7.6c-20.6,15.5-34.2,38.8-36.7,63.2l1,228.7
					c-0.7,6.3,2.3,11.9,7.6,14.4l0,0l-5.2,11.8l0,0l0,0l-39.2-12.8c-11.2-2.8-18.3-13.1-17.3-25.2l-1-228.7
					c2.4-28.8,18.3-56.5,42.8-74.6c8.7-7.9,20-11.8,30.6-10.5l45.2,14.3L2180,2125.1z M2082,2421c1.8,2.6,4.5,4.4,7.7,5.1l20.2,6.6
					c-0.3-2.1-0.5-4.2-0.5-6.3l-1-228.7c2.4-28.8,18.3-56.5,42.8-74.6c2.4-1.7,4.9-3.3,7.5-4.8l-20.9-6.7l-2.1-0.5
					c-4.9-1.1-10.7,1.2-20.3,8.1c-20.6,15.5-34.2,38.8-36.7,63.2l1,228.7C2079.4,2414.6,2080.3,2418.1,2082,2421L2082,2421z"/>
			</g>
		</g>
	</g>
	<g id="Group_10041_1_" transform="translate(4.276 3.065)">
		<g id="Group_10040_1_">
			<g id="Path_13307_1_">
				<path class="st1" d="M2190.9,2364.6l-1-228.7c-0.1-22.1-18-27-40.1-11.1l0,0c-22.5,16.8-37.3,42.4-39.7,68.9l1,228.7
					c0.1,22.1,18,27,40.1,11.1l0,0C2173.7,2416.7,2188.5,2391.2,2190.9,2364.6z"/>
			</g>
		</g>
	</g>
	<g id="Group_10042_1_" transform="translate(3.687 2.474)">
		<g id="Path_13308_1_">
			<path class="st2" d="M2196.6,2135.6l1,228.7c-2.4,28.8-18.3,56.6-42.8,74.6c-10.6,9.1-24.4,12.6-36.4,9
				c-8.7-4.3-13.7-13.6-12.9-24l-1-228.7c2.4-28.8,18.3-56.5,42.8-74.6c10.6-9.1,24.4-12.5,36.4-8.9c3.6,1.6,6.7,4.2,8.7,7.5
				C2195.3,2123.9,2196.8,2129.6,2196.6,2135.6z M2120.3,2432.7c1,1.6,2.5,2.9,4.2,3.7c8.2,1.8,17.3-0.9,24.1-7.2
				c20.6-15.5,34.2-38.8,36.7-63.2l-1-228.7c0.6-6-2-11.4-6.7-14.3c-8.2-1.7-17.2,0.9-24.1,7.2c-20.6,15.5-34.2,38.8-36.7,63.2
				l1,228.7C2117.7,2425.9,2118.6,2429.6,2120.3,2432.7L2120.3,2432.7z"/>
		</g>
	</g>
</g>
<path class="st0" d="M878.4,744.7l-0.2,13.7c0.2,15.5,8.1,28.9,21.1,35.6l363.8,186.7c6.2,2,13.7-1.7,16.6-8.4
	c0.7-1.5,1.1-3.2,1.1-4.8l0.6-13.2c-0.4-15.3-8.2-28.4-21-35L899.5,730.3c-6.2-3.3-14.6-0.4-18.7,6.4
	C879.2,739.2,878.4,742,878.4,744.7z"/>
<path class="st2" d="M1270.1,967.4l-0.6,13.2l-0.2,1.4c-1.4,7.6-6,14.7-12.7,19.3c-5.8,3.5-12.5,4.3-18.1,2.1L873.7,816.4
	c-15.7-8-25.2-24.1-25.3-42.8l0.2-13.6c-0.1-8.4,4.5-16.7,11.9-21.8c7.4-5.1,16.4-6,23.4-2.3l361.2,188.9
	c6.9,3.6,12.7,8.8,16.9,15.3C1267.2,948,1270,957.4,1270.1,967.4z M883.8,799.5l363.3,186.4c0.5,0.1,1.2,0.3,1.5,0.1
	c1.3-1.2,2.2-2.8,2.6-4.5l0.6-11.7c-0.3-12.3-6.6-22.8-16.8-28.2L873.8,752.7c-1.3-0.7-3-0.6-4.4,0.4c-1.4,0.9-2.3,2.5-2.3,4.1
	l-0.2,13.7c0.1,6.7,1.9,12.9,5.3,18.2C875.1,793.6,879.1,797.1,883.8,799.5z"/>
<path class="st0" d="M834.5,749.7c11.1-8.2,11.3-28.3,0.4-44.8c-10.9-16.5-28.6-23.3-39.7-15s-11.3,28.3-0.4,44.8
	S823.5,757.9,834.5,749.7z"/>
<path class="st2" d="M818.6,770.9c-15.7,11.6-38.7,4.4-52.4-16.4c-13.7-20.9-12.1-46.3,3.5-57.9s38.7-4.4,52.4,16.4
	C835.9,733.8,834.3,759.3,818.6,770.9z M782.1,742.8c8.4,12.8,21.5,17.8,27.1,13.7c5.6-4.2,5.7-19-2.7-31.8
	c-8.4-12.8-21.5-17.9-27.1-13.7C773.7,715.2,773.7,730,782.1,742.8L782.1,742.8z"/>
</svg>
