<svg id="newspaper" xmlns="http://www.w3.org/2000/svg" width="16.49" height="18.933" viewBox="0 0 16.49 18.933">
  <path id="Path_96" data-name="Path 96" d="M15.269,6.107V3.054H14.047V0H0V17.406a1.529,1.529,0,0,0,1.527,1.527H14.963a1.529,1.529,0,0,0,1.527-1.527V6.107ZM1.527,18.322a.917.917,0,0,1-.916-.916V.611H13.436v16.8a1.519,1.519,0,0,0,.306.916Zm14.353-.916a.916.916,0,0,1-1.832,0V3.664h.611V16.49h.611V6.718h.611Zm0,0" fill="#495057"/>
  <path id="Path_97" data-name="Path 97" d="M384,448h.611v.611H384Zm0,0" transform="translate(-369.342 -430.899)" fill="#495057"/>
  <path id="Path_98" data-name="Path 98" d="M149,275.73l-1.03-.294v-.082a1.528,1.528,0,0,0,.611-1.215v-.558a1.567,1.567,0,0,0-1.378-1.572,1.526,1.526,0,0,0-1.676,1.52v.611a1.528,1.528,0,0,0,.611,1.215v.082l-1.03.294A1.534,1.534,0,0,0,144,277.2v.911h6.107V277.2A1.534,1.534,0,0,0,149,275.73Zm.5,1.768h-4.886v-.3a.92.92,0,0,1,.664-.881l1.473-.421v-.881l-.152-.088a.906.906,0,0,1-.459-.788v-.611a.916.916,0,0,1,1.007-.912.953.953,0,0,1,.825.965v.558a.906.906,0,0,1-.459.788l-.152.088v.881l1.473.421a.92.92,0,0,1,.665.881Zm0,0" transform="translate(-138.503 -261.619)" fill="#495057"/>
  <path id="Path_99" data-name="Path 99" d="M112,248.55h8.55V240H112Zm.611-7.94h7.329v7.329h-7.329Zm0,0" transform="translate(-107.725 -230.839)" fill="#495057"/>
  <path id="Path_100" data-name="Path 100" d="M35.664,39.329A3.664,3.664,0,1,0,32,35.664,3.669,3.669,0,0,0,35.664,39.329Zm0-.611A3.057,3.057,0,0,1,32.872,36.9a1.512,1.512,0,0,1,.975.437l.063.063a1.385,1.385,0,0,0,2.364-.979v-.295a1.07,1.07,0,0,0-1.069-1.069.459.459,0,0,1-.458-.458v-.458a2.143,2.143,0,0,0-.393-1.228,3.022,3.022,0,0,1,1.024-.285,1.711,1.711,0,0,0-.02.208,1.741,1.741,0,0,0,.657,1.366l.52.416a.928.928,0,0,1,.35.728,1.545,1.545,0,0,0,1.543,1.543l.034,0A3.057,3.057,0,0,1,35.664,38.718Zm3.054-3.054a3.058,3.058,0,0,1-.058.59,1.489,1.489,0,0,1-.231.02.933.933,0,0,1-.932-.932,1.535,1.535,0,0,0-.579-1.2l-.52-.416a1.132,1.132,0,0,1-.427-.889,1.058,1.058,0,0,1,.02-.2A3.058,3.058,0,0,1,38.718,35.664Zm-4.884-2.439a1.535,1.535,0,0,1,.3.912V34.6a1.07,1.07,0,0,0,1.069,1.069.459.459,0,0,1,.458.458v.295a.774.774,0,0,1-1.322.548L34.28,36.9a2.124,2.124,0,0,0-1.512-.626.692.692,0,0,1-.1-.009,3.042,3.042,0,0,1,1.164-3.041Zm0,0" transform="translate(-30.779 -30.779)" fill="#495057"/>
  <path id="Path_101" data-name="Path 101" d="M240,32h3.664v.611H240Zm0,0" transform="translate(-230.839 -30.779)" fill="#495057"/>
  <path id="Path_102" data-name="Path 102" d="M240,64h.611v.611H240Zm0,0" transform="translate(-230.839 -61.557)" fill="#495057"/>
  <path id="Path_103" data-name="Path 103" d="M272,64h2.443v.611H272Zm0,0" transform="translate(-261.617 -61.557)" fill="#495057"/>
  <path id="Path_104" data-name="Path 104" d="M240,96h3.664v.611H240Zm0,0" transform="translate(-230.839 -92.336)" fill="#495057"/>
  <path id="Path_105" data-name="Path 105" d="M240,128h3.664v.611H240Zm0,0" transform="translate(-230.839 -123.114)" fill="#495057"/>
  <path id="Path_106" data-name="Path 106" d="M240,160h2.443v.611H240Zm0,0" transform="translate(-230.839 -153.893)" fill="#495057"/>
  <path id="Path_107" data-name="Path 107" d="M320,160h.611v.611H320Zm0,0" transform="translate(-307.785 -153.893)" fill="#495057"/>
  <path id="Path_108" data-name="Path 108" d="M32,440h2.443v.611H32Zm0,0" transform="translate(-30.779 -423.204)" fill="#495057"/>
  <path id="Path_109" data-name="Path 109" d="M32,408h2.443v.611H32Zm0,0" transform="translate(-30.779 -392.426)" fill="#495057"/>
  <path id="Path_110" data-name="Path 110" d="M32,376h2.443v.611H32Zm0,0" transform="translate(-30.779 -361.647)" fill="#495057"/>
  <path id="Path_111" data-name="Path 111" d="M32,344h2.443v.611H32Zm0,0" transform="translate(-30.779 -330.869)" fill="#495057"/>
  <path id="Path_112" data-name="Path 112" d="M32,312h2.443v.611H32Zm0,0" transform="translate(-30.779 -300.09)" fill="#495057"/>
</svg>
