<svg id="pencil" xmlns="http://www.w3.org/2000/svg" width="16.002" height="16.002" viewBox="0 0 16.002 16.002">
  <g id="Group_3898" data-name="Group 3898">
    <path id="Path_127" data-name="Path 127" d="M8,0a8,8,0,1,0,8,8A8,8,0,0,0,8,0Zm3.8,5.758-.76.76L9.5,4.971l-.587.587L10.458,7.1,6.664,10.9,5.117,9.352l-.587.587,1.547,1.547-.378.378-.007-.007a.3.3,0,0,1-.191.137l-1.442.322a.3.3,0,0,1-.358-.358l.321-1.442a.3.3,0,0,1,.138-.191l-.007-.007,6.106-6.106a.23.23,0,0,1,.324,0l1.223,1.222A.229.229,0,0,1,11.805,5.758Z" transform="translate(-0.001)" fill="#d1d7db"/>
  </g>
</svg>
