<svg width="76" height="80" viewBox="0 0 76 80" fill="none" xmlns="http://www.w3.org/2000/svg">
<path d="M27.514 76.637C31.489 78.863 35.404 79.981 39.051 79.981C42.104 79.98 44.969 79.196 47.519 77.622L56.918 71.824C57.257 71.615 57.499 71.281 57.591 70.893C57.683 70.506 57.616 70.098 57.407 69.759L49.26 56.555C49.051 56.217 48.716 55.975 48.329 55.883C47.939 55.792 47.533 55.858 47.195 56.067L37.725 61.912C36.269 62.81 34.401 63.097 32.604 62.702C30.807 62.306 29.273 61.264 28.395 59.84L15.524 38.981C13.663 35.965 14.601 31.997 17.615 30.136C17.615 30.136 17.616 30.136 17.616 30.135L27.445 24.067C28.15 23.632 28.368 22.708 27.933 22.003L19.785 8.802C19.35 8.097 18.425 7.876 17.721 8.313L7.89999 14.375C-3.04601 21.131 -2.66201 38.866 8.83599 57.504C14.107 66.05 20.741 72.845 27.514 76.637ZM9.47699 16.927L18.021 11.654L24.594 22.302L16.041 27.582C16.039 27.583 16.038 27.584 16.037 27.585C11.619 30.316 10.243 36.133 12.972 40.555L25.843 61.413C27.144 63.524 29.374 65.061 31.96 65.631C34.511 66.19 37.188 65.767 39.301 64.463L47.494 59.406L54.066 70.056L45.943 75.067C40.011 78.727 33.444 76.517 28.98 74.018C22.645 70.47 16.397 64.046 11.389 55.928C0.818992 38.794 0.0329905 22.756 9.47699 16.927Z" fill="#DC3C24"/>
<path d="M37.58 24.552C42.434 24.839 46.73 27.333 49.368 31.396C51.89 35.268 52.497 40.013 51.032 44.415C50.77 45.201 51.195 46.051 51.981 46.311C52.138 46.364 52.297 46.388 52.455 46.388C53.084 46.388 53.669 45.991 53.878 45.362C55.634 40.088 54.906 34.4 51.883 29.76C48.769 24.962 43.487 21.895 37.757 21.556C36.922 21.521 36.22 22.138 36.171 22.965C36.122 23.793 36.753 24.503 37.58 24.552Z" fill="#DC3C24"/>
<path d="M39.68 13.418C47.54 14.321 54.517 18.634 58.822 25.249C62.993 31.662 64.175 39.558 62.064 46.913C61.835 47.71 62.295 48.54 63.091 48.768C63.23 48.808 63.368 48.827 63.506 48.827C64.157 48.827 64.758 48.398 64.946 47.741C67.297 39.55 65.981 30.755 61.336 23.613C56.542 16.246 48.774 11.444 40.022 10.438C39.215 10.343 38.456 10.934 38.361 11.757C38.266 12.58 38.856 13.323 39.68 13.418Z" fill="#DC3C24"/>
<path d="M41.731 3.61201C52.17 5.06301 61.452 10.963 67.198 19.8C72.827 28.447 74.515 39.127 71.831 49.101C71.615 49.901 72.09 50.724 72.89 50.939C73.02 50.974 73.152 50.991 73.281 50.991C73.942 50.991 74.549 50.551 74.728 49.881C77.634 39.085 75.806 27.524 69.713 18.164C63.493 8.59901 53.445 2.21201 42.146 0.641006C41.329 0.532006 40.567 1.09901 40.454 1.92001C40.339 2.74001 40.911 3.49801 41.731 3.61201Z" fill="#DC3C24"/>
<path d="M18 10L5.5 18L1 27L2.5 39L8.5 54.5L16.5 65L27.5 75L39 79L56.5 70.5L47.5 57.5L36 64L29.5 63L13 39L15 30.5L26 22.5L18 10Z" fill="#DC3C24" stroke="#DC3C24"/>
</svg>
