<svg id="Layer_1" data-name="Layer 1" xmlns="http://www.w3.org/2000/svg" viewBox="0 0 800 600"><defs><style>.cls-1{fill:#fff;stroke:#020000;stroke-linecap:round;stroke-linejoin:round;stroke-width:17px;}</style></defs><polygon class="cls-1" points="371.95 322.77 191.98 218.87 370.83 115.61 550.8 219.52 371.95 322.77"/><polygon class="cls-1" points="371.95 484.39 191.98 373.97 191.98 219.19 371.95 323.1 371.95 484.39"/><polygon class="cls-1" points="550.8 382.31 370.83 484.39 370.83 323.1 550.8 219.19 550.8 382.31"/><line class="cls-1" x1="281.96" y1="270.82" x2="460.81" y2="167.57"/><path class="cls-1" d="M550.8,299.36c-.62,0-1.22,0-1.83,0-42,1.21-68,46.31-49.15,83.8l51,101.2,51-101.2c18.88-37.49-7.19-82.59-49.15-83.8C552,299.37,551.41,299.36,550.8,299.36Z"/><circle class="cls-1" cx="550.8" cy="353.44" r="24.31"/></svg>