<svg id="Layer_1" data-name="Layer 1" xmlns="http://www.w3.org/2000/svg" viewBox="0 0 1076.94 453.96"><defs><style>.cls-1{fill:#e4f9f7;}.cls-2{fill:#d27558;}.cls-3{fill:#f49f80;}.cls-4{fill:#dc3c24;}.cls-5{fill:#282a29;}.cls-6{fill:#83ccca;}.cls-7{fill:#191919;}.cls-8{fill:#333;}.cls-9{fill:#424242;}.cls-10{fill:#222323;}.cls-11,.cls-12,.cls-13,.cls-14,.cls-15,.cls-16,.cls-18,.cls-20,.cls-21,.cls-22{fill:none;stroke-miterlimit:10;}.cls-11{stroke:#d27558;stroke-width:1.57px;}.cls-11,.cls-13,.cls-14,.cls-15,.cls-16,.cls-21{stroke-linecap:round;}.cls-12,.cls-18,.cls-22{stroke:#83ccca;}.cls-12{stroke-width:1.18px;}.cls-13{stroke:#a02222;}.cls-13,.cls-14{stroke-width:2.85px;}.cls-14{stroke:#598e8b;}.cls-15{stroke:#282a29;stroke-width:3px;}.cls-16{stroke:#ffe09c;stroke-width:2.15px;}.cls-17{fill:#ffe09c;}.cls-18{stroke-width:1.05px;}.cls-19{fill:#a02222;}.cls-20,.cls-21{stroke:#bde7f4;stroke-width:0.9px;}.cls-22{stroke-width:1.06px;}</style></defs><path class="cls-1" d="M979.88,35.28c124,73.88,120.46,249.46-15,334-141.19,88.12-303.14,61.33-427.7-7.94-181.95-101.19-245.07,14.55-415.08-9.72C.91,334.37-39.63,149.15,81.23,77.47c147.69-87.6,292.52,94.52,380.7,85.27S790.81-77.39,979.88,35.28Z"/><path class="cls-2" d="M769.73,304.85S751.15,422,724.64,422c-31.72,0-26.54-24.59-31.47-110.83C688.06,221.73,762,253,769.73,304.85Z"/><path class="cls-3" d="M871.15,170a40.93,40.93,0,0,1-5.84,13.32c-18.37,26.84-63.65,16.14-57.12,1.6a59.35,59.35,0,0,0,5.37-24,35.25,35.25,0,0,0-.4-5.81s17.64-26.35,32.18-44.5a80.2,80.2,0,0,1,18.37.91C864.34,136.25,871.15,170,871.15,170Z"/><path class="cls-2" d="M871.15,170a40.93,40.93,0,0,1-5.84,13.32c-1-1.51-1.72-4-2.16-7.88-3.87-33.48-49.59-14.54-49.59-14.54a95.93,95.93,0,0,0-1-10.39s18.25-21.77,32.79-39.92c6.12-.4,16.33-14.61,22.2-13.61C868.17,121.72,871.15,170,871.15,170Z"/><path class="cls-4" d="M757.69,186.47C773.64,181.55,780,338.22,780,338.22s-57.16,21.82-88.63,4.43C691.32,342.65,671,213.24,757.69,186.47Z"/><path class="cls-5" d="M793.1,71.49s-.56,10.68-5.93,11-8.62-17.68-10-23.61C776.05,54.25,793.1,71.49,793.1,71.49Z"/><path class="cls-6" d="M813,168.58s5.55,39.54,58.16,1.45c0,0,13.94-.06,51.09,18.94,0,0,16,212.11,12.66,256.83H734.49s-8.81-239.39,23.2-259.33C781.18,171.84,813,168.58,813,168.58Z"/><path class="cls-3" d="M977,321.3c-.06,2.36-.19,4.84-.38,7.41-4,52.19-13.81,77.31-26.81,88.8-8.45,7.51-18.25,9.24-28.7,8.92-15-.47-17.77-37.49-17.37-69.55.19-13.91.95-26.91,1.57-35.58Z"/><path class="cls-2" d="M977,321.3c-.06,2.36-.19,4.84-.38,7.41-4,52.19-13.81,77.31-26.81,88.8h0c8.34-44.8-41.49-69.29-41.49-69.29-4.21-.44-3.63-18.25-3-26.92Z"/><path class="cls-3" d="M786.37,69.92s1.57,24.87.09,40.53c-1.36,14.32,4.71,40.53,27.67,43.25,21,2.49,49.5-14,50.39-38.71s4.18-39.47-8.18-51.32S792.81,44.5,786.37,69.92Z"/><path class="cls-5" d="M799.49,77.3c-9.82-.52-18.62-6.66-21.7-16-1.38-4.19-1.58-8.88,1.19-13.31,7.66-12.26,31.4-7.4,39.57,0,0,0-8.26-5.85-1.16-9.7,10.35-5.62,45.78,3.83,50.15,18.64s10.26,46.43,3.61,45-22-26.66-38.84-26.66C820.44,75.32,809.88,77.85,799.49,77.3Z"/><path class="cls-4" d="M922.24,189c-10.64-1-24.61,154.14-24.61,154.14s51.23,28.32,82.7,10.93C980.33,354,1008.08,196.93,922.24,189Z"/><path class="cls-3" d="M858.62,94a7.53,7.53,0,0,1,1.54-4.23c3.43-4.41,12.11-13.47,16.09,2,2.22,8.66-1.22,14.16-5.73,17.6a7.67,7.67,0,0,1-12.36-6.44Z"/><path class="cls-3" d="M746.61,243c-13.66,6-2,29.54-8.48,45.15h0c-20.37,31.84-40,92-37,117.15.78,6.64,4.82,11.85,9.25,13.58,21.26,8.35,31.68-.79,44.27-20.73,21.2-33.57,31.66-114.3,13.57-129h0A10,10,0,0,0,760.6,267a14.09,14.09,0,0,0-6,2.41c-.25-4.21-.28-8.16.93-10.21,3.11-5.31,28.25,1.58,31.16-4.56S760.27,237,746.61,243Z"/><path class="cls-2" d="M754.63,398.17C742,418.11,728.7,428.58,710.27,419.1a19.52,19.52,0,0,1-3.18-2.24c21.59,16.46,48.41-37.38,57.62-67.48,9.44-30.83,3.46-80.17,3.46-80.17h0C786.29,283.87,775.83,364.6,754.63,398.17Z"/><path class="cls-2" d="M746.36,248.84c-1.22,3.64.71,40.81,6.94,41.79s11.46-38.8,6.83-41.79S746.36,248.84,746.36,248.84Z"/><path class="cls-3" d="M800.9,257.78c18.77,10.12,14,19.4,23.36,30.39S792.34,274.92,793,271,800.9,257.78,800.9,257.78Z"/><path class="cls-2" d="M802.19,262.57s5.2,4.66,3,7.27-12.44-7.42-9.34-8.67S802.19,262.57,802.19,262.57Z"/><path class="cls-7" d="M808.23,299l-11.56-69.63a7.87,7.87,0,0,0-9-6.48l-32.38,5.38a7.77,7.77,0,0,0-3.24,1.37v0l-2.79,1.69.82.35a7.85,7.85,0,0,0-1.25,5.67l11.56,69.63a7.87,7.87,0,0,0,9,6.48L801.76,308A7.86,7.86,0,0,0,808.23,299Z"/><rect class="cls-8" x="750.74" y="227.12" width="48.56" height="86.32" rx="7.87" transform="matrix(0.99, -0.16, 0.16, 0.99, -33.8, 130.58)"/><circle class="cls-9" cx="784.08" cy="233.75" r="4.55"/><circle class="cls-10" cx="784.08" cy="233.75" r="3.11"/><path class="cls-3" d="M894.68,338.92c-27.57-16.64-45.12-28.76-57.31-35.7h0c-7.28-6.72-23-31.59-47.54-42.77s-27.94-8.42-28.92-7c-1.13,1.57.32,3.58,3.08,5.78-5-2.1-9-2.82-10.33-.41-1.57,3,.78,6.6,5.53,10.46-4.56-2-8.11-3-9.11-1.38-2.95,4.8,3.23,9.92,10.11,14.44-4.36-1.66-8.13-2.32-9.33-.28-4.86,8.45,38.69,37.59,62.33,46.76l4.53,6.28c22.16,39.28,75,96.27,108.2,92.82,9.61-1,16.17-5,19.56-11C955.35,399.62,939,365.64,894.68,338.92ZM789,274.33s-1.86-1.38-4.71-3.33C786.79,272.41,788.58,273.54,789,274.33Z"/><path class="cls-11" d="M764.5,259.72s19.15,9.85,24.53,14.61"/><path class="cls-11" d="M759.09,269.22a76.75,76.75,0,0,1,23.11,13.59"/><path class="cls-11" d="M760.13,282.27s8.68,3,21.48,11.81"/><path class="cls-11" d="M763.94,253.54s5,.15,3.51,3.34"/><path class="cls-11" d="M758,259.18s6.45.72,3.58,6.78"/><path class="cls-11" d="M753.39,269.22s6.29,1.94,3.5,6.14"/><path class="cls-11" d="M755.5,282.81s4.1.79,3.17,4.31"/><path class="cls-2" d="M950.64,404.53c10.64,13-14.16,22.09-24.5,23.5-32.85,4.47-85.59-52.93-108-92.2a16,16,0,0,0-1-1.51h0a24,24,0,0,0-9.57-7.89c-24.32-11-61.65-36.42-56.76-44.41,0,0-3.1,12.06,52.17,37.74,42.62,19.81,57.8,82.78,100.69,97.75C922.75,424.17,952.17,428,950.64,404.53Z"/><line class="cls-12" x1="704.81" y1="446.16" x2="973.5" y2="446.16"/><path class="cls-13" d="M966.72,272.66s-6.93,35.7-47.1,49.9"/><path class="cls-13" d="M950.44,276s-.13,13.65-10.11,24"/><path class="cls-14" d="M804,173.7s12.12,51.81,76.19,3.88"/><path class="cls-15" d="M811.76,92.92s6.87,9.9,3.62,16.34c-2.37,4.67-5.75,9.68,2,10.21"/><path class="cls-15" d="M815.38,128.67s10,1.76,14.83-6.19"/><path class="cls-15" d="M826.48,87s6.63-2.71,17.48-.19"/><path class="cls-15" d="M808.41,87.24s-8.62-3.62-17.24-1.21"/><circle class="cls-5" cx="798.89" cy="96.12" r="3.48"/><path class="cls-15" d="M829.38,94.18s4.69-2.14,12.3-.59"/><path class="cls-15" d="M805.4,94.18s-4.69-2.14-12.3-.59"/><circle class="cls-5" cx="835.79" cy="96.12" r="3.48"/><line class="cls-15" x1="865.59" y1="101.98" x2="871.15" y2="94.18"/><path class="cls-6" d="M585.05,130.5a107.52,107.52,0,0,1-28.81,73.37c-1.84,2-3.73,3.86-5.71,5.67-.9.86-1.8,1.67-2.7,2.44a102.67,102.67,0,0,1-10.69,8.16A108,108,0,0,1,407.79,213l-6.19-5.67a107.8,107.8,0,1,1,183.45-76.8Z"/><path class="cls-5" d="M556.24,203.87c-1.84,2-3.73,3.86-5.71,5.67-.9.86-1.8,1.67-2.7,2.44l-10.69,8.16A106.82,106.82,0,0,1,510,233.24c-10.95-3.31-21.64-7.35-29.33-6.87-8.37.51-20.86,4.72-33.35,7.68A106.89,106.89,0,0,1,407.79,213l-6.19-5.67c-2-30.73,19.07-63.45,20.83-92.6,0-.64.08-1.24.08-1.89.09-2-.28-9.25-.41-11.22,0,0,2.22,4.48,5.52,3.28a11.46,11.46,0,0,1,1.25-.43c1.33-.51,2.87-1,4.55-1.63a.51.51,0,0,0,.25-.09c.69-.21,1.38-.47,2.15-.73,6.18-2.06,14.12-4.55,22.75-6.82h.05c12.19-3.26,25.76-6.1,38.08-6.83.38,0,.81,0,1.2-.08.64-.05,1.29-.05,1.93-.09,9.1-.26,17.3.69,23.44,3.65a18.92,18.92,0,0,1,4.64,3.05,7.42,7.42,0,0,1,1.67,1.59,15.23,15.23,0,0,1,3.26,5.06,20.42,20.42,0,0,1,1.34,5.37,25.74,25.74,0,0,1,.21,4.08c0,.6,0,1.16,0,1.76v0C534,152.74,556.41,175.41,556.24,203.87Z"/><path class="cls-5" d="M424.85,113.43c-5.46-19.7-17.53-81.57,37.75-70.92,0,0,86.78-30.27,71.67,65.15Z"/><path class="cls-3" d="M547.83,212c.9-.77,1.8-1.58,2.7-2.44-1.33-1.16-2.66-2.28-4-3.35a82.3,82.3,0,0,0-18.21-11,51.31,51.31,0,0,0-4.93-1.93c-1-.35-1.89-.65-2.84-.91a19,19,0,0,0-2.06-.55c-.94-.3-1.84-.52-2.79-.73-1.33-.3-2.66-.52-4-.73s-2.66-.39-4-.52a26.47,26.47,0,0,0-2.66-.21,9.17,9.17,0,0,1-1.2-.22c-.3-.9-.64-1.89-.94-2.92-.18-.51-.3-1-.43-1.54s-.26-1.08-.43-1.63c-.26-1-.52-2-.73-3.09a16,16,0,0,1-.3-1.59c-.13-.56-.22-1.12-.3-1.68a8.3,8.3,0,0,1-.18-.86c0-.3-.08-.6-.12-.85-.13-.61-.22-1.21-.3-1.81-.18-1.24-.35-2.49-.48-3.82-.25-1.72-.38-3.56-.51-5.45,0-.6-.13-1.2-.13-1.8a.09.09,0,0,1,0-.13,9.15,9.15,0,0,1-.09-1,7.87,7.87,0,0,1,0-1c0-1.25-.09-2.49-.13-3.78-.08-1.93-.08-3.91-.08-6v-.86c0-.81,0-1.63,0-2.49v-1.46c.08-2.79.08-5.32,0-7.68v-.65c-.9-29.32-11.59-28.76-22.45-20.17a58.79,58.79,0,0,0-5.37,4.8,140.3,140.3,0,0,0-11.59,13.53,3.26,3.26,0,0,1-.43.6c-1.33,1.76-2.53,3.43-3.56,4.89-2,2.88-3.18,4.68-3.18,4.68s.26,1.68.56,4.47a31,31,0,0,1,.34,3.09c.13.69.17,1.5.26,2.23s.08,1.59.17,2.45.17,1.76.21,2.7.13,1.89.18,2.88c0,.43,0,.86,0,1.29.08,1.59.13,3.22.17,4.89,0,.43,0,.86,0,1.25V172c.05,3.34-.08,6.82-.25,10.3-.18,2.36-.39,4.72-.65,7.08-1.8.26-3.52.52-5.24.86a73,73,0,0,0-14.46,4.51A74.45,74.45,0,0,0,407.79,213a107.66,107.66,0,0,0,129.35,7.17Z"/><path class="cls-2" d="M547.83,212c-.52-1.84-1-3.77-1.33-5.75a84,84,0,0,0-18.21-11c-1.63-.69-3.26-1.33-4.93-1.93-1-.35-1.89-.65-2.84-.91a19,19,0,0,0-2.06-.55c-.94-.3-1.84-.52-2.79-.73-1.33-.3-2.66-.52-4-.73s-2.66-.39-4-.52a26.47,26.47,0,0,0-2.66-.21,9.17,9.17,0,0,1-1.2-.22c-.3-.9-.64-1.89-.94-2.92-.18-.51-.3-1-.43-1.54s-.3-1.08-.48-1.63c-.21-1-.47-2-.68-3.09a16,16,0,0,1-.3-1.59c-.13-.56-.26-1.12-.35-1.68-.08-.3-.08-.6-.13-.86s-.08-.6-.12-.85c-.13-.61-.22-1.21-.3-1.81-.18-1.24-.35-2.49-.48-3.82-.25-1.72-.38-3.56-.51-5.45,0-.6-.13-1.2-.13-1.8a.09.09,0,0,1,0-.13,9.15,9.15,0,0,1-.09-1c0-.3,0-.65-.08-1,0-1.25-.05-2.49-.09-3.78-.08-1.93-.08-3.91-.08-6v-.86c0-.81,0-1.63,0-2.49a139.91,139.91,0,0,0-20.39.05c-11.12.85-19.88,1.28-25.63,3a31,31,0,0,1,.34,3.09c.13.69.17,1.5.26,2.23s.08,1.59.17,2.45.17,1.76.21,2.7.13,1.89.18,2.88c0,.43,0,.86,0,1.29.08,1.59.13,3.22.17,4.89,0,.43,0,.86,0,1.25V172S487,173.86,488.5,196.4a15.66,15.66,0,0,1,.08,2c-.21,17.21,31.26,23.86,48.56,21.76Z"/><path class="cls-3" d="M438.47,78.38s2.52,28.75,0,43.42,14.18,41.59,38,43.34c18,1.33,42.32-20.63,43.05-40,.95-25.61,4.33-40.92-8.48-53.2S445.14,52,438.47,78.38Z"/><path class="cls-5" d="M526.43,107.1c-17.14-.54-22-7.37-24.68-14.75a25.66,25.66,0,0,0-7.26-11,22.68,22.68,0,0,1,3.91,9c-4.69-6.5-9.63-5.56-20.56-14s-10.94-27-10.94-27a13.7,13.7,0,0,0,2.31-.67,45.74,45.74,0,0,1,7.64-1C527.17,45.06,531.44,80.8,526.43,107.1Z"/><path class="cls-3" d="M516.8,106.7a7.53,7.53,0,0,1,1.54-4.23c3.43-4.41,12.11-13.47,16.09,2,2.22,8.65-1.22,14.15-5.73,17.59a7.67,7.67,0,0,1-12.36-6.43Z"/><path class="cls-5" d="M466.9,49.35C473.2,50.46,469,72.72,455,77.62c0,0,2.93-2,2-4.9,0,0,.68,2-4.65,6.12-17.38,13.39-13.2,23.7-24.55,27.65,0,0-2.46-26.11,12.31-42.82S463.38,48.73,466.9,49.35Z"/><path class="cls-3" d="M441.28,106.7a7.54,7.54,0,0,0-1.55-4.23c-3.42-4.41-12.11-13.47-16.08,2-2.23,8.65,1.21,14.15,5.72,17.59a7.67,7.67,0,0,0,12.37-6.43Z"/><path class="cls-16" d="M436.89,125a7,7,0,1,1-7-7"/><path class="cls-16" d="M518.75,125a7,7,0,1,0,7-7"/><path class="cls-17" d="M547.83,212c.9-.77,1.8-1.58,2.7-2.44-1.33-1.16-2.66-2.28-4-3.35a82.3,82.3,0,0,0-18.21-11,51.31,51.31,0,0,0-4.93-1.93c-1-.35-1.89-.65-2.84-.91a19,19,0,0,0-2.06-.55c-.94-.3-1.84-.52-2.79-.73-1.33-.3-2.66-.52-4-.73s-2.66-.39-4-.52a26.47,26.47,0,0,0-2.66-.21,9.17,9.17,0,0,1-1.2-.22,34.38,34.38,0,0,1-15.28,7c-17.82,3.26-35.38-7-35.38-7-1.8.26-3.52.52-5.24.86a73,73,0,0,0-14.46,4.51A74.45,74.45,0,0,0,407.79,213a107.66,107.66,0,0,0,129.35,7.17Z"/><path class="cls-18" d="M585.05,130.5a107.52,107.52,0,0,1-28.81,73.37c-1.84,2-3.73,3.86-5.71,5.67-.9.86-1.8,1.67-2.7,2.44a102.67,102.67,0,0,1-10.69,8.16A108,108,0,0,1,407.79,213l-6.19-5.67a107.8,107.8,0,1,1,183.45-76.8Z"/><path class="cls-15" d="M468.9,106.33s7.31,10.52,3.85,17.36c-2.52,5-6.11,10.29,2.14,10.86"/><path class="cls-15" d="M472.75,144.33s10.64,1.87,15.76-6.57"/><path class="cls-15" d="M484.55,100s7.05-2.89,18.59-.2"/><path class="cls-15" d="M465.34,100.28S456.18,96.43,447,99"/><circle class="cls-5" cx="455.22" cy="109.73" r="3.7"/><path class="cls-15" d="M487.63,107.66s5-2.27,13.08-.62"/><path class="cls-15" d="M462.14,107.66s-5-2.27-13.07-.62"/><circle class="cls-5" cx="494.45" cy="109.73" r="3.7"/><line class="cls-15" x1="429.92" y1="106.49" x2="436.89" y2="116.77"/><line class="cls-15" x1="528.03" y1="106.49" x2="521.06" y2="116.77"/><path class="cls-6" d="M284.57,275.35A114.18,114.18,0,1,1,170.41,161.2,113.57,113.57,0,0,1,284.57,275.35Z"/><path class="cls-19" d="M153.2,314.94c-7.77-.69-26.75-1.5-28.12,2.45s-.64,13.59,43.48,17.8c0,0,41.07-3.34,45.43-15s-44.62-2.8-44.62-2.8Z"/><path class="cls-3" d="M246,351.11a103.48,103.48,0,0,1-19.55,17.64,105.69,105.69,0,0,1-54.78,18.82l-5.54.2h-.34A105.91,105.91,0,0,1,134.12,383l-.1,0-.14,0-24-11a103,103,0,0,1-17-13.07c7.58-10.76,18.18-21.12,32.88-27.37A72.66,72.66,0,0,1,140,327c1.7-.33,3.37-.6,5.11-.83.27-2.31.5-4.61.64-6.95.2-3.38.3-6.79.26-10.06V308c0-.37,0-.8,0-1.2,0-2.11-.13-4.11-.23-6.05,0-1-.07-1.91-.17-2.84s-.1-1.77-.2-2.64-.1-1.61-.17-2.37-.13-1.51-.23-2.21c-.1-1.1-.2-2.1-.34-3-.3-2.74-.56-4.34-.56-4.34s1.17-1.81,3.1-4.61c1-1.41,2.18-3,3.51-4.78a3.24,3.24,0,0,0,.4-.57,133.94,133.94,0,0,1,11.33-13.23c12.2-12.17,26.17-18.42,27.21,15v.64c.1,2.31.1,4.78,0,7.52v1.4c0,.84,0,1.64,0,2.44v.84c0,2,0,4,.1,5.88,0,1.24.07,2.47.1,3.67s.17,2.61.27,3.88c.13,1.84.27,3.64.5,5.35.13,1.27.3,2.5.47,3.71.1.6.17,1.17.3,1.77a15.21,15.21,0,0,0,.27,1.67c.36,2.21.83,4.31,1.3,6.25.3,1.07.57,2.07.87,3.11s.6,1.94.9,2.84a7.73,7.73,0,0,0,1.2.2,22.47,22.47,0,0,1,2.58.23c14.2,1.27,27,7.35,38,16A105.25,105.25,0,0,1,246,351.11Z"/><path class="cls-2" d="M179.83,334.93C180.1,311,146,309.17,146,309.17V308c0-.37,0-.8,0-1.2,0-2.11-.13-4.11-.23-6.05,0-1-.07-1.91-.17-2.84s-.1-1.77-.2-2.64-.1-1.61-.17-2.37-.13-1.51-.23-2.21c-.1-1.1-.2-2.1-.34-3,5.62-1.63,14.17-2.07,25.07-2.9a136.33,136.33,0,0,1,19.92,0c0,.84,0,1.64,0,2.44v.84c0,2,0,4,.1,5.88,0,1.24.07,2.47.1,3.67s.17,2.61.27,3.88c.13,1.84.27,3.64.5,5.35.13,1.27.3,2.5.47,3.71.1.6.17,1.17.3,1.77a15.21,15.21,0,0,0,.27,1.67c.36,2.21.83,4.31,1.3,6.25.3,1.07.57,2.07.87,3.11s.6,1.94.9,2.84a7.73,7.73,0,0,0,1.2.2,22.47,22.47,0,0,1,2.58.23c14.2,1.27,27,7.35,38,16,.43,2.31.93,4.54,1.54,6.65C241.66,362,179.53,358.86,179.83,334.93Z"/><path class="cls-4" d="M249.81,357.33A114.12,114.12,0,0,1,90.61,357a117.14,117.14,0,0,1,29.17-28.24c.94-.6,1.47-.9,1.47-.9a10,10,0,0,1,2.47-.64,25.81,25.81,0,0,1,9.26.64c.44.1.87.2,1.34.33l.5.1c2.94.74,6.05,1.74,9.32,2.74,1.41.47,2.88.9,4.35,1.37,3.11.94,6.31,1.84,9.59,2.57a71.55,71.55,0,0,0,7.55,1.24c.5,0,1,.1,1.5.1a4.64,4.64,0,0,0,.64,0,5.4,5.4,0,0,0,.8.07h.67c.3,0,.6,0,.9,0,.47,0,1,0,1.44,0,2.81,0,5.58-.14,8.32-.34a138.11,138.11,0,0,0,31.88-6.85c2.58-.87,4-1.43,4-1.43l.77.46a123.37,123.37,0,0,1,17,12.1c1,.87,2,1.74,3,2.67a98.16,98.16,0,0,1,8.75,8.83C246.94,353.72,248.44,355.53,249.81,357.33Z"/><path class="cls-19" d="M120.16,320.54c-3.81,11.92,7.64,21.25,14.22,22.59s26.61-.95,34.18-7.94c0,0-8-.29-24.89-4.25S120.16,320.54,120.16,320.54Z"/><path class="cls-19" d="M217,320.54c2.92,9.94-8.36,19.54-15.07,21.68-6.39,2-25.75,0-33.33-7,0,0,8-.29,24.89-4.25S217,320.54,217,320.54Z"/><path class="cls-4" d="M146,311.8l-.13,4.82s-16.8-.77-19.09,4.15,41.77,14.42,41.77,14.42-49.13,1-48.4-14.65C120.74,308.31,146,311.8,146,311.8Z"/><circle class="cls-20" cx="166.65" cy="337.23" r="1.41"/><circle class="cls-20" cx="170.4" cy="337.23" r="1.41"/><path class="cls-21" d="M166.65,337.23s-6.52,4.76-6.75,11.46,7.24,13.34,7.62,17.15"/><path class="cls-4" d="M191.14,311.22l1.07,5.86s15.83-1.23,18.12,3.69-41.77,14.42-41.77,14.42,49.13,1,48.4-14.65C216.39,308.31,191.14,311.22,191.14,311.22Z"/><path class="cls-5" d="M124.26,213.62c-13-3.52-28.72-17.94-28.9,1.21-.16,17.74,17.31,19.81,23.6,16.87,0,0-18.57-2-17.88,9.68,1,16.81,29.26,43.18,34.06,7.46C136.34,239.88,143.25,218.77,124.26,213.62Z"/><path class="cls-5" d="M215.78,213.55c13.22-2.33,28.27-17.47,28.45,1.68.16,17.74-17.31,19.81-23.61,16.87,0,0,13.38.29,11.91,8.9-4.58,26.84-25.38,28.81-30.41,21.29S195.14,217.18,215.78,213.55Z"/><path class="cls-21" d="M170.4,337.23a45.93,45.93,0,0,1,6,13.52c1.6,7-4.19,15.09-4.19,15.09"/><path class="cls-3" d="M128.68,220s2.48,28.18,0,42.55,13.73,42.86,36.56,42.86c19.11,0,41.58-17.36,42.83-39.62,1.41-25.08,4.24-40.1-8.31-52.14S135.23,194.13,128.68,220Z"/><path class="cls-5" d="M163.71,211.55c8.69,17.2,20.84,21.89,26.54,17,0,0,15.5,8.93,23.74,1.81s1-19.71-7.6-21.31S163.71,211.55,163.71,211.55Z"/><path class="cls-5" d="M171.86,211.55c-8.69,17.2-20.83,21.89-26.54,17,0,0-15.5,8.93-23.74,1.81s-1-19.71,7.6-21.31S171.86,211.55,171.86,211.55Z"/><path class="cls-4" d="M123.13,207.49c4.24-16,17-38.33,43.1-38.33,21,0,42.57,9.68,50,38.33C216.19,207.49,172.39,216.63,123.13,207.49Z"/><path class="cls-19" d="M173.07,217.81A287.69,287.69,0,0,1,122,213.2a5.82,5.82,0,0,1,2.26-11.42c.49.1,50,9.68,90.59.05a5.82,5.82,0,1,1,2.68,11.32C202.81,216.65,187.26,217.81,173.07,217.81Z"/><path class="cls-22" d="M284.57,275.35A114.18,114.18,0,1,1,170.41,161.2,113.57,113.57,0,0,1,284.57,275.35Z"/><path class="cls-3" d="M205.82,251.65a7.56,7.56,0,0,1,1.54-4.23c3.43-4.41,12.11-13.47,16.09,2,2.22,8.66-1.22,14.16-5.73,17.6a7.67,7.67,0,0,1-12.36-6.44Z"/><path class="cls-3" d="M130.3,251.65a7.57,7.57,0,0,0-1.55-4.23c-3.42-4.41-12.11-13.47-16.08,2-2.23,8.66,1.21,14.16,5.72,17.6a7.67,7.67,0,0,0,12.37-6.44Z"/><path class="cls-15" d="M160.41,247.58s7.31,10.53,3.85,17.37c-2.52,5-6.11,10.29,2.14,10.85"/><path class="cls-15" d="M164.26,285.59S174.9,287.46,180,279"/><path class="cls-15" d="M176.06,241.25s7.05-2.88,18.59-.2"/><path class="cls-15" d="M156.85,241.54s-9.16-3.85-18.32-1.28"/><circle class="cls-5" cx="146.73" cy="250.98" r="3.7"/><path class="cls-15" d="M179.14,248.91s5-2.26,13.08-.62"/><path class="cls-15" d="M153.65,248.91s-5-2.26-13.07-.62"/><circle class="cls-5" cx="185.96" cy="250.98" r="3.7"/><line class="cls-15" x1="119.05" y1="250.98" x2="125.41" y2="261.69"/><line class="cls-15" x1="217.45" y1="250.98" x2="211.08" y2="261.69"/></svg>