<svg id="Layer_1" data-name="Layer 1" xmlns="http://www.w3.org/2000/svg" viewBox="0 0 800 600"><defs><style>.cls-1{fill:#fff;stroke:#020000;stroke-linecap:round;stroke-linejoin:round;stroke-width:17px;}</style></defs><path class="cls-1" d="M369.88,488.62l-12.42-36.79a28.73,28.73,0,0,0-39.14-17L283,451c-24.6,11.21-49.66-14.67-37.66-38.9l17.23-34.8a28.73,28.73,0,0,0-15.68-39.66L210.51,324c-25.33-9.47-24.75-45.49.87-54.14l36.79-12.42a28.73,28.73,0,0,0,17-39.14L249,183c-11.21-24.6,14.67-49.66,38.9-37.66l34.8,17.23a28.73,28.73,0,0,0,39.66-15.68L376,110.51c9.47-25.33,45.49-24.75,54.14.87l12.42,36.79a28.73,28.73,0,0,0,39.14,17L517,149c24.6-11.21,49.66,14.67,37.66,38.9l-17.23,34.8a28.73,28.73,0,0,0,15.68,39.66L589.49,276c25.33,9.47,24.75,45.49-.87,54.14l-36.79,12.42a28.73,28.73,0,0,0-17,39.14L551,417c11.21,24.6-14.67,49.66-38.9,37.66l-34.8-17.23a28.73,28.73,0,0,0-39.66,15.68L424,489.49C414.55,514.82,378.53,514.24,369.88,488.62Z"/><line class="cls-1" x1="454.8" y1="224.92" x2="345.2" y2="371.68"/><circle class="cls-1" cx="348.25" cy="248.57" r="33.31"/><circle class="cls-1" cx="451.75" cy="351.43" r="33.31"/></svg>