<svg width="30" height="30" viewBox="0 0 30 30" fill="none" xmlns="http://www.w3.org/2000/svg">
<path id="Path 2" d="M15.004 0.610107C12.1571 0.610107 9.37419 1.4543 7.00711 3.03593C4.64003 4.61757 2.79512 6.8656 1.70567 9.49576C0.616222 12.1259 0.331173 15.0201 0.886568 17.8122C1.44196 20.6044 2.81286 23.1692 4.8259 25.1822C6.83893 27.1952 9.4037 28.5661 12.1959 29.1215C14.988 29.6769 17.8822 29.3919 20.5123 28.3024C23.1425 27.213 25.3905 25.3681 26.9722 23.001C28.5538 20.6339 29.398 17.851 29.398 15.0041C29.398 11.1866 27.8815 7.52541 25.1821 4.82601C22.4827 2.12661 18.8215 0.610107 15.004 0.610107ZM22.3009 16.5565C22.9955 17.1884 23.6571 17.8557 24.2831 18.5556C24.5566 18.8693 24.7946 19.2122 24.9928 19.5782C25.2657 20.108 25.0198 20.6897 24.545 20.7217H21.5952C21.2444 20.748 20.8922 20.6926 20.5664 20.5599C20.2405 20.4272 19.9498 20.2209 19.717 19.957C19.3092 19.5422 18.9314 19.0994 18.5385 18.6706C18.3827 18.4911 18.2043 18.3325 18.0077 18.1988C17.9334 18.1331 17.8442 18.0864 17.7479 18.0626C17.6516 18.0388 17.551 18.0386 17.4546 18.0621C17.3582 18.0855 17.2689 18.1319 17.1943 18.1973C17.1197 18.2627 17.062 18.3452 17.0261 18.4377C16.8177 18.8663 16.7113 19.3374 16.7153 19.8141C16.6833 20.5138 16.4734 20.6907 15.7757 20.7237C14.3109 20.8382 12.8445 20.5228 11.5564 19.8161C10.4337 19.1401 9.46639 18.2347 8.71761 17.1592C7.23774 15.0758 5.98512 12.84 4.98117 10.49C4.74527 9.96521 4.9182 9.68432 5.49695 9.67333C6.45955 9.65434 7.42115 9.65734 8.38375 9.67333C8.56336 9.6758 8.73755 9.7352 8.88125 9.84298C9.02495 9.95075 9.13075 10.1013 9.18342 10.2731C9.69388 11.5528 10.3503 12.7693 11.1396 13.8986C11.3358 14.2114 11.5863 14.4866 11.8793 14.7112C11.9362 14.7701 12.0081 14.8122 12.0873 14.8331C12.1664 14.854 12.2498 14.8529 12.3283 14.8298C12.4069 14.8068 12.4776 14.7627 12.5329 14.7023C12.5882 14.6419 12.6259 14.5676 12.642 14.4873C12.7385 14.2443 12.7958 13.9876 12.8119 13.7266C12.9008 12.8396 12.8851 11.9451 12.7649 11.0618C12.7463 10.8098 12.6423 10.5717 12.4703 10.3868C12.2982 10.2018 12.0683 10.081 11.8183 10.0442C11.5364 9.9912 11.5784 9.88624 11.7184 9.72631C11.8198 9.58201 11.9557 9.46531 12.1137 9.38676C12.2716 9.30822 12.4467 9.27032 12.623 9.27649H15.9536C16.4784 9.37645 16.5963 9.61535 16.6673 10.1441V13.8426C16.6613 14.0425 16.7673 14.6533 17.1371 14.7872C17.432 14.8872 17.6259 14.6483 17.8018 14.4623C18.5685 13.6005 19.2013 12.6284 19.679 11.5785C19.9039 11.1217 20.0979 10.6489 20.2868 10.1791C20.3326 10.0189 20.4328 9.87968 20.5702 9.78536C20.7076 9.69105 20.8735 9.64754 21.0395 9.66233H24.2471C24.3421 9.65991 24.437 9.66559 24.531 9.67933C25.0718 9.77129 25.2197 10.0042 25.0528 10.532C24.749 11.3321 24.3187 12.0783 23.7783 12.742C23.2426 13.4827 22.6708 14.1974 22.14 14.9411C21.6552 15.6228 21.6942 15.9657 22.3009 16.5565Z" fill="white"/>
</svg>
