<svg id="vk" xmlns="http://www.w3.org/2000/svg" width="28.792" height="28.792" viewBox="0 0 28.792 28.792">
  <path id="Path_2" data-name="Path 2" d="M14.4,0a14.4,14.4,0,1,0,14.4,14.4A14.4,14.4,0,0,0,14.4,0Zm7.3,15.953a27.374,27.374,0,0,1,1.983,2,5.652,5.652,0,0,1,.71,1.023c.273.53.027,1.112-.448,1.144H20.994a2.279,2.279,0,0,1-1.879-.765c-.408-.415-.786-.858-1.179-1.287a2.758,2.758,0,0,0-.531-.472.616.616,0,0,0-.982.239,3.089,3.089,0,0,0-.311,1.377c-.032.7-.242.877-.94.91a7.552,7.552,0,0,1-4.221-.908,9.316,9.316,0,0,1-2.84-2.658A35.826,35.826,0,0,1,4.373,9.884c-.236-.525-.063-.806.516-.817.963-.019,1.925-.016,2.888,0a.849.849,0,0,1,.8.6,17.92,17.92,0,0,0,1.957,3.627,3.1,3.1,0,0,0,.74.813.449.449,0,0,0,.763-.224,2.473,2.473,0,0,0,.17-.761,11.367,11.367,0,0,0-.047-2.666,1.112,1.112,0,0,0-.947-1.018c-.282-.053-.24-.158-.1-.318a1.061,1.061,0,0,1,.905-.45h3.332c.525.1.643.339.714.868l0,3.7c-.006.2.1.811.47.945.295.1.489-.139.665-.325a11.516,11.516,0,0,0,1.878-2.885c.225-.457.419-.93.608-1.4a.717.717,0,0,1,.753-.517l3.209,0a1.669,1.669,0,0,1,.284.017c.541.092.689.325.522.853a8,8,0,0,1-1.275,2.211c-.536.741-1.108,1.456-1.639,2.2C21.054,15.019,21.093,15.362,21.7,15.953Z" fill="#495057"/>
</svg>
